<svg xmlns="http://www.w3.org/2000/svg" width="19.527" height="19.529" viewBox="0 0 19.527 19.529">
  <g id="brac-health" transform="translate(-9.562 -9.561)">
    <path id="Path_84" data-name="Path 84" d="M29.226,10.995c-.018-.016-.037-.029-.055-.045.035.031.07.063.1.095C29.258,11.028,29.243,11.011,29.226,10.995Z" transform="translate(-7.207 -0.511)" fill="#b9b9b9"/>
    <path id="Path_85" data-name="Path 85" d="M9.566,25.251c0,.019,0,.038,0,.058,0-.036,0-.071.005-.108C9.572,25.218,9.567,25.234,9.566,25.251Z" transform="translate(-0.001 -5.749)" fill="#b9b9b9"/>
    <path id="Path_86" data-name="Path 86" d="M24.921,9.585h-.005c.044,0,.09,0,.134-.006C25.007,9.582,24.965,9.58,24.921,9.585Z" transform="translate(-5.643 -0.007)" fill="#b9b9b9"/>
    <path id="Path_87" data-name="Path 87" d="M16.064,22.58V19.627a3.568,3.568,0,0,1,3.2-3.544,3.471,3.471,0,0,1,.365-.019h3.558V13.118h0a3.435,3.435,0,0,0-.02-.372v0a3.536,3.536,0,0,0-.283-1.058c-.005-.011-.011-.021-.015-.032q-.066-.147-.145-.286l-.039-.064c-.047-.08-.1-.158-.151-.233-.021-.03-.043-.059-.065-.088-.049-.065-.1-.128-.152-.19-.028-.033-.058-.065-.088-.1-.051-.055-.1-.109-.159-.161-.034-.032-.069-.064-.1-.095q-.081-.07-.165-.135c-.042-.033-.085-.066-.129-.1s-.1-.065-.145-.1-.111-.071-.169-.1c-.037-.02-.075-.039-.113-.058-.07-.035-.14-.071-.213-.1-.027-.011-.054-.021-.082-.032-.083-.034-.166-.066-.252-.092l-.068-.019c-.09-.026-.181-.051-.274-.07-.03-.006-.061-.009-.091-.015-.085-.016-.171-.031-.259-.04-.052-.006-.106-.006-.159-.009s-.134-.009-.2-.01h-.014c-.075,0-.147.006-.221.011-.044,0-.09,0-.134.006a3.556,3.556,0,0,0-3.2,3.539v2.954H13.119c-.065,0-.128.006-.192.009s-.11,0-.164.008-.117.017-.175.026-.118.015-.176.027-.1.025-.152.038-.126.029-.188.048-.094.034-.14.051c-.063.022-.126.042-.187.068s-.1.048-.152.072-.107.048-.158.076c-.071.039-.139.082-.206.124-.028.018-.059.034-.087.052a3.58,3.58,0,0,0-.959.951l-.01.013a3.511,3.511,0,0,0-.3.545c-.007.015-.015.029-.021.044a3.522,3.522,0,0,0-.187.572c-.006.022-.012.044-.017.066a3.636,3.636,0,0,0-.076.591c0,.036,0,.071-.005.108s0,.044,0,.067c0,.046.005.09.007.135s0,.086.006.128a3.554,3.554,0,0,0,3.544,3.292h2.945Z" fill="#b9b9b9"/>
    <path id="Path_88" data-name="Path 88" d="M20.807,34.057a2.953,2.953,0,1,0,5.906,0V31.111H20.807Z" transform="translate(-4.133 -7.921)" fill="#b9b9b9"/>
    <path id="Path_89" data-name="Path 89" d="M30.27,20.808H23.76a2.956,2.956,0,0,0-2.953,2.953v2.953H30.27a2.953,2.953,0,0,0,0-5.906ZM24.6,24.364a.6.6,0,1,1,.6-.6A.6.6,0,0,1,24.6,24.364Zm2.413,0a.6.6,0,1,1,.6-.6A.6.6,0,0,1,27.016,24.364Zm2.413,0a.6.6,0,1,1,.6-.6A.6.6,0,0,1,29.429,24.364Z" transform="translate(-4.133 -4.134)" fill="#b9b9b9"/>
  </g>
</svg>
