<svg id="Layer_1" data-name="Layer 1" xmlns="http://www.w3.org/2000/svg" viewBox="0 0 12.03 12"><defs><style>.cls-1{opacity:0.12;}.cls-2{fill:#c7cdd6;}</style></defs><title>calender_unselected</title><g id="Icon-Calendar"><path id="Fill-133" class="cls-2" d="M10.78,12H1.2A1.2,1.2,0,0,1,0,10.8V2A1.11,1.11,0,0,1,1,.82h.6v.79H1c-.08,0-.19.16-.19.4V10.8a.42.42,0,0,0,.4.41H10.8a.42.42,0,0,0,.41-.41V2c0-.24-.14-.4-.19-.4h-.6V.82H11A1.13,1.13,0,0,1,12,2V10.8A1.3,1.3,0,0,1,10.78,12"/><path id="Fill-134" class="cls-2" d="M2.8,2.42A.43.43,0,0,1,2.39,2V.41A.43.43,0,0,1,2.8,0a.42.42,0,0,1,.41.41V2a.44.44,0,0,1-.41.41"/><path id="Fill-135" class="cls-2" d="M9.17,2.42A.42.42,0,0,1,8.76,2V.41a.41.41,0,0,1,.82,0V2a.42.42,0,0,1-.41.41"/><polygon id="Fill-136" class="cls-2" points="4 0.82 7.97 0.82 7.97 1.63 4 1.63 4 0.82"/><polygon id="Fill-137" class="cls-2" points="0.79 3.21 11.18 3.21 11.18 4.03 0.79 4.03 0.79 3.21"/><polygon id="Fill-138" class="cls-2" points="9.58 4.82 10.37 4.82 10.37 5.61 9.58 5.61 9.58 4.82"/><polygon id="Fill-139" class="cls-2" points="7.97 4.82 8.79 4.82 8.79 5.61 7.97 5.61 7.97 4.82"/><polygon id="Fill-140" class="cls-2" points="6.39 4.82 7.18 4.82 7.18 5.61 6.39 5.61 6.39 4.82"/><polygon id="Fill-141" class="cls-2" points="4.79 4.82 5.58 4.82 5.58 5.61 4.79 5.61 4.79 4.82"/><polygon id="Fill-142" class="cls-2" points="3.18 4.82 4 4.82 4 5.61 3.18 5.61 3.18 4.82"/><polygon id="Fill-143" class="cls-2" points="9.58 6.42 10.37 6.42 10.37 7.21 9.58 7.21 9.58 6.42"/><polygon id="Fill-144" class="cls-2" points="7.97 6.42 8.79 6.42 8.79 7.21 7.97 7.21 7.97 6.42"/><polygon id="Fill-145" class="cls-2" points="6.39 6.42 7.18 6.42 7.18 7.21 6.39 7.21 6.39 6.42"/><polygon id="Fill-146" class="cls-2" points="4.79 6.42 5.58 6.42 5.58 7.21 4.79 7.21 4.79 6.42"/><polygon id="Fill-147" class="cls-2" points="3.18 6.42 4 6.42 4 7.21 3.18 7.21 3.18 6.42"/><polygon id="Fill-148" class="cls-2" points="1.6 6.42 2.4 6.42 2.4 7.21 1.6 7.21 1.6 6.42"/><polygon id="Fill-149" class="cls-2" points="9.58 8 10.37 8 10.37 8.82 9.58 8.82 9.58 8"/><polygon id="Fill-150" class="cls-2" points="7.97 8 8.79 8 8.79 8.82 7.97 8.82 7.97 8"/><polygon id="Fill-151" class="cls-2" points="6.39 8 7.18 8 7.18 8.82 6.39 8.82 6.39 8"/><polygon id="Fill-152" class="cls-2" points="4.79 8 5.58 8 5.58 8.82 4.79 8.82 4.79 8"/><polygon id="Fill-153" class="cls-2" points="3.18 8 4 8 4 8.82 3.18 8.82 3.18 8"/><polygon id="Fill-154" class="cls-2" points="1.6 8 2.4 8 2.4 8.82 1.6 8.82 1.6 8"/><polygon id="Fill-155" class="cls-2" points="7.97 9.61 8.79 9.61 8.79 10.39 7.97 10.39 7.97 9.61"/><polygon id="Fill-156" class="cls-2" points="6.39 9.61 7.18 9.61 7.18 10.39 6.39 10.39 6.39 9.61"/><polygon id="Fill-157" class="cls-2" points="4.79 9.61 5.58 9.61 5.58 10.39 4.79 10.39 4.79 9.61"/><polygon id="Fill-158" class="cls-2" points="3.18 9.61 4 9.61 4 10.39 3.18 10.39 3.18 9.61"/><polygon id="Fill-159" class="cls-2" points="1.6 9.61 2.4 9.61 2.4 10.39 1.6 10.39 1.6 9.61"/></g></svg>