<svg width="1792.0000000000002" height="1792.0000000000002" xmlns="http://www.w3.org/2000/svg">

 <g>
  <title>background</title>
  <rect fill="none" id="canvas_background" height="402" width="582" y="-1" x="-1"/>
 </g>
 <g>
  <title>Layer 1</title>
  <path fill="#d10d74" id="svg_1" d="m1600,960q0,54 -37,91l-651,651q-39,37 -91,37q-51,0 -90,-37l-75,-75q-38,-38 -38,-91t38,-91l293,-293l-704,0q-52,0 -84.5,-37.5t-32.5,-90.5l0,-128q0,-53 32.5,-90.5t84.5,-37.5l704,0l-293,-294q-38,-36 -38,-90t38,-90l75,-75q38,-38 90,-38q53,0 91,38l651,651q37,35 37,90z"/>
 </g>
</svg>