<svg xmlns="http://www.w3.org/2000/svg" width="28.264" height="23.105" viewBox="0 0 28.264 23.105">
  <g id="Icon_ionic-md-planet" data-name="Icon ionic-md-planet" transform="translate(-1.25 -4.348)">
    <g id="Path_148" data-name="Path 148" transform="translate(-1.128 -0.224)" fill="none">
      <path d="M9.457,9.965c-.147.176-.287.352-.422.539a54.944,54.944,0,0,0,7.28,6.664,56.833,56.833,0,0,0,6.53,4.4c.346.193.686.381,1.014.551.147-.176.287-.352.422-.539a8.777,8.777,0,0,0,1.366-3.142c.047-.188.088-.375.123-.557A9.42,9.42,0,0,0,12.593,7.556,8.748,8.748,0,0,0,9.457,9.965Z" stroke="none"/>
      <path d="M 16.50553703308105 6.695520401000977 C 15.13469505310059 6.695514678955078 13.80471611022949 6.998775482177734 12.59306716918945 7.555683135986328 C 11.33871650695801 8.135963439941406 10.3539867401123 8.89796257019043 9.457187652587891 9.964742660522461 C 9.310647964477539 10.14059257507324 9.169967651367188 10.31643295288086 9.03515625 10.50400352478027 C 10.92255783081055 12.63171291351318 13.49573707580566 14.98803329467773 16.31510734558105 17.16850280761719 C 18.53074645996094 18.88005447387695 20.78741836547852 20.40403366088867 22.84478759765625 21.57046318054199 C 23.19061660766602 21.76389312744141 23.53058624267578 21.95146369934082 23.85882568359375 22.1214427947998 C 24.00535583496094 21.94560241699219 24.14603805541992 21.76975250244141 24.28084564208984 21.58219337463379 C 24.96664810180664 20.63849258422852 25.34177780151367 19.63618469238281 25.64657592773438 18.44044303894043 C 25.69346618652344 18.25287246704102 25.7344970703125 18.06530380249023 25.76966667175293 17.88360214233398 C 26.69577789306641 13.01857376098633 23.68297576904297 8.218032836914062 18.82381629943848 6.987123489379883 C 18.04733848571777 6.789854049682617 17.27006912231445 6.695522308349609 16.50553703308105 6.695520401000977 M 16.50546646118164 5.695524215698242 C 17.36517715454102 5.695524215698242 18.22802734375 5.803993225097656 19.07004737854004 6.017913818359375 C 24.40660667419434 7.369752883911133 27.78122711181641 12.66400337219238 26.75202751159668 18.07060241699219 C 26.71137619018555 18.28063201904297 26.66604614257812 18.48564338684082 26.61672592163086 18.68296432495117 C 26.34719085693359 19.74039077758789 25.95615005493164 20.97732543945312 25.09090614318848 22.16854667663574 C 24.9583625793457 22.35279846191406 24.81518363952637 22.53586196899414 24.62705612182617 22.76162338256836 L 24.11259841918945 23.37898254394531 L 23.39897727966309 23.00944328308105 C 23.04227828979492 22.82472229003906 22.67189788818359 22.61955261230469 22.35663604736328 22.44322395324707 L 22.35410690307617 22.44180297851562 L 22.35158729553223 22.44038391113281 C 20.26726722717285 21.2586727142334 17.96848678588867 19.7093334197998 15.70377731323242 17.95988464355469 C 12.84538650512695 15.74923324584961 10.21157646179199 13.33714294433594 8.287067413330078 11.1676025390625 L 7.756567001342773 10.56955337524414 L 8.223127365112305 9.920383453369141 C 8.35618782043457 9.735254287719727 8.499856948852539 9.551492691040039 8.688966751098633 9.324563980102539 C 9.688997268676758 8.134963989257812 10.79525756835938 7.285552978515625 12.1732063293457 6.648094177246094 C 13.54914665222168 6.015663146972656 15.00597763061523 5.695524215698242 16.50546646118164 5.695524215698242 Z" stroke="none" fill="#d5e300"/>
    </g>
    <g id="Path_149" data-name="Path 149" transform="translate(0)" fill="none">
      <path d="M24.887,20.045a10.92,10.92,0,0,1-.434,1.026,14.651,14.651,0,0,1,1.87,2.72c.141.24.434.768.053.727a2.794,2.794,0,0,1-.322-.076,22.235,22.235,0,0,1-4.941-2.192,58.2,58.2,0,0,1-6.641-4.472,54.767,54.767,0,0,1-7.655-7.063A20.118,20.118,0,0,1,4.724,7.906,4.428,4.428,0,0,1,4.4,7.3c-.147-.363.293-.3.41-.27a12.282,12.282,0,0,1,3.411,1.4,4.926,4.926,0,0,1,.815-.668A19.153,19.153,0,0,0,5.21,5.673c-1.354-.516-2.409-.4-2.784.217-.715,1.166.821,4.238,3.828,7.737A9.42,9.42,0,0,0,19.929,24.177a33.43,33.43,0,0,0,5.68,2.046c1.4.358,2.368.322,2.743-.287C29,24.869,27.642,22.9,24.887,20.045Z" stroke="none"/>
      <path d="M 27.11807441711426 26.45223426818848 C 27.71059226989746 26.4522533416748 28.13224220275879 26.29220390319824 28.35158538818359 25.93576049804688 C 29.00221633911133 24.86897087097168 27.6423454284668 22.89952087402344 24.8874568939209 20.04497909545898 C 24.64713668823242 20.68973922729492 24.45370674133301 21.07073974609375 24.45370674133301 21.07073974609375 C 25.5204963684082 22.30751037597656 25.89562606811523 23.05777931213379 26.32351684570312 23.79046058654785 C 26.45895767211914 24.02184677124023 26.73564529418945 24.51949882507324 26.41595649719238 24.5195426940918 C 26.40361595153809 24.51954460144043 26.39042854309082 24.5188045501709 26.37626647949219 24.51728057861328 C 26.27662658691406 24.49970054626465 26.17111587524414 24.47625923156738 26.05388641357422 24.44108963012695 C 24.80539703369141 24.12457084655762 23.05281639099121 23.34498977661133 21.1126651763916 22.2488899230957 C 19.01425552368164 21.05901908874512 16.72241592407227 19.51158905029297 14.4716157913208 17.77659034729004 C 11.47639656066895 15.46131038665771 8.756675720214844 12.95259952545166 6.816525936126709 10.71350955963135 C 5.919716358184814 9.681889533996582 5.198756217956543 8.708889961242676 4.723986148834229 7.905869960784912 C 4.583306312561035 7.665550231933594 4.495386123657227 7.536590099334717 4.395736217498779 7.29626989364624 C 4.298851490020752 7.055985450744629 4.458250522613525 7.002756595611572 4.611244201660156 7.002756595611572 C 4.689640522003174 7.002756595611572 4.766327857971191 7.016719818115234 4.806046009063721 7.026649951934814 C 5.679396152496338 7.249380111694336 6.857556343078613 7.606929779052734 8.217415809631348 8.421680450439453 C 8.217415809631348 8.421680450439453 8.469466209411621 8.14033031463623 9.032166481018066 7.753469944000244 C 7.695745944976807 6.850800037384033 6.417946338653564 6.129839897155762 5.210485935211182 5.672639846801758 C 4.632656097412109 5.452518463134766 4.109122753143311 5.347660541534424 3.66978931427002 5.347660541534424 C 3.079654693603516 5.347660541534424 2.641326427459717 5.536712169647217 2.426286220550537 5.889520168304443 C 1.711186170578003 7.055950164794922 3.246886014938354 10.12736988067627 6.253826141357422 13.62666988372803 C 4.993606090545654 18.66753959655762 8.047435760498047 23.78459930419922 13.08244609832764 25.05653953552246 C 13.85674476623535 25.25247192382812 14.63253116607666 25.34609222412109 15.39543437957764 25.34609222412109 C 17.00613784790039 25.34609222412109 18.56037330627441 24.92907524108887 19.92864608764648 24.17732048034668 C 22.161865234375 25.20894050598145 24.15477561950684 25.85370063781738 25.6084156036377 26.22298049926758 C 26.19018173217773 26.37146377563477 26.69725036621094 26.45222091674805 27.11807441711426 26.45223426818848 M 27.11818695068359 27.45223045349121 L 27.11805534362793 27.45223045349121 C 26.62208557128906 27.45222091674805 26.04738616943359 27.36706924438477 25.36112594604492 27.19191932678223 C 24.13298797607422 26.87992286682129 22.22601318359375 26.30062294006348 19.95710182189941 25.2884521484375 C 18.53490829467773 25.98169136047363 16.96834373474121 26.34609031677246 15.39543628692627 26.34609031677246 C 14.53728580474854 26.34609031677246 13.67654609680176 26.23838996887207 12.83713626861572 26.02597999572754 C 10.14397621154785 25.34564018249512 7.875116348266602 23.6557502746582 6.448885917663574 21.2677001953125 C 5.112908363342285 19.03078079223633 4.665475845336914 16.43148803710938 5.169384002685547 13.89398574829102 C 3.792775869369507 12.2487211227417 2.718200445175171 10.67739295959473 2.048506021499634 9.327759742736816 C 1.174676179885864 7.56673002243042 1.019386172294617 6.271100044250488 1.573746085166931 5.366859912872314 C 1.973856091499329 4.710400104522705 2.71872615814209 4.347660064697266 3.669786214828491 4.347660064697266 C 4.248156070709229 4.347660064697266 4.886296272277832 4.479040145874023 5.566476345062256 4.738150119781494 C 6.772655963897705 5.194859981536865 8.089996337890625 5.91034984588623 9.591886520385742 6.924789905548096 L 10.80793571472168 7.746150016784668 L 9.598695755004883 8.577509880065918 C 9.192925453186035 8.85648250579834 8.988349914550781 9.062378883361816 8.958989143371582 9.092731475830078 L 8.412905693054199 9.728440284729004 L 7.703465938568115 9.279500007629395 C 7.24738073348999 9.006240844726562 6.811625957489014 8.788451194763184 6.402461051940918 8.611945152282715 C 6.743101119995117 9.070456504821777 7.136163234710693 9.556975364685059 7.571226119995117 10.05743980407715 C 9.468976020812988 12.24759006500244 12.13639640808105 14.70755958557129 15.08319568634033 16.98541069030762 C 17.31374549865723 18.70479011535645 19.56963539123535 20.2243595123291 21.60591697692871 21.37899971008301 C 22.69033813476562 21.99165153503418 23.70699882507324 22.49917030334473 24.59549331665039 22.87459373474121 C 24.36480522155762 22.54136276245117 24.0791130065918 22.16749382019043 23.69647598266602 21.72389030456543 L 23.25843620300293 21.21604919433594 L 23.56203651428223 20.61804962158203 C 23.56302642822266 20.61609077453613 23.73626518249512 20.27029991149902 23.95042610168457 19.69572067260742 L 24.50477600097656 18.20844078063965 L 25.60700607299805 19.35054016113281 C 27.13911628723145 20.93806076049805 28.13746643066406 22.14146041870117 28.74888610839844 23.13771057128906 C 29.05659675598145 23.63909912109375 29.99302673339844 25.16492080688477 29.20532608032227 26.45644950866699 C 28.9246654510498 26.91257095336914 28.3367862701416 27.45223045349121 27.11818695068359 27.45223045349121 Z" stroke="none" fill="#d5e300"/>
    </g>
  </g>
</svg>
