<svg xmlns="http://www.w3.org/2000/svg" width="18.91" height="29.29" viewBox="0 0 18.91 29.29">
  <g id="Group_34" data-name="Group 34" transform="translate(-2005.946 -180.02)">
    <path id="Path_44" data-name="Path 44" d="M2013.055,197.689v-.427c0-2.391-.008-4.781.006-7.171a1.851,1.851,0,0,1,2.469-1.727,1.823,1.823,0,0,1,1.241,1.67c.016.847.006,1.694.008,2.542v.377a3.966,3.966,0,0,1,.74-.231,1.658,1.658,0,0,1,1.767,1.048c.074.18.115.2.29.112a1.645,1.645,0,0,1,2.318.87c.078.189.126.188.293.108a1.644,1.644,0,0,1,2.418,1.487q.019,3.617-.02,7.237a5.033,5.033,0,0,1-.516,2.17,1.845,1.845,0,0,1-.51.747,1.36,1.36,0,0,0-.538,1.41,6.081,6.081,0,0,1,0,.749c-.005.228-.118.382-.354.381s-.348-.153-.348-.384c0-.608,0-1.217,0-1.826a.388.388,0,0,1,.193-.353,3.162,3.162,0,0,0,1.311-2.37,6.735,6.735,0,0,0,.072-1.1q0-3.309.005-6.617a.926.926,0,0,0-.5-.885.914.914,0,0,0-.961.032.894.894,0,0,0-.417.6c-.048.221-.162.4-.421.355s-.314-.237-.312-.466.005-.479-.006-.717a.931.931,0,0,0-.8-.888.947.947,0,0,0-1.043.647c-.016.052-.028.1-.042.157a.341.341,0,0,1-.4.3.361.361,0,0,1-.316-.393c-.007-.228,0-.456,0-.684a.948.948,0,0,0-.787-1,.936.936,0,0,0-1.094.743c-.065.219-.161.4-.419.357s-.316-.229-.315-.461c0-1.315,0-2.629,0-3.945a1.142,1.142,0,0,0-.833-1.115,1.169,1.169,0,0,0-1.3.517,1.348,1.348,0,0,0-.17.75q0,3.96,0,7.921c0,.087,0,.174,0,.261a.365.365,0,0,1-.219.369.375.375,0,0,1-.42-.091l-1.079-.994a1.907,1.907,0,0,0-.5-.362,1.05,1.05,0,0,0-1.367,1.51,1.359,1.359,0,0,0,.286.353,8.441,8.441,0,0,1,2.657,4.458,5.631,5.631,0,0,0,.879,1.946,2.235,2.235,0,0,0,.976.786.478.478,0,0,1,.333.5c-.005.544,0,1.087,0,1.63-.005.375-.117.489-.5.489-2.217,0-4.433.012-6.65-.016a1.932,1.932,0,0,1-1.96-2.1q-.005-7.481,0-14.964,0-4.807,0-9.616a1.982,1.982,0,0,1,1.516-2.049,2.423,2.423,0,0,1,.583-.043q6.57,0,13.138,0a1.961,1.961,0,0,1,2.112,2.114q0,5.248,0,10.5a1.023,1.023,0,0,1-.016.259.346.346,0,0,1-.683-.033,2.435,2.435,0,0,1-.006-.293q0-5.2,0-10.4a1.3,1.3,0,0,0-.937-1.4,1.588,1.588,0,0,0-.452-.042q-6.553,0-13.105,0a1.269,1.269,0,0,0-1.439,1.442q0,12.241,0,24.482a1.263,1.263,0,0,0,1.416,1.432c1.977.006,3.956,0,5.933.013.249,0,.372-.061.329-.324a.325.325,0,0,1,0-.1,1.185,1.185,0,0,0-.584-1.282,4.252,4.252,0,0,1-1.453-2.374c-.2-.619-.363-1.249-.621-1.85a6.612,6.612,0,0,0-1.716-2.425,2.334,2.334,0,0,1-.863-1.268,1.742,1.742,0,0,1,.723-1.882,1.86,1.86,0,0,1,2.083.082C2012.449,197.146,2012.716,197.4,2013.055,197.689Z" transform="translate(0 0)" fill="#d5e300" stroke="#d5e300" stroke-miterlimit="10" stroke-width="0.5"/>
    <path id="Path_45" data-name="Path 45" d="M2018.936,190.348a1.565,1.565,0,0,1,.923-1.761c.124-.063.151-.138.084-.259-.078-.143-.139-.3-.223-.434a1.665,1.665,0,0,0-.37-.529c-.212-.148-.368.136-.564.2a1.524,1.524,0,0,1-1.231-.049q-.46-.245-.9-.519a1.48,1.48,0,0,1-.688-1.39c0-.2-.065-.265-.25-.278a5.657,5.657,0,0,0-.944,0c-.158.015-.228.068-.218.24a1.557,1.557,0,0,1-.957,1.593c-.165.082-.323.18-.481.274a1.473,1.473,0,0,1-1.633-.009c-.236-.146-.343-.09-.457.113-.053.094-.125.178-.176.273a1.667,1.667,0,0,0-.291.609c-.01.229.309.248.465.384a1.485,1.485,0,0,1,.558.962,5.817,5.817,0,0,1,0,1.3,1.423,1.423,0,0,1-.832,1.133c-.226.115-.245.229-.123.422.081.129.137.272.218.4a1.513,1.513,0,0,0,.344.467c.179.119.318-.12.486-.177a.352.352,0,0,1,.493.17c.1.2,0,.354-.178.464-.074.045-.152.083-.227.127-.727.431-.737.431-1.242-.257a5.681,5.681,0,0,1-.751-1.4c-.091-.248-.076-.48.19-.574a1.418,1.418,0,0,0,.946-1.7,1.03,1.03,0,0,0-.58-.935c-.676-.346-.761-.336-.392-1.174a5.752,5.752,0,0,1,.876-1.366.417.417,0,0,1,.625-.1c.136.089.274.176.415.257a.824.824,0,0,0,.894,0c.195-.118.39-.238.594-.338a.881.881,0,0,0,.512-.9c-.028-.859-.1-.861.836-.969a6.169,6.169,0,0,1,1.624.062c.271.04.426.209.376.473a1.362,1.362,0,0,0,.938,1.6,1.069,1.069,0,0,0,1.21-.035c.1-.069.2-.127.306-.187a.391.391,0,0,1,.55.092,5.944,5.944,0,0,1,1.076,1.846.39.39,0,0,1-.18.525.178.178,0,0,1-.029.015c-1.157.513-.908.76-.908,1.987,0,.3.247.469.488.609.178.1.369.189.535.307a.3.3,0,0,1,.086.433.311.311,0,0,1-.417.155,2.934,2.934,0,0,1-1.105-.726A1.944,1.944,0,0,1,2018.936,190.348Z" transform="translate(-0.329 -0.404)" fill="#d5e300" stroke="#d5e300" stroke-miterlimit="10" stroke-width="0.5"/>
    <path id="Path_46" data-name="Path 46" d="M2009.891,206.2c-.357,0-.715.006-1.073,0-.234,0-.443-.072-.442-.361s.211-.348.447-.349q1.057,0,2.112,0c.24,0,.444.067.442.355s-.212.352-.447.356C2010.585,206.21,2010.237,206.2,2009.891,206.2Z" transform="translate(-0.204 -2.355)" fill="#d5e300" stroke="#d5e300" stroke-miterlimit="10" stroke-width="0.5"/>
  </g>
</svg>
