<svg xmlns="http://www.w3.org/2000/svg" width="26.305" height="23.604" viewBox="0 0 26.305 23.604">
  <g id="Icon_awesome-map-marked-alt" data-name="Icon awesome-map-marked-alt" transform="translate(1 1)" fill="none" stroke-linecap="round" stroke-linejoin="round">
    <path d="M12.152,0A5.317,5.317,0,0,0,6.836,5.317c0,2.374,3.475,6.7,4.806,8.271a.666.666,0,0,0,1.021,0c1.331-1.571,4.806-5.9,4.806-8.271A5.317,5.317,0,0,0,12.152,0Zm0,7.089a1.772,1.772,0,1,1,1.772-1.772A1.772,1.772,0,0,1,12.152,7.089ZM.849,9.112A1.351,1.351,0,0,0,0,10.366V20.928a.675.675,0,0,0,.926.627L6.751,18.9V9.069a12.778,12.778,0,0,1-.9-1.959Zm11.3,6.064a2.016,2.016,0,0,1-1.541-.716c-.83-.979-1.712-2.094-2.51-3.237V18.9l8.1,2.7V11.224c-.8,1.143-1.68,2.258-2.51,3.237A2.017,2.017,0,0,1,12.152,15.176ZM23.379,6.8,17.553,9.452V21.6l5.9-2.361A1.35,1.35,0,0,0,24.3,17.99V7.427A.675.675,0,0,0,23.379,6.8Z" stroke="none"/>
    <path d="M 12.1523380279541 -3.814697265625e-06 C 9.215948104858398 -3.814697265625e-06 6.835687637329102 2.380256652832031 6.835687637329102 5.316646575927734 C 6.835687637329102 7.69057559967041 10.31049823760986 12.01731586456299 11.64176845550537 13.58783531188965 C 11.77658271789551 13.74691009521484 11.96456527709961 13.82644844055176 12.15249538421631 13.82644844055176 C 12.34042549133301 13.82644844055176 12.5283031463623 13.74691009521484 12.66290760040283 13.58783531188965 C 13.99417781829834 12.01731586456299 17.4689884185791 7.69057559967041 17.4689884185791 5.316646575927734 C 17.4689884185791 2.380256652832031 15.0887279510498 -3.814697265625e-06 12.1523380279541 -3.814697265625e-06 M 12.1523380279541 7.088865280151367 C 11.1733980178833 7.088865280151367 10.38011837005615 6.295585632324219 10.38011837005615 5.316646575927734 C 10.38011837005615 4.337705612182617 11.1733980178833 3.544435501098633 12.1523380279541 3.544435501098633 C 13.1312780380249 3.544435501098633 13.92455768585205 4.337705612182617 13.92455768585205 5.316646575927734 C 13.92455768585205 6.295585632324219 13.1312780380249 7.088865280151367 12.1523380279541 7.088865280151367 M 23.63006401062012 6.751369476318359 C 23.54728698730469 6.751369476318359 23.46240997314453 6.766876220703125 23.37890815734863 6.80024528503418 L 17.55337905883789 9.451815605163574 L 17.55337905883789 21.60415649414062 L 23.45569801330566 19.24331665039062 C 23.96842765808105 19.03836631774902 24.30466842651367 18.54184532165527 24.30467796325684 17.98968505859375 L 24.30467796325684 7.427275657653809 C 24.30467796325684 7.039555549621582 23.98690223693848 6.751371383666992 23.63006401062012 6.751369476318359 M 5.854637145996094 7.109965324401855 L 0.8489780426025391 9.11214542388916 C 0.3363285064697266 9.317185401916504 0.0001277923583984375 9.813645362854004 -1.9073486328125e-06 10.36577606201172 L -1.9073486328125e-06 20.92818641662598 C -1.9073486328125e-06 21.31586837768555 0.3178005218505859 21.60408592224121 0.6746063232421875 21.60408592224121 C 0.7574081420898438 21.60408592224121 0.8422393798828125 21.58858871459961 0.9257678985595703 21.55520629882812 L 6.751298904418945 18.90363502502441 L 6.751298904418945 9.068685531616211 C 6.378288269042969 8.39439582824707 6.073217391967773 7.737835884094238 5.854637145996094 7.109965324401855 M 8.101558685302734 11.2236156463623 L 8.101558685302734 18.9032154083252 L 16.20311737060547 21.60373497009277 L 16.20311737060547 11.22403526306152 C 15.40477848052979 12.36711597442627 14.52288818359375 13.48234558105469 13.69289779663086 14.46128559112549 C 13.30765819549561 14.91572570800781 12.74602794647217 15.17649555206299 12.1523380279541 15.17649555206299 C 11.55864810943604 15.17649555206299 10.9970178604126 14.91572570800781 10.61177825927734 14.46086502075195 C 9.782208442687988 13.48192596435547 8.899897575378418 12.36711597442627 8.101558685302734 11.2236156463623 M 12.1523380279541 -1.000003814697266 C 15.63534832000732 -1.000003814697266 18.4689884185791 1.833635330200195 18.4689884185791 5.316646575927734 C 18.4689884185791 6.144339561462402 18.16662406921387 7.147632598876953 17.5502758026123 8.354516983032227 L 22.96463775634766 5.890095710754395 C 22.97887802124023 5.88360595703125 22.99327850341797 5.87746524810791 23.00780868530273 5.871655464172363 C 23.20752716064453 5.791835784912109 23.4168872833252 5.751365661621094 23.63006782531738 5.751365661621094 C 23.63007736206055 5.751365661621094 23.63008880615234 5.751365661621094 23.63009834289551 5.751365661621094 C 24.55346870422363 5.751396179199219 25.30467796325684 6.503205299377441 25.30467796325684 7.427275657653809 L 25.30467796325684 17.98968505859375 C 25.30465888977051 18.95648574829102 24.72458839416504 19.81304550170898 23.82686805725098 20.1718864440918 L 17.92475891113281 22.53263473510742 C 17.80495452880859 22.5805549621582 17.67889404296875 22.60415649414062 17.55346298217773 22.60415649414062 C 17.35632705688477 22.60415649414062 17.16067123413086 22.54590606689453 16.99274826049805 22.43221664428711 C 16.95202827453613 22.40464782714844 16.91372108459473 22.37434387207031 16.87801742553711 22.34165573120117 C 16.84957885742188 22.36766052246094 16.81948471069336 22.39215850830078 16.78782844543457 22.41497611999512 C 16.61537551879883 22.53927040100098 16.41032791137695 22.60374069213867 16.20304298400879 22.60374069213867 C 16.09688568115234 22.60374069213867 15.99016952514648 22.58684349060059 15.88688850402832 22.55241584777832 L 7.785327911376953 19.85189628601074 C 7.649248123168945 19.80653762817383 7.527936935424805 19.73386192321777 7.426652908325195 19.64117431640625 C 7.350469589233398 19.7109546661377 7.262765884399414 19.76954650878906 7.165567398071289 19.81378555297852 L 1.340038299560547 22.46535491943359 C 1.325788497924805 22.47184562683105 1.31138801574707 22.47799491882324 1.296848297119141 22.48380661010742 C 1.097127914428711 22.5636157989502 0.8877773284912109 22.60408592224121 0.6746082305908203 22.60408592224121 C -0.2487716674804688 22.60408592224121 -1.000001907348633 21.85227584838867 -1.000001907348633 20.92818641662598 L -1.000001907348633 10.36577606201172 C -0.9997711181640625 9.399015426635742 -0.4197711944580078 8.542575836181641 0.4776172637939453 8.183655738830566 L 5.483257293701172 6.181486129760742 C 5.602588653564453 6.133754730224609 5.728687286376953 6.109965324401855 5.854625701904297 6.109965324401855 C 5.875795364379883 6.109965324401855 5.896953582763672 6.110636711120605 5.918083190917969 6.111979484558105 C 5.863044738769531 5.830458641052246 5.835687637329102 5.565618515014648 5.835687637329102 5.316646575927734 C 5.835687637329102 1.833635330200195 8.669327735900879 -1.000003814697266 12.1523380279541 -1.000003814697266 Z M 12.1523380279541 6.088865280151367 C 12.57813835144043 6.088865280151367 12.92455768585205 5.742445945739746 12.92455768585205 5.316646575927734 C 12.92455768585205 4.890846252441406 12.57813835144043 4.544435501098633 12.1523380279541 4.544435501098633 C 11.72653770446777 4.544435501098633 11.38011837005615 4.890846252441406 11.38011837005615 5.316646575927734 C 11.38011837005615 5.742445945739746 11.72653770446777 6.088865280151367 12.1523380279541 6.088865280151367 Z" stroke="none" fill="#d5e300"/>
  </g>
</svg>
