<svg xmlns="http://www.w3.org/2000/svg" width="27.903" height="22" viewBox="0 0 27.903 22">
  <g id="Group_174" data-name="Group 174" transform="translate(1 1)">
    <g id="Path_138" data-name="Path 138" transform="translate(-1808.005 -35.832)" fill="none" stroke-linecap="round" stroke-linejoin="round">
      <path d="M1811.6,45.385a5.958,5.958,0,0,1,2.971-.854h0l16.206,0V40.66a2.106,2.106,0,0,0-1.637-1.856,2.55,2.55,0,0,0-.81-.117h-9.091c-.348,0-.7,0-1.045,0a.344.344,0,0,1-.33-.173c-.417-.639-.844-1.272-1.264-1.909a1.636,1.636,0,0,0-1.409-.76c-1.793-.019-3.587-.029-5.379,0-.791.015-1.766.27-1.811,1.515V50.8l1.495-3.212A5.215,5.215,0,0,1,1811.6,45.385Z" stroke="none"/>
      <path d="M 1808.005859375 50.79798126220703 L 1809.50048828125 47.58576202392578 C 1809.896728515625 46.73368072509766 1810.6435546875 45.95209121704102 1811.603271484375 45.38492965698242 C 1812.53564453125 44.83395004272461 1813.590698242188 44.53044128417969 1814.574462890625 44.53044128417969 L 1814.5751953125 44.53044128417969 L 1814.575439453125 44.53044128417969 L 1830.781616210938 44.53391265869141 L 1830.781616210938 40.66035079956055 C 1830.781616210938 39.77068328857422 1830.050659179688 39.10412979125977 1829.144409179688 38.80414199829102 C 1828.882568359375 38.71744537353516 1828.61181640625 38.68701171875 1828.336303710938 38.68701171875 C 1828.335815429688 38.68701171875 1828.335205078125 38.68701171875 1828.334594726562 38.68701171875 C 1825.30419921875 38.68817138671875 1822.273681640625 38.68803024291992 1819.243286132812 38.68830108642578 C 1819.241333007812 38.68830108642578 1819.239379882812 38.68830108642578 1819.237548828125 38.68830108642578 C 1819.04541015625 38.68830108642578 1818.853149414062 38.68694305419922 1818.661010742188 38.68694305419922 C 1818.5068359375 38.68694305419922 1818.352661132812 38.68782043457031 1818.198608398438 38.69097137451172 C 1818.194213867188 38.69106292724609 1818.189819335938 38.69110488891602 1818.185546875 38.69110488891602 C 1818.044555664062 38.69110870361328 1817.949340820312 38.64277267456055 1817.868286132812 38.51846313476562 C 1817.451416015625 37.87936019897461 1817.0244140625 37.24689102172852 1816.6044921875 36.60988235473633 C 1816.270141601562 36.10272216796875 1815.776489257812 35.85593032836914 1815.1953125 35.8496208190918 C 1814.245361328125 35.83929443359375 1813.294799804688 35.83162689208984 1812.344848632812 35.83162689208984 C 1811.501708984375 35.83162689208984 1810.659057617188 35.8376579284668 1809.81640625 35.85322189331055 C 1809.025634765625 35.86781311035156 1808.050415039062 36.12301254272461 1808.005859375 37.36856079101562 L 1808.005859375 50.79798126220703 M 1808.006225585938 51.79808044433594 C 1807.9345703125 51.79808044433594 1807.862060546875 51.79036331176758 1807.789794921875 51.77437210083008 C 1807.331909179688 51.67304229736328 1807.005859375 51.26702117919922 1807.005859375 50.79798126220703 L 1807.005859375 37.36856079101562 C 1807.005859375 37.35663986206055 1807.006103515625 37.34472274780273 1807.006469726562 37.33281326293945 C 1807.060913085938 35.81151962280273 1808.1044921875 34.88463973999023 1809.797973632812 34.85338973999023 C 1810.590942382812 34.83875274658203 1811.424072265625 34.83163070678711 1812.344848632812 34.83163070678711 C 1813.17578125 34.83163070678711 1814.058227539062 34.83720016479492 1815.206176757812 34.84968185424805 C 1816.138671875 34.85980224609375 1816.931762695312 35.28945159912109 1817.439331054688 36.05947113037109 C 1817.610595703125 36.31919097900391 1817.782958984375 36.57813262939453 1817.955322265625 36.83708190917969 C 1818.140625 37.11542510986328 1818.330688476562 37.40084838867188 1818.519165039062 37.68722534179688 C 1818.564331054688 37.68703460693359 1818.611450195312 37.68694305419922 1818.661010742188 37.68694305419922 C 1818.75830078125 37.68694305419922 1818.855590820312 37.68728256225586 1818.952758789062 37.68762969970703 C 1819.047729492188 37.68796157836914 1819.142578125 37.68830108642578 1819.237548828125 37.68830108642578 L 1819.243286132812 37.68830108642578 L 1821.422973632812 37.68815231323242 C 1823.726806640625 37.68802261352539 1826.030517578125 37.68789291381836 1828.334228515625 37.68701171875 C 1828.75048828125 37.68701171875 1829.117553710938 37.74188995361328 1829.458618164062 37.85480117797852 C 1830.891479492188 38.3291130065918 1831.781616210938 39.40413284301758 1831.781616210938 40.66035079956055 L 1831.781616210938 44.53391265869141 C 1831.781616210938 44.79916000366211 1831.67626953125 45.05355072021484 1831.488647460938 45.24109268188477 C 1831.301147460938 45.42858505249023 1831.046752929688 45.53391265869141 1830.781616210938 45.53391265869141 C 1830.781494140625 45.53391265869141 1830.781494140625 45.53391265869141 1830.781372070312 45.53391265869141 L 1814.5751953125 45.53044128417969 C 1813.767211914062 45.53044128417969 1812.892700195312 45.78451156616211 1812.112060546875 46.245849609375 C 1811.324462890625 46.71123123168945 1810.719116210938 47.33684158325195 1810.4072265625 48.00742340087891 L 1808.912475585938 51.21984100341797 C 1808.745849609375 51.57798767089844 1808.388427734375 51.79808044433594 1808.006225585938 51.79808044433594 Z" stroke="none" fill="#d5e300"/>
    </g>
    <g id="Path_139" data-name="Path 139" transform="translate(-1807.989 -251.349)" fill="none" stroke-linecap="round" stroke-linejoin="round">
      <path d="M1833.7,263.671c.587-1.262-.192-2.285-1.739-2.285l-17.4,0h0a4.557,4.557,0,0,0-3.864,2.284l-2.51,5.394c-.587,1.262.192,2.285,1.739,2.285l17.4,0h0a4.557,4.557,0,0,0,3.864-2.284Zm-19.792.736h3.546a.667.667,0,1,1,0,1.335h-3.546a.667.667,0,0,1,0-1.335Zm4.315,4.092h-5.827a.667.667,0,0,1,0-1.335h5.827a.667.667,0,0,1,0,1.335Z" stroke="none"/>
      <path d="M 1814.557861328125 261.3819885253906 C 1813.010498046875 261.3820190429688 1811.280639648438 262.4043579101562 1810.693725585938 263.6657409667969 L 1808.18408203125 269.0599365234375 C 1807.59716796875 270.3215637207031 1808.375854492188 271.3445739746094 1809.92333984375 271.3449096679688 L 1827.322998046875 271.3486633300781 L 1827.32373046875 271.3486633300781 C 1828.87109375 271.3486633300781 1830.60107421875 270.3262939453125 1831.187866210938 269.0649108886719 L 1833.697509765625 263.6706848144531 C 1834.284423828125 262.4090576171875 1833.505737304688 261.3860778808594 1831.958251953125 261.3857116699219 L 1814.55859375 261.3819885253906 L 1814.557861328125 261.3819885253906 M 1817.451171875 265.7413940429688 L 1813.905639648438 265.7413940429688 C 1813.537109375 265.7413940429688 1813.238403320312 265.442626953125 1813.238403320312 265.0741271972656 C 1813.238403320312 264.7056274414062 1813.537109375 264.4068908691406 1813.905639648438 264.4068908691406 L 1817.451171875 264.4068908691406 C 1817.819702148438 264.4068908691406 1818.118530273438 264.7056274414062 1818.118530273438 265.0741271972656 C 1818.118530273438 265.442626953125 1817.819702148438 265.7413940429688 1817.451171875 265.7413940429688 M 1818.220581054688 268.4993896484375 L 1812.393188476562 268.4993896484375 C 1812.024658203125 268.4993896484375 1811.725952148438 268.2006225585938 1811.725952148438 267.8321228027344 C 1811.725952148438 267.463623046875 1812.024658203125 267.1648864746094 1812.393188476562 267.1648864746094 L 1818.220581054688 267.1648864746094 C 1818.589111328125 267.1648864746094 1818.887817382812 267.463623046875 1818.887817382812 267.8321228027344 C 1818.887817382812 268.2006225585938 1818.589111328125 268.4993896484375 1818.220581054688 268.4993896484375 M 1814.557861328125 260.3819885253906 C 1814.557861328125 260.3819885253906 1814.557861328125 260.3819885253906 1814.557861328125 260.3819885253906 L 1814.55859375 260.3819885253906 L 1831.95849609375 260.3857116699219 C 1833.100463867188 260.385986328125 1834.038940429688 260.830810546875 1834.533203125 261.6061096191406 C 1834.984252929688 262.3135986328125 1835.010131835938 263.2198486328125 1834.604248046875 264.0924987792969 L 1832.094604492188 269.4867248535156 C 1831.348022460938 271.0915222167969 1829.25244140625 272.3486633300781 1827.32373046875 272.3486633300781 L 1809.923095703125 272.3449096679688 C 1808.781127929688 272.3446655273438 1807.842651367188 271.8998413085938 1807.348388671875 271.1245422363281 C 1806.897338867188 270.4170227050781 1806.871459960938 269.5107727050781 1807.27734375 268.6381225585938 L 1809.786987304688 263.243896484375 C 1810.53369140625 261.6391296386719 1812.629272460938 260.3820190429688 1814.557861328125 260.3819885253906 Z" stroke="none" fill="#d5e300"/>
    </g>
    <rect id="Rectangle_102" data-name="Rectangle 102" width="1" height="5" rx="0.5" transform="translate(-1 14)" fill="#d5e300"/>
  </g>
</svg>
