<svg xmlns="http://www.w3.org/2000/svg" width="14.943" height="23.087" viewBox="0 0 14.943 23.087">
  <g id="coronarodh-app" transform="translate(-2005.946 -180.02)">
    <path id="Path_44" data-name="Path 44" d="M2011.578,193.935V193.6c0-1.876-.006-3.751.005-5.626a1.452,1.452,0,0,1,1.937-1.355,1.43,1.43,0,0,1,.974,1.31c.013.664,0,1.329.006,1.994v.3a3.114,3.114,0,0,1,.58-.181,1.3,1.3,0,0,1,1.386.822c.058.141.09.156.228.088a1.291,1.291,0,0,1,1.819.683c.061.148.1.147.23.085a1.29,1.29,0,0,1,1.9,1.166q.015,2.838-.016,5.677a3.947,3.947,0,0,1-.4,1.7,1.446,1.446,0,0,1-.4.586,1.066,1.066,0,0,0-.422,1.106,4.764,4.764,0,0,1,0,.588c0,.179-.093.3-.278.3s-.273-.12-.273-.3c0-.477,0-.954,0-1.432a.3.3,0,0,1,.151-.277,2.481,2.481,0,0,0,1.029-1.859,5.272,5.272,0,0,0,.057-.866q0-2.6,0-5.192a.727.727,0,0,0-.392-.694.717.717,0,0,0-.754.025.7.7,0,0,0-.327.467c-.038.174-.127.314-.33.279s-.246-.186-.245-.366,0-.376-.005-.563a.73.73,0,0,0-.628-.7.743.743,0,0,0-.818.508c-.013.041-.022.082-.033.123a.267.267,0,0,1-.311.235.283.283,0,0,1-.248-.309c-.006-.179,0-.358,0-.537a.744.744,0,0,0-.617-.787.734.734,0,0,0-.858.583c-.051.172-.126.312-.329.28s-.248-.18-.247-.361c0-1.031,0-2.063,0-3.095a.9.9,0,0,0-.654-.875.917.917,0,0,0-1.02.405,1.058,1.058,0,0,0-.134.588q0,3.107,0,6.214c0,.068,0,.137,0,.2a.286.286,0,0,1-.172.289.3.3,0,0,1-.329-.071l-.846-.78a1.494,1.494,0,0,0-.392-.284.824.824,0,0,0-1.073,1.185,1.069,1.069,0,0,0,.224.277,6.622,6.622,0,0,1,2.085,3.5,4.416,4.416,0,0,0,.689,1.526,1.754,1.754,0,0,0,.765.617.375.375,0,0,1,.261.393c0,.427,0,.853,0,1.279,0,.294-.092.383-.389.383-1.739,0-3.478.009-5.217-.013a1.515,1.515,0,0,1-1.538-1.647q0-5.869,0-11.739,0-3.771,0-7.544a1.555,1.555,0,0,1,1.189-1.607,1.9,1.9,0,0,1,.457-.033q5.154,0,10.307,0a1.538,1.538,0,0,1,1.657,1.659q0,4.117,0,8.235a.816.816,0,0,1-.013.2.272.272,0,0,1-.536-.026,1.893,1.893,0,0,1-.005-.23q0-4.08,0-8.159a1.019,1.019,0,0,0-.735-1.095,1.243,1.243,0,0,0-.354-.033q-5.142,0-10.281,0a1,1,0,0,0-1.129,1.131q0,9.6,0,19.207a.991.991,0,0,0,1.111,1.124c1.551,0,3.1,0,4.654.01.2,0,.292-.048.258-.254a.257.257,0,0,1,0-.077.93.93,0,0,0-.458-1.006,3.334,3.334,0,0,1-1.14-1.862c-.157-.486-.285-.98-.487-1.451a5.187,5.187,0,0,0-1.347-1.9,1.831,1.831,0,0,1-.677-1,1.366,1.366,0,0,1,.568-1.477,1.459,1.459,0,0,1,1.634.064C2011.1,193.509,2011.311,193.708,2011.578,193.935Z" transform="translate(0 0)" fill="#b9b9b9" stroke="#b9b9b9" stroke-miterlimit="10" stroke-width="0.5"/>
    <path id="Path_45" data-name="Path 45" d="M2016.949,189.109a1.228,1.228,0,0,1,.724-1.381c.1-.049.118-.108.066-.2-.061-.112-.109-.232-.175-.341a1.308,1.308,0,0,0-.29-.415c-.167-.116-.289.107-.443.155a1.2,1.2,0,0,1-.966-.038q-.361-.192-.709-.407a1.161,1.161,0,0,1-.54-1.09c0-.161-.051-.208-.2-.218a4.434,4.434,0,0,0-.74,0c-.124.011-.178.053-.171.188a1.222,1.222,0,0,1-.75,1.25c-.129.064-.253.141-.377.215a1.156,1.156,0,0,1-1.281-.007c-.185-.115-.269-.07-.358.089-.042.074-.1.139-.138.214a1.308,1.308,0,0,0-.228.478c-.008.18.242.194.365.3a1.166,1.166,0,0,1,.437.755,4.567,4.567,0,0,1,0,1.02,1.116,1.116,0,0,1-.653.889c-.177.09-.192.18-.1.331.063.1.107.213.171.314a1.186,1.186,0,0,0,.27.366c.14.093.25-.094.381-.139a.276.276,0,0,1,.387.133c.078.16,0,.278-.139.364-.058.036-.119.065-.178.1-.571.338-.578.338-.974-.2a4.447,4.447,0,0,1-.589-1.1c-.071-.194-.06-.377.149-.45a1.113,1.113,0,0,0,.742-1.334.808.808,0,0,0-.455-.733c-.531-.272-.6-.264-.308-.921a4.515,4.515,0,0,1,.687-1.072.328.328,0,0,1,.491-.075c.107.07.215.138.326.2a.646.646,0,0,0,.7,0c.153-.092.306-.186.466-.265a.691.691,0,0,0,.4-.706c-.022-.674-.075-.676.656-.76a4.838,4.838,0,0,1,1.274.048c.213.031.334.164.3.371a1.069,1.069,0,0,0,.736,1.257.839.839,0,0,0,.949-.028c.076-.054.159-.1.24-.147a.307.307,0,0,1,.432.072,4.658,4.658,0,0,1,.844,1.448.306.306,0,0,1-.141.412.137.137,0,0,1-.023.012c-.908.4-.712.6-.712,1.559,0,.232.193.368.383.478.139.081.29.148.42.241a.238.238,0,0,1,.068.34.244.244,0,0,1-.327.122,2.3,2.3,0,0,1-.867-.57A1.526,1.526,0,0,1,2016.949,189.109Z" transform="translate(-1.017 -1.249)" fill="#b9b9b9" stroke="#b9b9b9" stroke-miterlimit="10" stroke-width="0.5"/>
    <path id="Path_46" data-name="Path 46" d="M2009.565,206.051c-.28,0-.561,0-.842,0-.183,0-.348-.056-.347-.283s.166-.273.351-.274q.829,0,1.657,0c.188,0,.348.053.347.279s-.166.276-.351.28C2010.109,206.055,2009.836,206.051,2009.565,206.051Z" transform="translate(-0.63 -7.282)" fill="#b9b9b9" stroke="#b9b9b9" stroke-miterlimit="10" stroke-width="0.5"/>
  </g>
</svg>
