<svg xmlns="http://www.w3.org/2000/svg" width="22" height="20.2" viewBox="0 0 22 20.2">
  <g id="filter" transform="translate(-1 -2.5)" fill="none" stroke-linecap="round" stroke-linejoin="round">
    <path d="M21,4.5H3l7.2,8.514V18.9l3.6,1.8V13.014Z" stroke="none"/>
    <path d="M 3.000003814697266 4.500005722045898 L 10.19999313354492 13.01399612426758 L 10.19999313354492 18.89999771118164 L 13.79999351501465 20.69998550415039 L 13.79999351501465 13.01399612426758 L 20.9999828338623 4.500005722045898 L 3.000003814697266 4.500005722045898 M 3.000003814697266 2.500005722045898 L 20.9999828338623 2.500005722045898 C 21.77863311767578 2.500005722045898 22.48650360107422 2.951927185058594 22.81422424316406 3.658256530761719 C 23.14193344116211 4.36457633972168 23.0299129486084 5.196907043457031 22.52712249755859 5.79145622253418 L 15.79999351501465 13.74628925323486 L 15.79999351501465 20.69998550415039 C 15.79999351501465 21.39313697814941 15.44109344482422 22.0368766784668 14.85145378112793 22.40128707885742 C 14.53029537200928 22.59977340698242 14.1655740737915 22.69998741149902 13.79989337921143 22.69998741149902 C 13.49420356750488 22.69998741149902 13.18785953521729 22.6299877166748 12.90557289123535 22.48884582519531 L 9.305573463439941 20.68885612487793 C 8.628003120422363 20.35006713867188 8.199993133544922 19.65754699707031 8.199993133544922 18.89999771118164 L 8.199993133544922 13.74628925323486 L 1.472864151000977 5.79145622253418 C 0.9700736999511719 5.196907043457031 0.8580532073974609 4.36457633972168 1.185762405395508 3.658256530761719 C 1.513483047485352 2.951927185058594 2.221353530883789 2.500005722045898 3.000003814697266 2.500005722045898 Z" stroke="none" fill="#c9d600"/>
  </g>
</svg>
