<svg xmlns="http://www.w3.org/2000/svg" width="11.893" height="28.261" viewBox="0 0 11.893 28.261">
  <g id="paitent" transform="translate(-75.362 -112.746)">
    <path id="Path_41" data-name="Path 41" d="M83.467,157.7a1.559,1.559,0,0,1-.769,0,1.534,1.534,0,0,1-1-.832,1.389,1.389,0,0,1-.119-.569q0-2.256,0-4.512c0-1.972,0-3.944,0-5.916,0-.234-.067-.342-.313-.32s-.193.2-.193.35q0,5.09,0,10.181a1.727,1.727,0,0,1-.25,1.021,1.58,1.58,0,0,1-.869.6,1.559,1.559,0,0,1-.769,0,1.651,1.651,0,0,1-1.118-1.732q.015-7.721,0-15.442v-1.8a.573.573,0,0,0-.14.248,13.231,13.231,0,0,0-.587,3.844c-.043,1.035.011,2.072.044,3.107a.929.929,0,0,1-.93,1.005.959.959,0,0,1-1.028-.977c0-.091,0-.183-.009-.275a24.523,24.523,0,0,1,.29-6.054,7.2,7.2,0,0,1,1.091-2.8,2.9,2.9,0,0,1,2.579-1.347c1.326.033,2.654.026,3.98,0a2.742,2.742,0,0,1,2.252,1.053A7.2,7.2,0,0,1,87,139.964c.05.264.111.7.162,1.178.053.494.078.908.091,1.2-.005,1.634-.008,2.825,0,3.241,0,.042-.024.2-.036.409a.958.958,0,0,1-1.036.937.935.935,0,0,1-.925-.987c.006-.43.045-.86.052-1.291a23.519,23.519,0,0,0-.218-4.139,7.792,7.792,0,0,0-.477-1.805.33.33,0,0,0-.033.23q0,8.515,0,17.029A1.653,1.653,0,0,1,83.467,157.7Z" transform="translate(0 -16.741)" fill="#b9b9b9"/>
    <path id="Path_42" data-name="Path 42" d="M90.458,112.746a2.691,2.691,0,0,1,2.682,2.381.385.385,0,0,1-.137.365,2.192,2.192,0,0,1-.725.434c-.05.018-.124.036-.108.1.021.089.1.058.16.041a2.142,2.142,0,0,0,.587-.292c.051-.033.1-.1.169-.052.049.035.024.1.02.156a2.008,2.008,0,0,1-.174.633c-.095.218-.3.207-.488.238-.076.013-.194-.008-.173.114.016.093.118.056.188.05s.138-.05.176.02-.026.142-.074.192A9.234,9.234,0,0,1,91.3,118.3a1.535,1.535,0,0,1-2.08-.3c-.261-.3-.609-.5-.847-.817-.053-.071-.155-.138-.117-.233s.144-.015.219-.021.145.013.151-.074-.075-.087-.138-.1a.829.829,0,0,1-.711-.917c0-.16.065-.145.165-.084a2.553,2.553,0,0,0,.58.306c.067.02.154.079.193-.012s-.066-.108-.128-.133a2.19,2.19,0,0,1-.7-.42.412.412,0,0,1-.134-.393A2.694,2.694,0,0,1,90.458,112.746Zm-.018,5.5a1.543,1.543,0,0,0,.164,0,.712.712,0,0,0,.133-.032,1.652,1.652,0,0,0,1.177-1.441c.081-.474-.045-.692-.483-.836a3.192,3.192,0,0,0-1.861-.035c-.56.152-.688.377-.587.942A1.6,1.6,0,0,0,90.44,118.247Z" transform="translate(-9.12 0)" fill="#b9b9b9"/>
  </g>
</svg>
