<svg id="brac_1" xmlns="http://www.w3.org/2000/svg" width="32" height="32" viewBox="0 0 32 32">
  <rect id="Rectangle_134" width="32" height="32" fill="rgba(255,255,255,0)"/>
  <path id="Path_44" data-name="Path 44" d="M26,12A12,12,0,0,0,2,12a12.246,12.246,0,0,0,8.6,11.6L14,32l3.4-8.4A12.246,12.246,0,0,0,26,12Z" transform="translate(2)" fill="#007161"/>
  <path id="Path_45" data-name="Path 45" d="M5.5,2.6h.4a2.271,2.271,0,0,1,1.6.6A2.912,2.912,0,0,1,8.7,5V8.2a3.859,3.859,0,0,1,.6-2A4.184,4.184,0,0,1,10.1,5c.4-.4.8-.6,1.2-1l1.8-.6h5.4c.2,0,.2,0,.2.2a1.8,1.8,0,0,1-.2,1c-.2.4-.2.8-.6,1.2A2.912,2.912,0,0,1,16.1,7H12.5a1.2,1.2,0,0,1,.8.2c.6.2,1.4.4,2,.6a6.078,6.078,0,0,1,1.4,1,4.372,4.372,0,0,1,.6,1c0,.2.2.8.4,1.6v5.2h0a1.8,1.8,0,0,1-1-.2c-.4-.2-.8-.2-1.2-.6a2.074,2.074,0,0,1-1.2-1.6V10.6h0v.6a8.358,8.358,0,0,1-.8,2,2,2,0,0,1-.8,1,2.94,2.94,0,0,1-1.2,1,3.708,3.708,0,0,1-1.4.4,1.8,1.8,0,0,0-1,.2H4.5V15a3.708,3.708,0,0,1,.4-1.4,2.048,2.048,0,0,1,1.2-1,3.9,3.9,0,0,1,1.4-.2h3.2a2.537,2.537,0,0,1-1.2-.2c-.6-.2-1-.4-1.6-.6a6.078,6.078,0,0,1-1.4-1,3.224,3.224,0,0,1-.8-1.4A7.19,7.19,0,0,1,5.3,7V2.6h.2Zm8.8,7a2.86,2.86,0,0,0-2.8-2.8A2.734,2.734,0,0,0,8.7,9.6a2.734,2.734,0,0,0,2.8,2.8A2.86,2.86,0,0,0,14.3,9.6Z" transform="translate(4.5 2.6)" fill="#fff"/>
</svg>
