<svg id="health_1" xmlns="http://www.w3.org/2000/svg" width="32" height="32" viewBox="0 0 32 32">
  <rect id="Rectangle_134" data-name="Rectangle 134" width="32" height="32" fill="#fff" opacity="0"/>
  <circle id="Ellipse_6" data-name="Ellipse 6" cx="12" cy="12" r="12" transform="translate(4)" fill="#007161"/>
  <path id="Icon_map-health" data-name="Icon map-health" d="M12.68,4.707a.25.25,0,0,0-.249-.249H9.192a.25.25,0,0,1-.249-.249V.969A.25.25,0,0,0,8.694.72H4.707a.25.25,0,0,0-.249.249V4.208a.25.25,0,0,1-.249.249H.969a.25.25,0,0,0-.249.249V8.694a.25.25,0,0,0,.249.249H4.208a.25.25,0,0,1,.249.249v3.239a.25.25,0,0,0,.249.249H8.694a.25.25,0,0,0,.249-.249V9.192a.25.25,0,0,1,.249-.249h3.239a.25.25,0,0,0,.249-.249Z" transform="translate(9.28 5.472)" fill="#fff"/>
  <path id="Polygon_1" data-name="Polygon 1" d="M4,0,8,10H0Z" transform="translate(20 32) rotate(-180)" fill="#007161"/>
</svg>
