<svg xmlns="http://www.w3.org/2000/svg" width="32" height="32" viewBox="0 0 32 32">
  <g id="people_2" transform="translate(0 -0.023)">
    <path id="Path_42" data-name="Path 42" d="M0,0H32V32H0Z" transform="translate(0 0.023)" opacity="0"/>
    <circle id="Ellipse_8" data-name="Ellipse 8" cx="12" cy="12" r="12" transform="translate(4 0.023)" fill="#ed8103"/>
    <path id="Polygon_3" data-name="Polygon 3" d="M4,0,8,10H0Z" transform="translate(20 32.023) rotate(-180)" fill="#ed8103"/>
    <path id="Icon_open-people" data-name="Icon open-people" d="M10.8,0A2.866,2.866,0,0,0,8.4,1.334,4.337,4.337,0,0,1,9.818,4.563a4.19,4.19,0,0,1-.177,1.228,2.805,2.805,0,0,0,1.159.288,2.992,2.992,0,0,0,2.945-3.032A2.992,2.992,0,0,0,10.8.015ZM4.909,1.516A2.992,2.992,0,0,0,1.964,4.548,2.992,2.992,0,0,0,4.909,7.58,2.992,2.992,0,0,0,7.854,4.548,2.992,2.992,0,0,0,4.909,1.516Zm9.327,4.791A5.039,5.039,0,0,1,10.918,7.58a3.01,3.01,0,0,1,.864,2.032v1h3.927V8.1a2.063,2.063,0,0,0-1.473-1.8ZM1.473,7.823A2.063,2.063,0,0,0,0,9.627v2.517H9.818V9.627a2.063,2.063,0,0,0-1.473-1.8A5.048,5.048,0,0,1,4.909,9.1,5.121,5.121,0,0,1,1.473,7.823Z" transform="translate(8.219 5.119)" fill="#fff"/>
  </g>
</svg>
