<svg id="rr" xmlns="http://www.w3.org/2000/svg" width="16" height="16" viewBox="0 0 16 16">
  <defs>
    <style>
      .cls-1, .cls-3 {
        fill: #fff;
      }

      .cls-1 {
        opacity: 0;
      }

      .cls-2 {
        fill: #ea0000;
      }
    </style>
  </defs>
  <rect id="Rectangle_135" data-name="Rectangle 135" class="cls-1" width="16" height="16"/>
  <circle id="Ellipse_7" data-name="Ellipse 7" class="cls-2" cx="7" cy="7" r="7" transform="translate(1)"/>
  <path id="Polygon_2" data-name="Polygon 2" class="cls-2" d="M3,0,6,5H0Z" transform="translate(11 16) rotate(-180)"/>
  <g id="Group_86" data-name="Group 86" transform="translate(4.171 1.898)">
    <path id="Path_34" data-name="Path 34" class="cls-3" d="M-521.8,357.524a.07.07,0,0,1-.018-.092,1.985,1.985,0,0,0,.07-.194,4.523,4.523,0,0,0,.155-1.323c0-.158,0-.317-.014-.475-.018-.3-.044-.6-.081-.9-.06-.486-.135-.97-.24-1.449a.249.249,0,0,1,.077-.265,1.012,1.012,0,0,0,.308-.762,1.305,1.305,0,0,0-.086-.374c-.1-.309-.2-.616-.3-.927a.512.512,0,0,0-.249-.306,1.739,1.739,0,0,0-.4-.167,6.141,6.141,0,0,0-1.065-.193.384.384,0,0,1-.216-.081c-.321-.261-.644-.52-.972-.773a.729.729,0,0,0-.9.021c-.312.253-.625.5-.935.761a.322.322,0,0,1-.18.073,6.166,6.166,0,0,0-1.1.2,1.353,1.353,0,0,0-.466.22.309.309,0,0,0-.128.176,2.338,2.338,0,0,1-.077.269c-.08.246-.144.5-.238.739a1.043,1.043,0,0,0-.085.385,1.051,1.051,0,0,0,.335.763.075.075,0,0,1,.023.079c-.03.14-.059.279-.086.419-.095.511-.174,1.024-.224,1.542-.029.3-.051.6-.058.9a6.2,6.2,0,0,0,.026.771,3.145,3.145,0,0,0,.2.9.047.047,0,0,1-.014.064.682.682,0,0,0-.191.243.419.419,0,0,0,.253.65,1.166,1.166,0,0,0,.337.06c.171.009.341,0,.512.007.385.016.77.043,1.155.065q.646.037,1.294.041c.432,0,.863-.008,1.294-.029.209-.01.419-.019.628-.035.364-.027.728-.042,1.1-.05.043,0,.1,0,.149,0a1,1,0,0,0,.48-.127.37.37,0,0,0,.174-.389A.784.784,0,0,0-521.8,357.524Zm-1.262-6.986a3.471,3.471,0,0,1,.566.151,1,1,0,0,1,.167.079c.032.019.032.039,0,.059a1.238,1.238,0,0,1-.292.135.06.06,0,0,1-.059-.012l-.516-.411a.119.119,0,0,1-.015-.021A.482.482,0,0,1-523.058,350.538Zm-3.455-.182q.49-.4.979-.8a.39.39,0,0,1,.53-.006l1.338,1.06q.282.224.562.449l.023.02,0,.017a11.836,11.836,0,0,1-4.311,0c-.006-.022,0-.027.008-.033Zm-1.645.417a1.472,1.472,0,0,1,.392-.153,4.086,4.086,0,0,1,.459-.1.028.028,0,0,1,.029,0l-.219.179c-.1.078-.192.155-.286.234a.1.1,0,0,1-.109.022,1.246,1.246,0,0,1-.267-.125C-528.194,350.81-528.192,350.794-528.158,350.773Zm1.709,6.323-.462.425a.131.131,0,0,1-.081.041.1.1,0,0,1-.087-.057.085.085,0,0,1,.016-.1c.059-.059.119-.118.18-.175.114-.106.23-.21.342-.318.04-.039.065-.037.1,0C-526.355,357.01-526.354,357.009-526.45,357.1Zm.105-.43a1.433,1.433,0,0,1-.249-.707.691.691,0,0,1,.234-.512,1.511,1.511,0,0,1,.319-.235c.035-.02.066-.027.089.014a1.16,1.16,0,0,1,.189.728.943.943,0,0,1-.286.523,1.725,1.725,0,0,1-.226.2C-526.3,356.693-526.325,356.7-526.345,356.666Zm1.661,0a1.161,1.161,0,0,1-.516.473.51.51,0,0,1-.22.041.951.951,0,0,1-.439-.114,1.889,1.889,0,0,1-.273-.168c-.032-.023-.037-.044-.013-.074a1.2,1.2,0,0,1,.614-.46.776.776,0,0,1,.491.045,1.433,1.433,0,0,1,.331.178C-524.68,356.605-524.658,356.624-524.684,356.663Zm-.968-1.451a.617.617,0,0,1,.2-.352,1.2,1.2,0,0,1,.252-.184c.032-.018.06-.023.081.017a1.173,1.173,0,0,1,.161.516.64.64,0,0,1-.224.467,1.382,1.382,0,0,1-.23.169.058.058,0,0,1-.093-.022A.947.947,0,0,1-525.651,355.212Zm1.57.672a.981.981,0,0,1-.437.385.461.461,0,0,1-.221.031,1.058,1.058,0,0,1-.516-.2.045.045,0,0,1-.014-.075,1.129,1.129,0,0,1,.347-.346.586.586,0,0,1,.472-.044,1.18,1.18,0,0,1,.349.17C-524.069,355.827-524.057,355.849-524.082,355.884Zm-.793-1.163a.556.556,0,0,1,.259-.43c.165-.123.174-.121.248.073a.578.578,0,0,1,.011.5.821.821,0,0,1-.322.31.042.042,0,0,1-.068-.019A.944.944,0,0,1-524.875,354.721Zm1.245.586a.585.585,0,0,1-.4.252.831.831,0,0,1-.488-.159c-.039-.026-.027-.054-.006-.083a.579.579,0,0,1,.857-.214C-523.532,355.178-523.529,355.189-523.63,355.307Zm.169-.8a.457.457,0,0,1-.3.254,1.048,1.048,0,0,1-.289.038c-.051,0-.076-.019-.075-.074a.842.842,0,0,1,.08-.35.469.469,0,0,1,.354-.254c.061-.013.124-.016.186-.024v.005h.07c.034,0,.049.019.047.054A.918.918,0,0,1-523.461,354.509Zm.784-1.62c-.343.082-.687.157-1.036.207-.3.043-.594.076-.893.093-.209.012-.419.021-.629.02a10.662,10.662,0,0,1-1.223-.073,10.366,10.366,0,0,1-1.432-.273.917.917,0,0,1-.63-.489.572.572,0,0,1-.033-.457c.085-.236.159-.474.234-.713.019-.06.022-.06.076-.031a3.04,3.04,0,0,0,.826.27,8.994,8.994,0,0,0,1.193.16c.214.016.429.026.643.034s.416.009.624,0c.319-.008.637-.025.954-.057a8.2,8.2,0,0,0,1.136-.183,2.578,2.578,0,0,0,.641-.226c.043-.023.058-.017.073.03.073.239.152.477.232.714a.632.632,0,0,1-.151.638A1.077,1.077,0,0,1-522.678,352.889Z" transform="translate(528.995 -349.097)"/>
    <path id="Path_35" data-name="Path 35" class="cls-3" d="M-387.247,400.082a.127.127,0,0,0,.132-.134.131.131,0,0,0-.129-.132.137.137,0,0,0-.135.134A.135.135,0,0,0-387.247,400.082Z" transform="translate(391.892 -398.201)"/>
    <path id="Path_36" data-name="Path 36" class="cls-3" d="M-412.158,367.562a.127.127,0,0,0,.131-.135.133.133,0,0,0-.131-.131.139.139,0,0,0-.134.131A.134.134,0,0,0-412.158,367.562Z" transform="translate(416.011 -366.717)"/>
    <path id="Path_37" data-name="Path 37" class="cls-3" d="M-398.63,380.486a.133.133,0,0,0,.131-.132.134.134,0,0,0-.135-.134.133.133,0,0,0-.13.133A.128.128,0,0,0-398.63,380.486Z" transform="translate(402.913 -379.228)"/>
    <path id="Path_38" data-name="Path 38" class="cls-3" d="M-451.988,400.081a.129.129,0,0,0,.126-.135.133.133,0,0,0-.132-.13.135.135,0,0,0-.133.131A.134.134,0,0,0-451.988,400.081Z" transform="translate(454.577 -398.2)"/>
    <path id="Path_39" data-name="Path 39" class="cls-3" d="M-438.035,387.421a.133.133,0,0,0,.135-.133.129.129,0,0,0-.128-.133.134.134,0,0,0-.136.132A.134.134,0,0,0-438.035,387.421Z" transform="translate(441.059 -385.943)"/>
    <path id="Path_40" data-name="Path 40" class="cls-3" d="M-435.2,403.015a.134.134,0,0,0,.13.133.126.126,0,0,0,.135-.13.132.132,0,0,0-.133-.134A.135.135,0,0,0-435.2,403.015Z" transform="translate(438.187 -401.17)"/>
    <path id="Path_41" data-name="Path 41" class="cls-3" d="M-371.148,400.081a.127.127,0,0,0,.13-.13.128.128,0,0,0-.13-.136.126.126,0,0,0-.129.13A.126.126,0,0,0-371.148,400.081Z" transform="translate(376.303 -398.2)"/>
  </g>
</svg>
