<svg id="relief_3" xmlns="http://www.w3.org/2000/svg" width="32" height="32" viewBox="0 0 32 32">
  <rect id="Rectangle_137" data-name="Rectangle 137" width="32" height="32" fill="#fff" opacity="0"/>
  <circle id="Ellipse_26" data-name="Ellipse 26" cx="12" cy="12" r="12" transform="translate(4)" fill="#ea0000"/>
  <path id="Polygon_5" data-name="Polygon 5" d="M4,0,8,10H0Z" transform="translate(20 32) rotate(-180)" fill="#ea0000"/>
  <g id="Group_87" data-name="Group 87" transform="translate(10 3.388)">
    <path id="Path_34" data-name="Path 34" d="M-516.844,363.32a.119.119,0,0,1-.031-.156,3.383,3.383,0,0,0,.119-.327,7.635,7.635,0,0,0,.261-2.233c0-.266-.007-.534-.023-.8-.03-.508-.074-1.014-.136-1.519-.1-.821-.229-1.638-.406-2.446a.42.42,0,0,1,.13-.448,1.708,1.708,0,0,0,.521-1.286,2.2,2.2,0,0,0-.145-.631c-.167-.521-.344-1.039-.5-1.564a.865.865,0,0,0-.421-.517,2.934,2.934,0,0,0-.683-.281,10.356,10.356,0,0,0-1.8-.326.648.648,0,0,1-.365-.136c-.542-.441-1.087-.878-1.641-1.305a1.231,1.231,0,0,0-1.523.035c-.526.428-1.055.852-1.578,1.284a.543.543,0,0,1-.3.124,10.407,10.407,0,0,0-1.857.345,2.283,2.283,0,0,0-.786.371.521.521,0,0,0-.216.3,3.936,3.936,0,0,1-.129.455c-.136.416-.244.84-.4,1.248a1.764,1.764,0,0,0-.143.65,1.776,1.776,0,0,0,.565,1.288.127.127,0,0,1,.039.134c-.05.236-.1.471-.144.708-.16.863-.293,1.729-.378,2.6-.049.5-.085,1.007-.1,1.512a10.5,10.5,0,0,0,.044,1.3,5.308,5.308,0,0,0,.337,1.518.079.079,0,0,1-.023.109,1.155,1.155,0,0,0-.323.411.708.708,0,0,0,.427,1.1,1.966,1.966,0,0,0,.569.1c.288.015.576,0,.865.011.651.026,1.3.073,1.95.11q1.091.063,2.184.07c.729,0,1.457-.014,2.185-.05.353-.017.707-.032,1.06-.059.614-.046,1.229-.07,1.86-.084.073,0,.163.005.251,0a1.694,1.694,0,0,0,.811-.214.625.625,0,0,0,.293-.657A1.323,1.323,0,0,0-516.844,363.32Zm-2.13-11.792a5.85,5.85,0,0,1,.955.254,1.68,1.68,0,0,1,.281.134c.053.032.055.066,0,.1a2.09,2.09,0,0,1-.492.228.1.1,0,0,1-.1-.021l-.872-.694a.2.2,0,0,1-.025-.035A.813.813,0,0,1-518.974,351.529Zm-5.832-.308q.827-.673,1.653-1.346a.658.658,0,0,1,.895-.011l2.258,1.79q.475.377.948.758c.014.011.026.023.039.034l-.005.028a19.979,19.979,0,0,1-7.277,0c-.01-.037,0-.046.014-.055Zm-2.777.7a2.485,2.485,0,0,1,.662-.259,6.912,6.912,0,0,1,.775-.169.048.048,0,0,1,.049.007l-.37.3c-.161.131-.324.261-.483.4a.162.162,0,0,1-.185.036,2.1,2.1,0,0,1-.451-.211C-527.643,351.988-527.64,351.961-527.583,351.925ZM-524.7,362.6q-.391.357-.78.717a.221.221,0,0,1-.136.069.161.161,0,0,1-.147-.1.144.144,0,0,1,.028-.174c.1-.1.2-.2.3-.3.192-.18.389-.354.578-.537.068-.066.11-.063.171.007C-524.539,362.454-524.537,362.451-524.7,362.6Zm.178-.726a2.42,2.42,0,0,1-.42-1.194,1.167,1.167,0,0,1,.394-.863,2.55,2.55,0,0,1,.539-.4c.058-.033.111-.046.149.024a1.96,1.96,0,0,1,.32,1.228,1.592,1.592,0,0,1-.483.882,2.9,2.9,0,0,1-.381.332C-524.449,361.919-524.488,361.927-524.521,361.873Zm2.8-.005a1.961,1.961,0,0,1-.871.8.862.862,0,0,1-.371.07,1.6,1.6,0,0,1-.742-.192,3.188,3.188,0,0,1-.461-.283c-.054-.038-.062-.074-.021-.125a2.022,2.022,0,0,1,1.036-.777,1.31,1.31,0,0,1,.83.076,2.419,2.419,0,0,1,.558.3C-521.711,361.77-521.674,361.8-521.718,361.867Zm-1.633-2.449a1.042,1.042,0,0,1,.335-.593,2.025,2.025,0,0,1,.426-.311c.054-.031.1-.039.137.028a1.979,1.979,0,0,1,.272.871,1.08,1.08,0,0,1-.378.789,2.328,2.328,0,0,1-.388.284.1.1,0,0,1-.156-.036A1.6,1.6,0,0,1-523.351,359.419Zm2.65,1.134a1.657,1.657,0,0,1-.737.65.778.778,0,0,1-.373.053,1.787,1.787,0,0,1-.871-.338.077.077,0,0,1-.024-.127,1.905,1.905,0,0,1,.585-.584.989.989,0,0,1,.8-.075,1.991,1.991,0,0,1,.589.287C-520.68,360.457-520.66,360.494-520.7,360.552Zm-1.339-1.963a.938.938,0,0,1,.437-.727c.278-.208.294-.2.419.123a.976.976,0,0,1,.018.841,1.385,1.385,0,0,1-.543.523.071.071,0,0,1-.115-.032A1.593,1.593,0,0,1-522.041,358.59Zm2.1.99a.986.986,0,0,1-.68.425,1.4,1.4,0,0,1-.823-.269c-.065-.043-.045-.09-.01-.139a.978.978,0,0,1,1.447-.361C-519.773,359.361-519.768,359.38-519.939,359.579Zm.285-1.347a.771.771,0,0,1-.5.428,1.77,1.77,0,0,1-.488.064c-.086,0-.129-.032-.126-.126a1.422,1.422,0,0,1,.135-.591.792.792,0,0,1,.6-.429c.1-.021.209-.027.314-.04v.009c.039,0,.078,0,.118,0,.058,0,.082.033.079.092A1.551,1.551,0,0,1-519.655,358.233Zm1.323-2.735c-.579.139-1.16.264-1.749.349-.5.072-1,.128-1.507.156-.354.02-.707.036-1.061.034a18,18,0,0,1-2.065-.123,17.5,17.5,0,0,1-2.417-.46,1.548,1.548,0,0,1-1.064-.826.965.965,0,0,1-.055-.771c.143-.4.269-.8.394-1.2.031-.1.036-.1.128-.053a5.135,5.135,0,0,0,1.395.456,15.178,15.178,0,0,0,2.014.271c.362.027.723.045,1.086.058s.7.015,1.052.007c.538-.013,1.075-.042,1.611-.1a13.838,13.838,0,0,0,1.918-.309,4.358,4.358,0,0,0,1.082-.382c.072-.04.1-.029.123.05.124.4.257.8.391,1.2a1.067,1.067,0,0,1-.254,1.077A1.818,1.818,0,0,1-518.331,355.5Z" transform="translate(528.995 -349.097)" fill="#fff"/>
    <path id="Path_35" data-name="Path 35" d="M-387.156,400.265a.214.214,0,0,0,.223-.225.22.22,0,0,0-.219-.222.232.232,0,0,0-.228.227A.229.229,0,0,0-387.156,400.265Z" transform="translate(394.996 -397.089)" fill="#fff"/>
    <path id="Path_36" data-name="Path 36" d="M-412.066,367.744a.215.215,0,0,0,.221-.227.224.224,0,0,0-.222-.221.235.235,0,0,0-.226.222A.227.227,0,0,0-412.066,367.744Z" transform="translate(418.569 -366.318)" fill="#fff"/>
    <path id="Path_37" data-name="Path 37" d="M-398.538,380.668a.225.225,0,0,0,.221-.222.227.227,0,0,0-.227-.226.225.225,0,0,0-.219.224A.215.215,0,0,0-398.538,380.668Z" transform="translate(405.768 -378.546)" fill="#fff"/>
    <path id="Path_38" data-name="Path 38" d="M-451.893,400.264a.218.218,0,0,0,.212-.228.224.224,0,0,0-.223-.219.228.228,0,0,0-.224.221A.226.226,0,0,0-451.893,400.264Z" transform="translate(456.262 -397.088)" fill="#fff"/>
    <path id="Path_39" data-name="Path 39" d="M-437.946,387.6a.225.225,0,0,0,.227-.224.218.218,0,0,0-.216-.224.226.226,0,0,0-.23.223A.226.226,0,0,0-437.946,387.6Z" transform="translate(443.05 -385.109)" fill="#fff"/>
    <path id="Path_40" data-name="Path 40" d="M-435.2,403.105a.226.226,0,0,0,.219.224.213.213,0,0,0,.228-.219.223.223,0,0,0-.224-.226A.227.227,0,0,0-435.2,403.105Z" transform="translate(440.243 -399.991)" fill="#fff"/>
    <path id="Path_41" data-name="Path 41" d="M-371.059,400.264a.215.215,0,0,0,.22-.219.217.217,0,0,0-.22-.229.212.212,0,0,0-.218.22A.212.212,0,0,0-371.059,400.264Z" transform="translate(379.76 -397.088)" fill="#fff"/>
  </g>
</svg>
