<?xml version="1.0" encoding="utf-8"?>
<!-- Generator: Adobe Illustrator 24.0.1, SVG Export Plug-In . SVG Version: 6.00 Build 0)  -->
<svg version="1.1" id="Layer_1" xmlns="http://www.w3.org/2000/svg" xmlns:xlink="http://www.w3.org/1999/xlink" x="0px" y="0px"
	 viewBox="0 0 24.5 28.6" style="enable-background:new 0 0 24.5 28.6;" xml:space="preserve">
<style type="text/css">
	.st0{fill:none;}
	.st1{fill:#2C2C2C;}
</style>
<g>
	<polygon class="st0" points="3.3,18.1 3.3,18.1 3.3,18.1 	"/>
	<path class="st1" d="M18.7,15.1c-0.3,0.1-0.5,0.4-0.5,0.7v9.2c0.1,0.5-0.2,1.1-0.7,1.3c-0.3,0.1-0.6,0.1-0.8,0.1l-11.6,0
		c-0.6,0-1.2,0-1.7,0c-0.6,0-1.2-0.4-1.2-1.1c0-0.1,0-0.3,0-0.4V5.7c0-1,0.5-1.5,1.5-1.5h4.9C9,4.3,9.3,4,9.4,3.6c0-0.1,0-0.1,0-0.2
		c0-0.4-0.4-0.8-0.8-0.8c-1.8,0-3.5,0-5.3,0c-1.4,0-2.5,1-2.8,2.3v21c0.1,0.6,0.4,1.1,0.8,1.5c0.4,0.4,0.9,0.6,1.4,0.7h14.6
		c1.4-0.2,2.4-1.4,2.4-2.8v-2c0-2.4,0-4.9,0-7.3c0-0.3-0.1-0.5-0.3-0.7C19.3,15.1,19,15,18.7,15.1z"/>
	<path class="st1" d="M18,0.5C18,0.5,18,0.5,18,0.5c-3.3,0-6.1,2.7-6.1,6c0,3.3,2.7,6,6,6h0c0,0,0,0,0,0c1.6,0,3.1-0.6,4.3-1.8
		C23.4,9.7,24,8.2,24,6.5C24,3.3,21.3,0.5,18,0.5z M18,10.9c0,0-0.1,0-0.1,0l-0.1,0c-1.1,0-2.2-0.5-3-1.3c-0.8-0.8-1.2-1.9-1.2-3.1
		c0,0,0-0.1,0-0.1c0-1.2,0.5-2.2,1.3-3.1c0.8-0.8,1.9-1.2,3.1-1.2l0.1,0c1.2,0,2.2,0.5,3.1,1.3s1.2,1.9,1.2,3.1l0,0.1
		C22.3,9,20.4,10.9,18,10.9z"/>
	<path class="st1" d="M11.2,12.2C11,12,10.8,12,10.6,12l-3.1,0l-1,0c-0.7,0-1.4,0-2,0c-0.1,0-0.1,0-0.1,0c-0.4,0-0.8,0.4-0.8,0.8
		c0,0,0,0.1,0,0.1c0,0.2,0.1,0.4,0.3,0.5c0.2,0.1,0.4,0.2,0.6,0.2l6.1,0c0.1,0,0.1,0,0.1,0c0.4,0,0.8-0.4,0.8-0.8c0-0.1,0-0.1,0-0.1
		C11.4,12.5,11.3,12.3,11.2,12.2z"/>
	<path class="st1" d="M12.1,24.3C12.2,24.3,12.2,24.4,12.1,24.3c0.2,0.2,0.5,0.3,0.7,0.3c0.2,0,0.4-0.1,0.6-0.3
		c0.8-0.8,1.7-1.7,2.5-2.5l0.6-0.6c0.2-0.2,0.3-0.4,0.3-0.7v0c0-0.1,0-0.1,0-0.2c0-0.1-0.1-0.3-0.2-0.4c-0.2-0.1-0.4-0.2-0.6-0.2
		c-0.2,0-0.4,0.1-0.6,0.3c-0.7,0.7-1.4,1.3-2,2c-0.1,0.1-0.3,0.3-0.5,0.3c0,0,0,0,0,0c-0.2,0-0.4-0.1-0.5-0.2
		c-0.2-0.2-0.4-0.2-0.6-0.2c-0.2,0-0.4,0.1-0.6,0.2c-0.3,0.3-0.3,0.8,0,1.2C11.4,23.6,11.8,24,12.1,24.3z"/>
	<path class="st1" d="M8.5,17.2c-1.4,0-2.7,0-4.1,0c0,0-0.1,0-0.1,0c-0.2,0-0.4,0.1-0.5,0.2c-0.1,0.2-0.2,0.4-0.2,0.6l0,0.1
		c0,0.4,0.4,0.8,0.8,0.8l2.7,0c0.5,0,0.9,0,1.4,0l0.1,0c0.4,0,0.8-0.4,0.8-0.8c0,0,0-0.1,0-0.1C9.3,17.5,9,17.1,8.5,17.2z"/>
	<path class="st1" d="M18.8,5.1c0-0.2,0-0.5,0-0.7c0-0.4-0.4-0.8-0.8-0.7c0,0,0,0,0,0c-0.4,0-0.8,0.3-0.8,0.8v0.4c0,0.1,0,0.2,0,0.3
		c0,0.3,0,0.4-0.1,0.5c-0.1,0.1-0.3,0.1-0.6,0.1l-0.6,0c-0.2,0-0.4,0.1-0.6,0.2s-0.2,0.3-0.2,0.6v0.1c0,0.4,0.4,0.8,0.8,0.8
		c0.7,0,1.4,0,2.1,0c0.3,0,0.4-0.1,0.6-0.2c0.1-0.2,0.2-0.3,0.2-0.6c0-0.2,0-0.5,0-0.7l0-0.4L18.8,5.1z"/>
</g>
</svg>
