<?xml version="1.0" encoding="utf-8"?>
<!-- Generator: Adobe Illustrator 24.0.1, SVG Export Plug-In . SVG Version: 6.00 Build 0)  -->
<svg version="1.1" id="Layer_1" xmlns="http://www.w3.org/2000/svg" xmlns:xlink="http://www.w3.org/1999/xlink" x="0px" y="0px"
	 viewBox="0 0 22 29.3" style="enable-background:new 0 0 22 29.3;" xml:space="preserve">
<style type="text/css">
	.st0{fill:#FFFFFF;}
</style>
<g>
	<path class="st0" d="M11.1,9.3c-0.6,0-1.1,0.5-1.1,1.1c0,0.6,0.5,1.1,1.1,1.1l0,0c0.6,0,1.1-0.5,1.1-1.1
		C12.2,9.8,11.7,9.3,11.1,9.3z"/>
	<path class="st0" d="M10.4,8.2C10.4,8.2,10.4,8.2,10.4,8.2c0.6,0,1.1-0.5,1.1-1.1C11.4,6.5,11,6,10.4,6l0,0C9.8,6,9.3,6.5,9.3,7.1
		C9.3,7.7,9.8,8.2,10.4,8.2z"/>
	<path class="st0" d="M7.7,8.8c-0.6,0-1.1,0.5-1.1,1.1c0,0.6,0.5,1.1,1.1,1.1l0,0c0,0,0,0,0,0c0.6,0,1.1-0.5,1.1-1.1
		C8.8,9.3,8.3,8.8,7.7,8.8z"/>
	<path class="st0" d="M9.7,12.1C9.6,12.1,9.6,12.1,9.7,12.1c-0.6,0-1.1,0.5-1.1,1.1c0,0.6,0.5,1.1,1.1,1.1l0,0
		c0.6,0,1.1-0.5,1.1-1.1C10.7,12.6,10.2,12.1,9.7,12.1z"/>
	<path class="st0" d="M11,0C4.9,0,0,4.9,0,11c0,4.4,1.5,5.7,9.9,17.7h0c0.1,0.1,0.2,0.3,0.3,0.3c0.6,0.4,1.5,0.3,1.9-0.3
		C20.5,16.7,22,15.4,22,11C22,4.9,17.1,0,11,0z M18.5,10.8c-0.2-0.3-0.6-0.5-1-0.5c-0.3,0-0.6,0-1,0c-0.2,0-0.2,0.1-0.2,0.2
		s0,0.2,0.2,0.2c0.5,0,0.5,0,0.4,0.5c-0.1,0.4-0.2,0.8-0.3,1.1c0,0.1-0.1,0.2-0.2,0.1c-0.1,0-0.1-0.1-0.2-0.1
		c-0.1-0.1-0.2-0.1-0.3,0.1c-0.1,0.1-0.1,0.2,0.1,0.3c0.3,0.2,0.6,0.3,0.9,0.5c0.3,0.2,0.7,0.2,1,0.1c0.3-0.1,0.5,0,0.5,0.4
		c0,0.4-0.2,0.8-0.6,1c-0.3,0.2-0.5,0.1-0.5-0.2c-0.1-0.4-0.3-0.7-0.6-0.9c-0.3-0.2-0.6-0.3-0.9-0.5c-0.1-0.1-0.2,0-0.3,0.1
		s-0.1,0.2,0,0.3c0,0,0,0,0.1,0c0.4,0.2,0.4,0.2,0.1,0.6c-0.3,0.3-0.6,0.6-0.9,0.9c-0.1,0.1-0.2,0.1-0.2,0c0-0.1-0.1-0.1-0.1-0.2
		c-0.1-0.2-0.1-0.2-0.4-0.1c-0.1,0.1-0.1,0.1-0.1,0.2c0.2,0.3,0.4,0.6,0.6,1c0.2,0.3,0.5,0.5,0.8,0.5c0.3,0.1,0.4,0.2,0.2,0.5
		c-0.2,0.4-0.7,0.6-1.1,0.6c-0.3,0-0.4-0.2-0.3-0.4c0.1-0.4,0.1-0.8-0.1-1.1c-0.2-0.3-0.3-0.6-0.5-0.9c-0.1-0.1-0.2-0.1-0.3,0
		s-0.2,0.1-0.1,0.3c0,0,0,0,0,0c0.2,0.4,0.2,0.4-0.2,0.6c-0.4,0.1-0.8,0.2-1.2,0.3c-0.1,0-0.2,0-0.2-0.1c0-0.1,0-0.2,0-0.2
		c0-0.2-0.1-0.2-0.3-0.2c-0.1,0-0.2,0.1-0.2,0.2c0,0.4,0,0.7,0,1.1c0,0.3,0.2,0.6,0.4,0.9c0.3,0.3,0.3,0.5-0.1,0.6
		c-0.4,0.2-0.8,0.2-1.2-0.1c-0.2-0.1-0.3-0.3,0-0.5c0.3-0.3,0.5-0.7,0.5-1.1c0-0.3,0-0.6,0-0.9c0-0.2-0.1-0.2-0.2-0.2
		s-0.2,0-0.2,0.2c0,0,0,0,0,0c0,0.5,0,0.5-0.5,0.4c-0.4-0.1-0.8-0.2-1.2-0.3c-0.1,0-0.2-0.1-0.1-0.2c0-0.1,0.1-0.1,0.1-0.2
		c0.1-0.2,0.1-0.2-0.1-0.3c-0.1-0.1-0.2,0-0.3,0.1c-0.2,0.3-0.4,0.6-0.5,0.9c-0.2,0.3-0.2,0.6-0.1,1c0.1,0.4,0,0.5-0.4,0.5
		c-0.4,0-0.8-0.2-1-0.6c-0.2-0.3-0.1-0.5,0.2-0.6c0.3-0.1,0.6-0.3,0.8-0.6c0.2-0.3,0.4-0.6,0.5-0.9c0.1-0.2,0-0.2-0.1-0.3
		s-0.2-0.1-0.3,0c0,0,0,0,0,0c-0.2,0.4-0.2,0.4-0.6,0.1c-0.3-0.3-0.6-0.5-0.8-0.9c-0.1-0.1-0.1-0.2,0-0.2c0.1,0,0.1-0.1,0.2-0.1
		c0.2-0.1,0.2-0.2,0.1-0.3c-0.1-0.1-0.1-0.1-0.3-0.1c-0.3,0.2-0.6,0.4-0.9,0.5c-0.3,0.2-0.5,0.5-0.6,0.8c-0.1,0.3-0.2,0.4-0.5,0.2
		c-0.4-0.3-0.6-0.7-0.6-1.2c0-0.2,0.2-0.3,0.4-0.2c0.5,0.2,1,0.1,1.4-0.2c0.2-0.1,0.4-0.3,0.7-0.4c0.2-0.1,0.1-0.2,0.1-0.3
		s-0.1-0.2-0.3-0.1c-0.4,0.2-0.4,0.2-0.6-0.2c-0.1-0.4-0.2-0.8-0.3-1.2C4.8,11,4.8,11,5,11c0.1,0,0.2,0,0.2,0c0.2,0,0.2,0,0.2-0.3
		c0-0.1-0.1-0.2-0.2-0.2c-0.2,0-0.4,0-0.6,0c-0.1,0-0.3,0-0.4,0c-0.4,0-0.7,0.1-1,0.4c-0.2,0.3-0.4,0.2-0.6-0.1
		c-0.2-0.4-0.2-0.8,0-1.2c0.2-0.3,0.4-0.3,0.6-0.1c0.2,0.3,0.6,0.4,0.9,0.4c0.3,0,0.7,0,1,0c0.2,0,0.2-0.1,0.2-0.2s0-0.2-0.2-0.2
		c-0.4,0-0.5,0-0.4-0.5C4.9,8.8,5,8.4,5.2,8c0-0.1,0.1-0.2,0.2-0.1C5.5,8,5.5,8,5.6,8c0.2,0.1,0.4,0,0.4-0.2c0-0.1,0-0.1-0.1-0.1
		C5.5,7.5,5.2,7.3,4.8,7.1C4.5,7,4.2,7,4,7.1c-0.4,0.1-0.5,0-0.5-0.4c0-0.4,0.2-0.8,0.6-1c0.3-0.2,0.5-0.1,0.5,0.2
		c0.1,0.4,0.3,0.7,0.6,0.9c0.3,0.2,0.6,0.3,0.9,0.5c0.1,0.1,0.2,0,0.2-0.1s0.2-0.2,0-0.3c0,0,0,0-0.1,0C5.9,6.7,5.9,6.7,6.2,6.3
		C6.4,6,6.7,5.7,7.1,5.5c0.1-0.1,0.2-0.1,0.2,0c0,0.1,0.1,0.1,0.1,0.2c0.1,0.2,0.2,0.2,0.4,0.1c0.1-0.1,0.1-0.1,0.1-0.2
		c-0.2-0.3-0.4-0.7-0.6-1C7,4.3,6.8,4.1,6.4,4C6.1,4,6,3.8,6.2,3.5c0.2-0.4,0.7-0.6,1.1-0.6c0.3,0,0.4,0.2,0.3,0.4
		C7.5,3.7,7.5,4.2,7.8,4.5C7.9,4.8,8.1,5,8.2,5.3c0.1,0.1,0.2,0.1,0.3,0s0.2-0.1,0.1-0.3c0,0,0,0,0-0.1C8.4,4.6,8.3,4.7,8.7,4.5
		C9.1,4.4,9.5,4.2,10,4.2c0.1,0,0.2,0,0.2,0.2c0,0.1,0,0.1,0,0.2c0,0.2,0.1,0.2,0.3,0.2c0.1,0,0.2-0.1,0.2-0.2c0-0.4,0-0.7,0-1.1
		c0-0.3-0.2-0.6-0.4-0.9C9.9,2.4,9.9,2.2,10.3,2c0.4-0.2,0.8-0.1,1.2,0.1c0.2,0.1,0.3,0.3,0,0.5C11.2,2.9,11,3.3,11,3.7
		c0,0.3,0,0.6,0,0.9c0,0.2,0.1,0.2,0.2,0.2s0.2,0,0.2-0.2c0,0,0,0,0,0c0-0.5,0-0.5,0.5-0.4c0.4,0.1,0.8,0.2,1.2,0.3
		c0.1,0,0.2,0.1,0.1,0.2c0,0.1-0.1,0.1-0.1,0.2C13,5.1,13,5.1,13.2,5.3c0.1,0.1,0.2,0,0.3-0.1c0.2-0.3,0.3-0.6,0.5-0.9
		c0.2-0.3,0.2-0.7,0.1-1c-0.1-0.3,0-0.5,0.3-0.5c0.4,0,0.8,0.2,1,0.6c0.2,0.3,0.1,0.5-0.2,0.6c-0.3,0.1-0.6,0.3-0.8,0.5
		c-0.2,0.3-0.4,0.6-0.6,1c-0.1,0.1,0,0.2,0.1,0.2s0.2,0.2,0.3,0c0,0,0-0.1,0-0.1c0.2-0.4,0.2-0.4,0.5-0.1c0.3,0.3,0.6,0.6,0.9,0.9
		c0.1,0.1,0.1,0.2,0,0.2c-0.1,0-0.1,0.1-0.2,0.1c-0.2,0.1-0.2,0.2-0.1,0.3c0.1,0.1,0.1,0.2,0.3,0.1c0.3-0.2,0.6-0.3,0.9-0.5
		c0.3-0.2,0.5-0.5,0.6-0.8c0.1-0.3,0.2-0.4,0.5-0.2c0.4,0.2,0.6,0.7,0.6,1.1c0,0.3-0.2,0.4-0.4,0.3c-0.4-0.1-0.8-0.1-1.1,0.1
		c-0.3,0.2-0.6,0.3-0.8,0.5c-0.2,0.1-0.1,0.2,0,0.3s0.1,0.2,0.3,0.1c0,0,0,0,0,0c0.4-0.2,0.4-0.2,0.6,0.2c0.1,0.4,0.2,0.8,0.3,1.2
		c0,0.1,0,0.2-0.1,0.2c-0.1,0-0.2,0-0.2,0c-0.2,0-0.2,0.1-0.2,0.3c0,0.1,0.1,0.2,0.2,0.2c0.4,0,0.7,0,1.1,0c0.3,0,0.6-0.2,0.9-0.4
		c0.3-0.3,0.5-0.3,0.6,0.1c0.2,0.4,0.2,0.8,0,1.2C18.9,11.1,18.7,11.1,18.5,10.8z"/>
	<path class="st0" d="M13.9,7.7c-0.6,0-1.1,0.5-1.1,1.1c0,0.6,0.5,1.1,1.1,1.1l0,0c0.6,0,1.1-0.5,1.1-1.1C15,8.2,14.5,7.7,13.9,7.7z
		"/>
	<path class="st0" d="M13.6,11.1c-0.6,0-1.1,0.5-1.1,1.1c0,0,0,0,0,0c0,0.6,0.5,1.1,1.1,1.1l0,0c0.6,0,1.1-0.5,1.1-1.1
		C14.7,11.6,14.2,11.1,13.6,11.1z"/>
</g>
</svg>
