<svg xmlns="http://www.w3.org/2000/svg" width="426.258" height="588.05" viewBox="0 0 426.258 588.05"><g transform="translate(-811.856 -160.149)"><path d="M476.486,780.324l-75.4,83.05L266.7,748.55l75.4-83.05Z" transform="translate(622.688 -320.433)" fill="#9ec7f3" stroke="rgba(255,255,0,0.06)" stroke-width="2.996"/><rect width="48.911" height="51.14" transform="translate(934.393 473.37)" fill="#d2ffde" stroke="rgba(255,255,0,0.06)" stroke-width="3.001"/><rect width="18.459" height="34.194" transform="translate(954.778 273.048)" fill="#d2ffde" stroke="rgba(255,255,0,0.06)" stroke-width="3.001"/><rect width="127.175" height="174.739" transform="translate(882.153 304.958)" fill="#9ec7f3" stroke="rgba(255,255,0,0.06)" stroke-width="3.514"/><path d="M1394.142,2116.727c-.358-1.458.165-2.036-1.1-3.3-1.733-1.733.3-1.926,1.651-1.926C1395.187,2111.5,1394.169,2116.617,1394.142,2116.727Z" transform="translate(-193.321 -1368.649)" fill="#d2ffde" stroke="#fff" stroke-width="1"/><path d="M346.237,1771.841c0-.688-2.173-.715-1.651-2.751C344.7,1768.677,347.392,1768.925,346.237,1771.841Z" transform="translate(566.287 -1120.321)" fill="none" stroke="#000" stroke-width="1"/><path d="M19.9,236.3Z" transform="translate(801.595 -9.303)" fill="none" stroke="#000" stroke-width="1"/><path d="M324.9,137.5Z" transform="translate(580.499 62.318)" fill="none" stroke="#000" stroke-width="1"/><path d="M328.445,123.263V121.2H327.4Z" transform="translate(578.686 74.134)" fill="none" stroke="#000" stroke-width="1"/><path d="M483.7,353.9Z" transform="translate(465.383 -94.552)" fill="none" stroke="#000" stroke-width="1"/><path d="M303.3,630.5Z" transform="translate(596.157 -295.061)" fill="none" stroke="#000" stroke-width="1"/><path d="M99.9,770.7Z" transform="translate(743.603 -396.693)" fill="none" stroke="#000" stroke-width="1"/><path d="M266.4,895.8Z" transform="translate(622.906 -487.379)" fill="none" stroke="#000" stroke-width="1"/><path d="M280.4,887Z" transform="translate(612.757 -481)" fill="none" stroke="#000" stroke-width="1"/><g transform="translate(812.665 161.938)"><path d="M87.836,706.434l1.045-2.421L86.433,700.9l.358-4.484L84.7,694l.358-2.751,6.987-2.063,4.209-2.063-.358-2.751,6.63.358,1.045-1.045-1.045-1.733L100.765,683l-2.448-1.375,4.539-2.421,5.254,1.733.358,2.751,2.091.688,2.091-2.421,1.761,1.375-.358,3.8,3.136,1.375,7.7-4.126-.358-.688,3.851,1.375,2.091,1.733,2.806-.358,2.448,2.421,2.806-1.045v3.439l.358,1.733,2.806,1.375h1.761v2.063l-.688,1.733-3.851.358-2.091,1.733h1.4l2.091,2.063-3.136,2.421.358,1.733h0l.358,9.3-3.494,2.421-.688,1.045h0l1.761,3.439,2.806-.688.358,2.063.688,1.733,1.045,1.045-4.539,1.733-1.4,1.375L136.2,731.3l-2.091,1.045,1.4,1.045-1.4,1.045,3.851.688.688,1.375-2.806.688-.358,1.375h-3.494l-4.9-2.063-3.246-2.888-1.4-.688-2.448-.688v-1.375l2.806-.688.358-7.235-2.448-5.172-2.806-.358-1.4,2.063-5.254-.358-3.136-1.733-2.448,2.063-3.136-1.733-3.164-3.026-1.4.358-.358-1.733-3.136-.688-3.494-1.733Z" transform="translate(-58.044 -492.302)" fill="#d5e300" stroke="#fff" stroke-width="1"/><g transform="translate(0)"><path d="M228,114.133l1.761-1.733,1.761.358,1.761,1.375-1.4,3.8,2.091.688,1.761,2.063,2.091-.358-.358-2.421-1.761-1.045,2.091-2.421,3.851.358,1.761,2.421,1.4,1.733,1.045,1.733.688-1.045h3.136l.688.688,2.091-1.045V121.7l.358,4.126,2.448,1.733,2.448,1.375.688,1.733-.358,2.063-.688,5.172,1.045,3.439.688,3.8,2.806,2.421,3.136,2.063,2.448,2.063-1.045,2.751-1.045,2.421-1.045,1.375-2.091-2.421-3.494,3.109.358,3.8-2.806-2.751L254.55,163.4l-5.584-1.375-3.851,1.045,1.4,3.439-1.761,2.063-1.045,1.733-3.136-.358-2.806-2.421h-1.761v-3.8l-2.806-.688v-8.253l-1.4-1.733-1.4-2.421-3.851-1.045.358-1.733-1.045-.688v-2.751l-.358-1.045,1.4-1.733-1.045,1.733,2.091-3.109,2.091-1.045v-5.859l1.045-2.063v-1.375l-.358-4.814,1.045-2.063-3.851-4.126v-4.787Z" transform="translate(-160.11 -81.425)" fill="#d5e300" stroke="#fff" stroke-width="1"/><path d="M89.648,17.709l-.688-2.421-.715-1.706,1.761-2.421,1.4-3.109,1.4-4.126L95.618-.2l.688,4.484L96.663,6.7l2.806,2.751,2.806-.688.688,2.421,2.806.688.358,2.063,2.806,1.045.358,1.375,2.806.688,1.761-2.063,1.045,2.751,1.4,1.733,2.091,1.375.688,1.375,1.761-.688,1.045,1.045L120.844,25l1.045,1.045,1.4,1.045v.688l2.806-.358v1.375l.688,1.375h-4.539l.358,3.109-3.136.688-.358,1.375,2.806-.358,2.448-1.045,2.448-2.063,1.761,1.375-.358,3.109,1.4,2.421L131.38,41.2l-.688,2.421v6.547l-1.045,2.751.688,3.439-1.761,2.421-2.448,3.439-2.806-.688-3.851-.358-1.4-2.751L116.3,57.047l2.091-3.8-1.4-2.751-1.761-2.063-2.806-1.045-1.4-1.375-1.045-2.063-1.761.688a4.926,4.926,0,0,0-1.4-.688,23.367,23.367,0,0,0-2.448-.688l-1.761-.688-1.761,1.375-2.806-.688L95.59,42.219,93.5,43.595l-.358,1.733a12.233,12.233,0,0,1-2.448-.688,25.761,25.761,0,0,1-2.806-1.375L87.2,42.219l2.448-1.375,1.4-1.733-1.045-2.063V32.233l3.851-.358,1.4-1.375,1.4-2.063L99.8,27.392l.688-2.421,1.761,2.751,1.761-1.045,1.4-2.421-1.4-1.733-1.4-2.063V18.039l-2.448-2.063-3.136.688L95.26,13.912,93.5,15.288l-2.091-.358Z" transform="translate(-59.856 0.2)" fill="#d5e300" stroke="#fff" stroke-linecap="round" stroke-linejoin="round" stroke-width="1"/><path d="M13.042,194.874l-1.761-3.109-2.091-2.751,1.4-3.109L7.1,185.218l1.045-5.5,2.448-1.733-.358-2.063,1.4-2.751,4.209-2.751,1.4-3.8-3.136-1.706,1.761-3.109.688-3.109,3.851-1.375v-3.411l5.254.688,3.851-1.045,5.254,3.439,1.045-2.751L39.4,153.5l3.081,1.073,2.806-.358,6.987,1.733,2.806,3.109,2.448,1.045,3.494,4.126-2.5,3.439.688,2.421-1.761,1.733-.688,2.751H54.306l-1.761-2.751L51.5,173.884H49.409l-1.045,3.8,1.4,1.375-1.761.358-2.091,3.439-.688,2.063-1.045,2.063,1.4,1.733-2.091.358h-1.4v-1.733l-4.539.358v2.751H35.792l-.358,3.439,2.091,1.045-1.4,1.375v3.109l1.761,1.045,2.091,1.733-.358,2.421-2.448.358-2.091-2.063-1.761-1.045v-1.375l-2.448-2.421H28.777l-.688-2.421-3.851-2.063.358-1.733-.358-1.045-3.136.963L19.012,193.5l-1.761-2.063Z" transform="translate(-1.791 -111.218)" fill="#d5e300" stroke="#fff" stroke-width="1"/><path d="M291.6,78.688l-1.045-2.751L287.745,78l-1.4-2.063,2.091-1.733-1.045-1.733-1.761-.358-1.045,1.045-3.494-1.733-.688-3.109,3.494-5.172L287.03,62.1v2.063l1.045.688,3.136,1.045,2.091,2.063,4.539-.358,1.045,2.421-2.091.358,1.761,2.063L296.8,74.507H301l1.4,2.421-.358,1.045h-2.091l-2.091-2.063v3.109l1.761,2.063,2.806,3.109.358,2.063L301.747,87.3l3.136,6.19,5.584,1.045,2.806,2.751.358,2.063-1.43.688.358.688,2.448.358,2.806,1.375,2.448,2.751,4.539,1.045,2.091-3.8,1.4.358.358,1.733,1.761.688,1.4,1.375,1.4-1.045-.688,6.547,2.806.358,3.851,4.126.688-.358V118.3h3.136l.358,1.045-3.136,4.126-1.761.358.358,4.126-3.851,2.751-1.045-.358-.358-3.109-1.045.358-.688,1.733-2.806-.358-2.091-.688-.358.688-6.987-4.126s1.761-2.063,0-2.421a13.247,13.247,0,0,1-3.494-1.375v-2.421l-2.091.358-3.136-2.421-3.494-1.375-2.091-2.421-4.484-1.458-2.146-3.356-1.761-7.923,1.045-5.172V92.8l-5.584-3.439.358-6.877,2.806-1.045-1.761-2.421Z" transform="translate(-199.908 -44.962)" fill="#ff8c8c" stroke="#fff" stroke-width="1"/><path d="M133.868,211.3l-1.761,1.733-.688,2.751-2.448.688-2.091-3.109-.688,2.421h-2.448l-1.045,3.8,1.761,1.045v1.045l-2.091-.358-3.136,6.877,1.045,1.733-.688,1.045-2.806.358-.358-2.063-1.045.688-3.851-.688.688,3.439-1.761-.688-.358,3.109,1.761,1.045-1.045,2.421.358,2.421,3.494,2.751v2.751l1.4,1.045-.358,3.109-1.4.688V254.1l2.091,1.375h3.136v2.751l2.448,1.733,1.045,2.421,4.209.358,2.448-.688.688,1.733,3.136.358v1.375l4.9.688,1.4-1.375,1.761-1.045s4.209,1.733,3.136.358a7.436,7.436,0,0,1-1.045-3.8l2.091,2.063,2.091-2.063v3.439l1.761.688,1.4,3.109-1.4,3.439-1.761,1.045,2.091,1.045.358,2.751,4.539,4.484,1.045-1.733,1.045,1.375v1.375l8.748.688,1.045,1.375-.358,2.421,3.851,2.063,3.494-.688,1.761,2.751,4.9-.688,10.481,2.421,2.806-1.375v-2.421L190.84,284.8l-.358-3.109-3.851-3.109.688-1.375-1.045-.688h-1.761l-.358-2.063h-3.136l-2.091-2.421,1.045-.688-3.494-2.063-2.448-9.628-1.4-3.439-5.254-1.045-2.448-5.5-4.9-3.109-.688-4.814-3.851-1.045-1.4-1.375L152,238.974l1.045-3.8h-3.494l-.358-8.253-2.806-4.814-3.136-.688-1.045-2.751v-3.109l-5.942-1.045Z" transform="translate(-76.456 -153.118)" fill="#d5e300" stroke="#fff" stroke-width="1"/><path d="M319.828,316.831V314.08l-4.539-3.109,1.045-1.733-2.806-.688v-1.375l-3.494-.358-2.806-2.421,1.761-.358-4.539-2.421-2.806-12.737-5.584-1.375-2.448-5.5-4.209-2.421-1.4-5.5,3.494-3.439-1.045-3.439,3.851-1.045,5.942,1.045,1.045-2.751,3.494,2.751-.358-4.126,3.494-3.439,1.4,2.751,4.209-6.19,5.254,3.439h2.448v2.421l3.851,1.375,1.4,3.109,5.584,3.439.688-1.375,4.209,2.063,1.045,1.045-.358,1.045,3.136.688,1.045,1.375L338.7,276.2l2.806,1.045,1.045,1.375v2.421l-1.045.688v1.733l2.091,1.045.358,1.045-1.4,1.045-2.806,2.063,1.045,1.733-1.761,1.045-1.045-1.733-2.091-.688-.358,1.045-2.806-.358-1.4,1.733,3.494,3.109-.33,2.311,2.091,1.375-2.448,3.109-2.448.358-2.448,2.751L325.743,311v.688l1.045,1.733-1.761.688,3.851,2.751h-9.051Z" transform="translate(-205.417 -185.666)" fill="#d5e300" stroke="#fff" stroke-width="1"/><path d="M470.284,197.1v-2.421l-3.136-2.751,3.136-.358-2.091-2.063h-2.448L464.7,186.4l2.448-2.063v2.421l1.761,1.375,3.136-2.751.358-4.484,4.539-3.8-.358-1.375-3.136-.358v-2.421l-1.4,1.045-3.494-4.814h-2.806l1.045-6.19h4.9l.688,1.375-.358,1.733,2.091,2.063.688-1.375,1.761-.688v-1.733l-1.761-.358-.358-3.109,3.851-2.751h3.136v-1.733l-1.045-.688-.358-2.751-1.045.358-.688,1.375-.688,1.045-1.4-.688,1.4-2.421-.688-1.375-.688-1.375v-1.733h1.4l2.091-2.421.688-1.733-.358-2.063L481.1,140.9h3.136l2.091,1.733-1.4,1.375-.358,1.733-.358.688,1.045,2.063,1.4-1.045H490.5l1.045,3.109,3.494,5.859-1.4.688v2.063l2.091.688,1.761,5.172h3.494l-3.494,3.109,3.494,1.045,2.448,1.045v1.045L501.672,173l-3.136,2.751.358,3.8-1.761,2.421,1.4,2.421,1.4,2.421-2.091,2.063v2.063l1.761.358-.688,2.751,3.136,2.421v8.941l-1.761,3.439-.358,5.5-.688,3.109-1.045,1.045-.358,3.8-1.761-1.045-2.448-1.375v2.063l1.4,1.045-3.136,2.421-1.4-.358v-1.375l-.688.688-2.806-.358v-1.733l1.4-.688-1.4-.358v-1.733l1.045-2.751-4.209-1.045,2.448-1.045-1.4-2.063v-1.375l-3.136-2.751h-2.393l-.688,1.733-1.045-2.751-4.209-2.063-1.4-3.8-1.761-1.733V197.1Z" transform="translate(-333.508 -102.084)" fill="#d5e300" stroke="#fff" stroke-width="1"/><path d="M376.523,400.187l5.942,2.063,2.806-1.375.688-2.421-2.806-3.8,8.033.358-3.136-3.109,2.448-.358-1.761-2.751,4.9-7.565,1.761-2.063,1.761.688,2.806-3.8-2.448-1.375.358-3.109-3.136-2.421,1.045-1.733,2.806-1.045,2.806.688.358,2.751,2.806-1.375-1.761-2.421L407,363.6l2.806,3.8,2.448,1.733,1.4,3.109,1.045-2.063H416.8L419.6,372.6v1.375l1.761,1.733-3.494,1.733,5.254,1.045-1.045,1.045v3.109l.688.688-1.045.358v1.733l2.806.358,1.4-1.375v1.733l1.045.688v5.5l1.761,3.8.358,2.421-2.448,3.439-1.761-.358-2.448,2.063-.358,3.109-2.448,3.439-2.091,2.421v1.733l1.045,1.733,1.4.358-1.761,1.045-.688,2.063-.688-1.375L413,417.848l-3.136,1.045-.688,1.733h-1.761l-.688-1.375-5.254-1.045-1.4-1.733-1.045-.358-1.045,1.375-1.761-1.045-1.045-.358-.688,1.375-2.806-.358-1.045-3.439h-1.4l-1.045-1.045-3.851-.358-1.4,1.733-2.091-1.733v-1.045l-2.806-3.8h-1.045l-1.4-1.733-.688-1.733Z" transform="translate(-268.412 -263.521)" fill="#d5e300" stroke="#fff" stroke-width="1"/><path d="M295.7,519.483l-.358-6.19.688-.688.358-7.565-2.091-2.063h-1.761l-.688,1.375h-1.4l-1.4-2.751v-1.733l1.045-.358.358-5.172-2.091-.358,1.045-.688-1.4-2.751,1.761-1.733-.358-2.421.688-4.814L294.3,480.2l1.4.358,3.136,2.421,3.851-.688,1.761,2.421,4.9-.688L313.2,485.4l-1.4,2.751,1.761,2.751,1.761,1.375,2.448,3.439-.358,1.045,3.136,2.063V500.2l-2.091,1.733-1.4.688,1.4,2.063-2.091.688.688,1.375-2.091-1.045-1.761,4.814h-1.4v2.751l1.045,1.045-.358,1.375-1.761-.358v-1.045h-3.851l-.358-2.421-2.448-1.045-.358,4.814h-1.045l.358,1.375,2.091,1.375v1.045l-3.136,2.063-1.045.743-1.761-1.375-1.761,2.063v-1.375H295.7v1.375l-.688-1.045h-2.448v-2.063Z" transform="translate(-205.417 -348.046)" fill="#ff8c8c" stroke="#fff" stroke-width="1"/><path d="M160.348,536.8v-2.421l3.494-.33-.688-6.19,1.4-.358-.358-7.235-2.091-3.439h-.688l-1.4,1.733-1.761.358-1.761-3.109V514.44h1.4l1.045-5.5h-3.851l2.091-.688-2.091-2.751,1.4-1.733-2.806-.358h-1.4l-4.539-2.751-1.045,2.421-2.448,1.733h-.688l-1.761-2.063-1.761,1.045-4.209-2.421-2.448-.688-.688,1.375-6.63-.358-1.761,3.439h-1.733v-2.063l-1.045-1.045-1.045,1.375-1.4-1.733h-2.091l-1.761-1.375-.688,1.375-2.448,1.045h0l-.358,2.751,2.806,1.375v1.045l-2.448,1.045v4.814l.688,1.045-1.761-.358-.358,3.109,1.761,1.375-1.4,1.733-1.761,1.045v2.063l-1.761.358V525.5h2.448l2.091,2.063.358,3.8h1.045v-1.375l.358-1.375h1.4l2.448,2.421V532.4l-2.448,4.126-1.761.688-2.806.358-.358,1.045-3.136-.688L106.1,540l2.448,1.375,1.4-.688h4.209l-1.4,2.063,1.761.688,3.494.358,1.045,2.063-1.761.358-1.761-.688h-1.4l-.358,1.045,2.448.688,2.091,1.045.358,1.045,1.761,1.045,3.851,1.045v2.421l1.761.688,2.091-2.751,1.761,2.421-.358,3.8,1.4,1.375.358-.688h1.761l2.091-1.045,4.9-3.439h1.4l.358,1.375,2.448-.358h0l1.761,2.063.688-.688h2.448l2.091,2.421.358-.688,2.091-.358,1.045,1.375V562.8l1.761,1.375,1.761.358,3.851.358v2.063l.688.688h1.4l.358-1.045v1.375h2.091l.688,2.063,1.4-1.733,1.045.358,2.448-2.063v-3.439l-1.045-.688V560.05l2.806-4.126,1.045-1.733-.358-3.109.688-2.751-1.761,1.375-3.851.358.358-3.109-2.448-4.126h-.688l-2.806,2.751-1.045-.358-3.136,2.586-.358-7.565-1.4-.688Z" transform="translate(-73.557 -362.616)" fill="#d5e300" stroke="#fff" stroke-width="1"/><path d="M32.64,615.11l-2.091-1.733L28.1,612.69l.358-1.375,4.9,1.045L32.31,610.3H29.119l-3.136-1.375,1.761-2.063-3.136-.688-1.4,1.375L20.4,606.17l.688-2.421,2.806,1.045.688-1.375,3.851.358,1.045-1.375,2.806-4.484-3.494-3.439-1.045,3.081-2.091.358.688-3.439-2.091-2.421-2.091-.358-1.045,2.421-4.209-.358-.688,2.751H15.172l-.358,1.375h2.448v1.733l-1.4,2.063-.688-2.063h0l-1.761,1.733-.688-1.733-2.091-1.375L9.587,600.31l1.045-3.439-3.521-2.421.358-2.063-2.448-.358-.358,1.045H1.857l-2.806,1.733-.358,1.733,1.761,1.733.688,4.814-6.3,4.126.688,2.751-2.091-.358-1.045,1.045-.358,2.751-.358,2.421-.358,1.733-1.761-.358-1.761,1.045,1.045,1.045,1.761,1.375-.358,1.375,3.851,2.421-.358,2.063,2.091,2.063L-5.213,631.7l1.4,2.751,1.761,2.063H.4l2.091,2.063,1.4,1.733,2.448-.358,8.748,2.751h3.494v-1.733h-.358l-1.761-2.751V633.4L14.7,631.341v-3.109l4.209-2.063,2.806-.358h0l3.851-2.421-.358-2.751h7.345l.688-.688-1.4-1.045-1.4.688-2.448-1.375Z" transform="translate(12.2 -428.873)" fill="#d5e300" stroke="#fff" stroke-width="1"/><path d="M297.361,575.175,297,567.94l-1.4-1.045,2.806-2.421H300.5l1.045,2.421.358-2.421h1.045v2.063l2.448-3.109,1.761,1.733,4.209-3.439-3.494-3.439,1.761.688.358-5.172,2.091,1.045.358,2.063,3.851.358v1.375h2.806l-.358-2.063-1.761-1.045V553.47l1.761.358,2.091-5.5,2.448,1.375-1.045-2.063h2.448l-1.761-2.421,3.494-2.063.358-2.421-1.4-.358,1.4-1.375,3.851.688,2.448,1.375.688,3.109,3.136.688.688-1.733,3.136,1.733,1.045-2.063,2.806,2.751,4.209.688,1.761,1.733h1.4l1.045-2.421,5.942-.688,1.045,1.733,1.045.358-1.045,2.751h1.4l.688,2.421-1.4,2.063,1.4,1.045-.688,1.733,1.4,2.063.358,2.421-1.761.358v3.054l2.806,3.109h2.448l1.045,1.733-.688,1.045h-4.9l-.688,1.045v2.063h-.77v2.421l-3.494,4.814-2.448-2.421-1.761,1.045-1.4-1.375v1.733l-1.4,1.375-.358,2.751,1.4.688-.688,1.733.358.688,2.091-.358,2.091,1.733-1.4,1.733,2.448,1.375-1.4,1.733h-2.091l-.358,1.375-2.091-.688-1.4-2.063-.358,1.733h-2.091l-1.045-1.375-2.806,1.375-2.448.358-2.806-1.733-6.987.358V591.13l-1.761-2.421h-1.045l-2.091-2.063-2.806-.358-1.4,1.045.688,2.751-.358,1.045-3.851-3.109v-1.375l1.4-1.045-.688-1.733-2.091,1.733-1.045-1.045-1.761,3.8-2.448-4.814,1.761-2.063-.358-5.172-1.761,1.733-3.494-.358.358-1.733-3.136-5.172-2.448,2.751-1.045-1.375Z" transform="translate(-210.926 -390.67)" fill="#d5e300" stroke="#fff" stroke-width="1"/><path d="M263.318,754.81v-1.733l3.494-.358-.688-1.733-4.539-.688,1.4-1.375-1.4-.688,2.091-1.045-1.4-2.063,5.584-2.063-1.761-2.751V738.25l-3.494.358-1.4-3.439,4.539-3.109-.688-11,3.494-2.421-2.448-2.421h-2.091l3.136-2.063,3.494.688,1.4-2.751-.358-1.375h2.448l-.358,1.733,2.091,1.733,2.806.358,2.448.358,3.136-2.063.358-3.8h-1.4v-3.109l2.806-3.439,2.448,4.126,1.4-3.439,1.4.688,2.091-2.063,1.045,1.375-2.091,2.421,4.209,3.109.358-1.375-1.4-1.733,1.761-1.733,3.136.688,2.091,1.733,2.091,1.733,1.045,2.421,1.045,1.045-5.942,7.923-3.494,4.126,2.091,1.045.688,2.063,1.761,1.045.358,6.547-2.806,2.751v1.733l-1.761-.358-3.081,6.135-2.448,1.375H289.92l-1.045,2.421-3.136,2.421-6.3,1.375-1.4-1.375-1.045-.358-1.4,2.421V755.2l-4.209-.358-3.494-1.045-1.4,1.733Z" transform="translate(-185.99 -508.685)" fill="#d5e300" stroke="#fff" stroke-width="1"/></g></g><path d="M397.609,698.483v-5.172l-1.761-1.375V690.56L393.4,688.5l9.436-11.361-.688-1.375h6.3l2.448,2.063h2.448l3.136-1.733,2.806,1.375.688-2.421,1.4,2.751,2.448.688V676.75h1.761l1.761-1.375-2.806-1.733,1.4-1.375L423.5,670.2l-2.091.358-.688-.358,1.761-1.733-1.761-1.045,1.045-3.8v-2.421l1.761,1.733,2.091-.688,2.091,2.063,4.539-4.814-.688-2.063.688-3.439,4.209.358,1.4,1.733,1.045,1.045.688-1.375h1.045l1.761,1.733,1.045.358.358,2.063-2.091.358-.358,1.045,2.091,1.733v5.172l-.688,2.751h-2.091l1.761,2.063.358,2.421-1.761,1.045-.358,2.063-1.4-.358-1.761,2.063,1.761,2.421v2.751l-2.448,1.733-1.045,1.733,4.9,5.172-2.091,2.063.358,1.375,2.448,1.733L443.137,702l-.688,9.986,1.045,1.375-1.045,1.045v1.375l1.045.358,1.4,1.375v1.045l1.045,1.045-.358,4.126-2.448,4.814-4.539,1.733h-2.448l-2.806-3.439-4.209-3.109H426l-4.539-3.8-3.494-.688-.358-1.733,1.761-.688.358-2.421-1.4-.688,1.045-.688v-1.375l-1.4-1.733-1.045.688-3.136.688-1.045-.688v-2.421l1.4-.688s0-2.063-1.4-2.063h-1.761l-1.045,1.733h-.688l-.688-2.063v-2.751l-3.136-2.063-2.806-.688Z" transform="translate(530.843 -312.097)" fill="#d5e300" stroke="#fff" stroke-width="1"/><path d="M313.4,839.877v-2.421l1.4-2.421,1.761,1.733,6.987-1.375,3.494-2.751.688-2.751,2.091.688,3.136-1.733,2.091-6.19,2.091,1.045.358-2.751L340.3,818.2l7.345,1.733,2.448,1.045v3.439l1.045,2.063,2.448-1.375,2.091.688-1.4,1.045v2.751l1.4,1.045h3.136l1.4-1.733,1.4,2.421-2.091,1.733h1.761v2.063l-2.091,1.045.688,2.421,3.136.358,4.539,3.8,3.136-.358,4.539,3.8,2.448,3.439-3.494.688v2.063l-1.4.358.358,3.109,1.761,2.063,2.806-.688,1.4,4.126h-1.4l-2.806-3.109,1.045,4.126,4.209.688L383.3,865.1l-3.136,1.045-1.761,1.045-4.209-.358-4.181-1.733-4.9,1.375-3.136,1.375-8.39-5.172-1.4-3.439-4.181-4.484h-1.761l1.4,3.439-1.761,2.063-3.851-.688-2.448-3.439-3.466-3.851-1.4-.688h-4.9l-2.091-1.375h-3.851l-2.091-.358-2.806,2.421v-1.733l-2.806-1.045-1.4-2.751.688-4.484-2.063-2.393Z" transform="translate(588.835 -431.126)" fill="#d5e300" stroke="#fff" stroke-width="1"/><path d="M552.4,1015.9Z" transform="translate(415.582 -574.441)" fill="none" stroke="#000" stroke-width="1"/><g transform="translate(862.387 402.222)"><path d="M230.032,898.491h3.846l3.5,3.1,4.895,2.754,3.846.344,3.846.689,1.4-2.41,2.8,1.721H258.7l2.1,3.787-.7,3.1,1.049,3.1,1.4.344,1.748.344v2.065l3.147,1.377,1.049,2.754,1.4-1.721,1.748,1.033,2.1,2.41,4.895-.344-3.5-3.1,4.2-1.033,3.846,2.754-2.8,1.033.35,2.065,3.147,2.41,2.1,1.377,2.1-.344,1.4.688-.35,3.1-.35,4.819-2.447,2.754.7,1.721h-2.447l-4.2-2.754-1.049-.344-.7,2.065h-3.147l-1.748,2.41-2.1-.689-2.8,2.41-.35-3.1h-2.1l.35-2.065-2.447-.688-.35,1.377,1.748,2.41-2.447.689-.21,2.341-2.587,1.1v-4.475l-.35-3.1-1.4-1.721-1.4,1.033-1.748,2.41-1.748-4.131-2.8-.688,1.748-2.065-3.147-.688-2.447-1.721,1.4-1.377V928.44l-2.1.344-1.4-1.033,2.447-1.377-1.049-2.754-1.4-1.721-2.447,1.377-1.049-3.442-1.049-1.377h-1.049v2.754l-3.846-4.131h2.1l1.4-.688-2.1-2.065-1.748.344-1.049.688-.35-2.065,2.447-.689-3.147-1.721,2.1-1.033-4.2-3.1Z" transform="translate(-218.844 -898.491)" fill="#d5e300" stroke="#fff" stroke-width="1"/><path d="M437.093,1006.738v-4.475l-1.748-1.377,2.1-1.033,4.895.344,2.8.344,1.748,2.065v2.41l.7,2.41,5.244,3.1-1.4-3.787,2.8-.344.7,1.721,1.748,1.033,4.895-3.1,1.748,1.033-.35,1.721,1.748,2.065v-2.754l7.692-.344,3.846.689,2.447,3.1.35,3.787-3.147-2.41-2.447-3.1h-8.391l-.35,1.377h6.992l3.5,2.41,4.545,3.442,1.748,1.377,1.4.689-1.748.688-.35,1.721h-3.5l-.35,1.721-2.447-.688v4.819l2.8,1.721-.7,1.721h-2.447l-.7-1.721-.7,1.721-3.5-.344-.7-4.131-4.2,3.787h-1.748l-.7-3.1h-1.4l-.7,1.377-3.5-1.721-.7,1.377,2.1,1.377-2.1,1.033-1.4-.344v-1.721l-2.8-.344-1.4-3.787-3.5-2.41-.35-2.065-4.895-.344-.7,1.033-4.2-3.787-.7-2.065-1.049-2.065,2.447-2.41Z" transform="translate(-367.171 -971.969)" fill="#d5e300" stroke="#fff" stroke-width="1"/><path d="M205.8,967.317l4.2,4.475.35-3.442,2.1,2.065v2.065l1.049,1.377,2.1-2.065,2.447,3.787-3.147,2.065,2.1,1.721,2.1-.688.7,1.377-2.447,1.033v.688l-.35,2.065-1.748-1.033-1.4,2.065.35,3.1-3.147.344.07,6.541-2.867,3.029-2.727.413-1.818,1.377-1.4-.344-4.545,3.787-.7,1.033-5.034.275.489-3.718-2.447-.688-.7-1.377,1.748-1.033.7-2.41-1.748-.688.35-3.787L192.16,989l-2.447-3.442,1.748.688,2.1-2.065V983.5l-1.049-1.033.35-3.787-.7-.688,2.1-1.033,1.748.688v2.065l1.189-1.515,2.1-.138,3.636-3.856,2.238-.275.769-2.065-.629-2.823Z" transform="translate(-189.363 -948.383)" fill="#d5e300" stroke="#fff" stroke-width="1"/><path d="M214.781,1041.525l5.943-4.475,1.748.344,1.4-1.721,2.937-.62,2.447-2.823.28-6.472,2.8-.413-.7-3.029,2.1-1.721,1.748,1.377.7-3.1,1.748,1.721,4.056.344L239.674,1023l2.8,1.033.769,1.583,2.028,2.547.7-1.721,1.748-1.721,1.4,1.721.42,7.849-.14,4.475-1.049,3.787-.909,1.17-2.238.551v1.033l1.4,1.033-.35,1.721-3.846-.688-2.1.688,1.608.413,1.189,2.341-.35,4.819-1.748.688,2.028,1.171.769,1.583-3.776,2.892-3.216.138-.35,3.167H234.01l-2.028-1.583-2.168.9h-3.147l-1.049-1.033v-4.131l1.049-3.1,2.1.688-.28-2.272.839-2.065-.909-.9-1.748-.275,1.538,1.446-2.587,2-1.4-1.377.35-1.377-1.189-1.1-2.657-1.308-4.545-3.443,1.049-2.41Z" transform="translate(-207.789 -985.757)" fill="#d5e300" stroke="#fff" stroke-width="1"/></g><path d="M219.667,1055.6l4.181,1.045,2.091-1.375,1.4,1.733,2.806.358.358-3.8,2.448.358,4.539-2.751-.358-1.733-2.806-1.733,1.4-.688.688-4.814-1.045-1.733-1.761-1.045,2.091-1.045,4.209,1.733.358-1.733-1.4-1.733-.358-1.045H240.6l2.806-4.814-.358-5.5,2.448-1.045,1.045-2.421H248.3v-1.375l-1.761-2.063L246.9,1017l2.091,1.045v1.733l2.091.688.358,2.063h1.4l1.4-2.063,2.448,1.045,1.761-2.421h3.136l1.045-2.063,4.209,2.943,2.806.5.358,1.375,4.9,4.126.358,2.063-.688,1.045H273.53l-.688,1.375,1.045,1.045.358,1.375-1.045.358v2.063l1.4.688-.358.688h-1.761l-1.761,2.751.358,3.8-.358,3.8-1.045,1.733-1.4,1.375-1.761-.358-2.091,4.126-.358,2.421,1.4.358-1.4,1.045v1.733l-1.761,1.733-1.4-1.375-.688,1.045,1.045,2.751-2.448,1.045-5.942,1.045-1.761-4.126H248.3l-1.4-3.109,2.091-1.375-3.494-1.375-1.4-1.045-1.045,1.045,2.091,2.751h-3.494l-2.806,1.375,2.091,2.063,2.091,1.045-2.806.358-4.539-1.375-1.045.358,2.091,1.375-1.045,2.421-1.045,1.733-.358,1.733h-5.942l-3.494-1.733v2.421l-3.494-.358-.688-1.733-2.806-.358-1.761-1.045V1065L214,1063.628V1061.9l.688-1.375,2.806-.688-.358-1.733,2.531-2.5Z" transform="translate(660.891 -575.238)" fill="#d5e300" stroke="#fff" stroke-width="1"/><path d="M397.761,1077.848,396,1076.8v-1.733l2.448-4.126,1.761.358,2.806-3.439v-4.126l-.358-3.439,1.045-2.751h2.448l.688-1.045-1.761-.358v-2.421h1.045v-1.375l-1.4-1.375.358-1.375,1.761.688.688-1.375-.358-2.063.358-1.045,4.539.358.688,1.733,3.494,2.751,1.045,3.439,1.4,1.733v2.421l1.4,1.733,1.4.688v1.375h-1.761l-1.4,1.045.358,1.045h5.254l2.806,1.733.688,2.421h1.045v3.8l2.448,3.8.688,2.063-3.136-2.063-1.4,1.375,1.761.688v4.484h-4.209l-1.761,3.109-1.761.688-2.448-3.109-1.4.688-2.091,2.751-1.4.688h-.688l-1.761-2.063-1.045.358-2.091-2.421h-.358l-.688.688h-1.761l-1.761-1.375-.358-2.063-2.091.358-3.411-2.861Z" transform="translate(528.958 -596.115)" fill="#d5e300" stroke="#fff" stroke-width="1"/><path d="M273.507,1166.842l2.806-4.814-2.806-2.421H275.6l3.494,1.733h3.851L278.4,1157.9l1.761-1.375,4.9.358-2.448-2.751,1.045-1.733.688,1.375,4.181,1.375-1.761,1.375,1.045,2.751,3.136.358,1.4,4.126,4.181-.688,4.539-1.045-1.4-2.751.358-1.375,1.761,1.375,2.091-1.733-.688-2.063,1.4-.688,4.539,3.109,1.761-.358.358,1.733,2.091,2.063,1.761.358,1.045-1.375,1.761,2.421,3.136,1.045L320,1165.522l1.761,1.045-1.045,1.045.358,4.126-1.045,1.375.688,3.109-3.136.358v1.045l1.761.688.358,1.375-1.045.358.358,2.421,3.136-2.063h1.045l-.358,3.439,2.091.688v.688h3.136l.688,1.045-.688,2.421,2.091,3.439s1.761,2.421.358,2.421h-2.091l-2.448-.688-1.045-1.045-1.761-4.126-1.045-1.045-2.448,1.733.688,2.421-2.091,3.109-4.539,2.063-.358,1.733,1.4,1.733-.358,4.484-.358,1.375-3.851-1.733v-1.733l-1.4-.358-.358,1.045-3.136,2.751-2.091-.358-3.136,1.733H297.99l-2.448-1.733-.358.358-1.4-1.045-.358-1.733,2.091-.358-2.448-3.109,2.091.358.358-1.045-1.4-2.421-2.806-1.733-.358,2.063h-5.419l-2.283-1.733-1.761-1.045h0l1.4,3.274-1.4,1.375-5.254-.688-1.4-1.541-1.761,1.045h-1.4l1.045-2.063-4.209-1.733.688-6.19,2.091-.688-1.045-1.733v-1.733l-1.4-1.045,2.806-4.484,3.494-1.375-.358-2.751,3.494-2.421,1.4,1.045,1.045-2.063-1.4-.688-.358-1.733-3.136,2.421-1.761-1.045-.55-2.806Z" transform="translate(621.383 -673.39)" fill="#d5e300" stroke="#fff" stroke-width="1"/><path d="M449.524,1186.632l-1.761-2.421,2.806-.358,2.806-2.751,1.045-1.045,2.091,3.109,2.448-1.045,1.761-2.421h3.851l1.045,2.751h2.806l.358.688-2.448,2.751,1.045,2.063h3.851l1.761,2.063v1.375l-1.045,1.733,1.045.358,2.448-1.733,2.806.358-.358,2.421-1.045,2.421-1.4,2.751h-1.761l-2.806-.688,4.539,3.8,1.4,2.063,1.4,3.439,3.851,2.421v1.733l-1.045.358-3.136.688-8.033-3.109-2.806,3.109-4.539-2.421-1.4,2.063H460.06l-3.851-4.484,1.4-2.063-1.045-2.063-3.494-.358-1.761-1.733L452,1199.7l-1.4-.358-3.136,3.109.688-2.751-.358-2.063-2.091-.688,3.851-.688-.688-3.109,1.4-1.375-.743-5.144Z" transform="translate(492.93 -693.18)" fill="#ff8c8c" stroke="#fff" stroke-width="1"/><path d="M290.348,1303.7l2.448,3.109-1.761,2.063-2.091-1.375-2.806.358-1.4-1.375-3.136,1.733.688,2.751,2.091,2.421,1.045-1.733,1.4.688-.358,1.733,1.4.688-.358,2.063-2.091,2.063,1.4,1.375-1.4.358-.358,3.109-2.091-1.045.688,3.109,2.806,3.8-3.136,5.859,3.494,2.421-.688,2.063-.688,2.751,3.136,2.421-.688,3.109,2.091,3.439.358,3.8,1.4,1.045-3.136,1.045.358,2.063,1.4,1.045-1.4,5.859,3.494.358.688,2.751-2.806-.688v1.733l2.091,2.421,2.091.358v3.109l2.448,2.063.358,4.484,3.136-.688-2.448,3.439h-3.136l-.358,2.751,1.045,3.439,3.136,5.5-1.045.688-.358,8.253,2.448,3.109.358,4.484.358,2.421,4.209,2.063,3.136-1.375,2.091,4.126-.688,1.733,2.091,2.063-1.4,3.109-3.136,3.439,4.181,1.733,4.209-1.045-.688-1.733h2.448l.358-2.063-1.761-1.045,1.4-2.063v-6.877l-1.4-.688,2.971-2.421,2.283-6.547,2.091-2.063-1.045-3.109-2.806-5.172-2.806-5.5-1.045-2.421,2.448-2.421H311.7l3.494-4.814,1.761-3.8,1.4-8.61-3.494-5.5v-1.733l2.091-1.733-3.494-2.421.358-6.547,3.136-1.733-3.136-5.859.358-7.923,2.091-2.421,1.761,3.109,2.091-2.751-.688-1.733-2.091-.358-1.4-1.375,1.4-2.751.688,1.375,1.761.688.688-2.421,1.761-1.045-.358-1.733-3.136-5.172-3.494-1.733-1.761-3.109-.688-1.045-2.806,2.063-2.448.358-2.091-2.063-1.045.688L303,1313l2.091-.688-3.136-3.109,2.806.688-1.4-4.126-2.091-1.375-.358,2.421h-5.584l-4.979-3.109Z" transform="translate(611.887 -783.069)" fill="#d5e300" stroke="#fff" stroke-width="1"/><path d="M326.736,1670.4l-3.136,1.375.688,2.751,2.091,3.109-1.761,5.859.358,2.063,2.806.688,3.136,4.484,2.806.358,1.045-2.063-.358-2.063-1.4-1.733-2.448-.358-2.448-2.063.358-5.859-1.733-6.547Z" transform="translate(581.441 -1048.893)" fill="#d5e300" stroke="#fff" stroke-width="1"/><path d="M401.466,1312.083l-1.21.523-.523,2.586-1.761-.853-.688-1.9-1.926,3.109,1.4,1.541,2.283.165.88,2.063-2.091,2.751-1.761-2.916-2.283,2.063-.165,7.4,3.329,6.547-3.329,1.733-.358,6.382,3.329,2.586-1.926,1.21-.165,1.9,3.659,5.859-1.568,8.253-4.9,8.775,5.777-.165-2.283,2.421,6.107,12.9,1.4,3.439,2.283.688.165,2.228-3.659.688-2.806,4.649,1.568,1.375,1.045,3.109h1.568l.523,2.751,1.045,3.439,4.374.358,2.613-3.961,1.4-.853,1.4-2.586-.688-1.541-.88-2.063-3.329-2.063,2.613-1.375,4.732-4.814.358-3.8.165-4.292h1.4l2.448-8.94.165-7.07-1.568-6.547,4.732-4.649,1.045-2.228,1.568-.358,2.091-3.439v-4.291l-3.136-9.133-1.761-.853v-4.126l-2.448-5.172-.688-5.859,1.4-3.274,2.806-2.751,1.761-6.025,1.4-1.21,1.21.853,2.613-2.586,1.21-2.421-.523-2.751-1.045-1.045v-2.228l3.659-.165,2.283-1.9,1.4-7.235-8.033-2.751-3.494,3.109-4.016-2.421-1.761,2.228-1.761,1.045-4.016-.523-1.568-1.045-2.806-5.337-2.613,1.045.88,2.751-2.613,3.109-4.374,2.063-.523,1.375,1.4,1.541-.358,6.712-4.016-1.9.358-1.733-1.568-.688-.165,1.21-3.136,2.751-2.283-.358,2.448,4.126,3.494,1.541,2.613,4.484.138,2.751Z" transform="translate(532.075 -766.831)" fill="#d5e300" stroke="#fff" stroke-width="1"/><path d="M413.288,1723l-.688,6.19,3.851,2.421,1.045-3.8L413.288,1723Z" transform="translate(516.924 -1087.022)" fill="#d5e300" stroke="#fff" stroke-width="1"/><path d="M475.2,1055.533l2.228.5.248,1.706,1.486.743,2.228-1.21-2.476-1.458.99-1.21,3.714,1.458.5-1.458,1.238.248.743,2.916,1.981.248,3.961-3.906.743,4.126,3.466.5.743-1.953.99,1.706,2.228.248.99-1.706-2.971-1.458v-5.612l2.476.963.5-1.706h3.466l.248-1.706h.743l1.981.5.743,1.953,7.18,1.458,2.476,2.916h1.981l1.238,2.916,7.675,1.21,4.456,3.164,2.228,3.906.248,4.622h-1.981l-.248,3.659-1.981,1.706,2.723,1.706-1.238,3.164L531.649,1085l-1.733-.743-2.723-1.706-1.238,3.411-1.238-.248-.248-1.706h-1.486l-1.733-2.668-2.228-.248,1.733,2.2-1.981.248-2.723,1.706-.248-2.668h-2.228l-1.486,1.21-1.238-1.953-2.228-.248-4.209,4.126-5.694.248-.5,1.458,2.228,1.21-.248,1.21-.743,1.21-3.219,2.668h-2.476l-1.238-1.458h-3.714l-1.238-2.2,2.476-2.668-3.219-.743-.743-2.668v-4.622l-1.733-1.21,1.486-1.458,3.961,2.916-1.486-2.668-2.723-4.126.248-3.411H485.1l-1.238-2.2-1.981-1.706-5.942-.248-.248-.963,1.486-1.21h1.733l.248-.963-2.723-2.421-1.238-4.154Z" transform="translate(471.545 -597.348)" fill="#d5e300" stroke="#fff" stroke-width="1"/><path d="M551.6,1205.215l.248-1.458-3.466-1.953-1.733-4.374-4.952-4.869,3.466.248,1.981-4.869.5-2.668-2.476-.963-2.971,2.2-.5-.5.743-2.2v-1.21h1.485l4.457-2.916.5-2.2-2.476-1.458.5-1.706,4.7.248,4.7-3.906,2.228.248,1.733,1.458,1.486-1.21,1.733.248.5,2.668,2.228-1.458,2.723-.248-1.486-2.668,1.486.248,1.981,2.916h1.238l.743,1.953h.99l.99,3.659-1.238,4.126-3.219,1.706s.99,2.2,0,2.2H567.2l-1.486,5.364,2.971,1.706,1.238-2.2,1.733-.963,3.219,1.953,1.238,1.21,2.723-2.421,3.219,1.706-1.238.963-.248,2.421,3.219.963-1.238.5v3.164h-2.723l-.99,2.2-2.971,1.21v2.2l-.99.248v1.21L572.9,1209.4l-.99,3.906-.99,1.458-.248.963-2.476.5h-3.466l-.5,2.668h-.743l-2.723-1.706-3.961.248-3.466-1.981-.5-1.706,2.228-1.953-3.714-2.421.248-4.154Z" transform="translate(423.339 -685.931)" fill="#d5e300" stroke="#fff" stroke-width="1"/><path d="M508.425,1299.458l3.961-1.458-.5,4.374,3.961,1.458-2.476,2.421.5,2.421,3.466,2.421,4.456-1.458,2.971,3.411.5,6.822-3.466,1.458-1.981.963-.5,3.411h4.952l.99.963v5.364l1.981,4.869-1.486,2.421,1.981,6.327-3.961-1.953-2.971-1.458-.99.963,5.447,3.906v1.458h-1.513l-2.476,2.916v6.327l-2.971,4.869-.99,2.916-.5,5.832,2.971,4.374.99,5.364-3.961,5.364,1.486,3.411-.5,6.327,1.981,5.364v2.916h-1.981v2.916l-6.932,4.374-2.476-1.953-5.942-.5-3.466.963,6.437,4.869-1.486,2.916h-5.447l-3.961-.963,2.476,4.869-3.466.963-3.961-1.458,1.485-3.411-2.971-4.374v-3.8l-.5-3.906.99-7.785-.99-4.374,2.476-6.822.5-8.28-1.981-7.29,5.942-4.869,3.466-2.421.99-7.785-3.961-7.785-1.486-1.458v-3.411l-2.476-4.869-.99-6.327,4.457-7.29,1.981-5.832h3.026l3.466-3.906v-3.411l-1.981-1.458v-2.916l5.447.5,1.486-3.906.468-4.9Z" transform="translate(462.556 -778.937)" fill="#ff8c8c" stroke="#fff" stroke-width="1"/><path d="M527.615,458.118l4.9-5.172-.358-3.109,2.448-2.751,2.448.358,2.091-2.751-.358-3.439-1.761-3.109v-5.859l3.494-2.421-1.761-1.045V426.4l3.851,2.751-1.045,5.5,2.091,2.063-.358,2.751,2.448,1.733h2.448l1.761-2.421,3.136.688,2.091-.358v5.172l-.688.688-2.091-1.375-1.045,4.814-2.091,2.063,1.045,2.421,2.806-.358-.358,1.733-1.4,1.733L551,458.751l3.136,2.421-.358,2.063-2.448,1.375.358,1.375h-1.761v1.733l1.761,3.439.358,2.063,2.091-.358,1.761,2.063-.688,2.063,2.448,1.045,8.033,2.063.688,2.421,4.539-3.8,6.63,3.109-.358,4.126-3.136,3.439-2.448-.358h-5.584l-3.136.688-5.254,6.19-1.761-2.421-.688-1.045-2.393-.963v2.063l-2.806,1.733-1.4-1.045-1.045,2.063,1.045,2.063,2.091,1.375-.688,1.375-1.045-.358-1.4,3.109h-1.761v2.421l-2.091.688v3.8l-1.761.688-2.806-.358v-3.109l-2.091-1.733,2.806-.358,1.045-7.235-2.806-3.109,2.091-.358.358-2.421-3.136-2.063-1.4-.358-.688,1.375-2.091-2.421h1.045l.688-1.733-.358-1.733-2.448.358-2.778-2.971-.358-2.751,1.761-.358-.358-3.109-1.4-1.733.358-1.733-1.4-1.375,1.4-1.375v-3.109H526.9l2.091-2.421-1.761-1.045,1.045-2.421-.66-3.686Z" transform="translate(434.067 -147.108)" fill="#d5e300" stroke="#fff" stroke-width="1"/><path d="M554.645,727.57l2.806-4.484-.358-4.126-1.4-3.109-2.091-.688v-1.375l1.045-1.045-1.045-1.375.688-4.126.358-6.19-4.9-5.172,2.448-3.109-4.9-4.484,3.136-3.439.688-4.126-2.448-2.063,2.448-1.733,1.045.688,1.761-2.751,3.136,1.045.358-1.733,1.4-2.421,1.045-1.733.688-1.733,1.4-1.045,1.761-2.421,1.761.358V663.8l-2.448-2.063-.358-1.733.358-1.733,1.045,1.375,3.494-2.063.358-2.063,2.091,1.045,2.806,3.8,4.209-6.19,3.494-1.375,2.091,1.045.358,3.109h3.136v5.859l2.806,4.126v1.733l-1.761,2.421-.358,2.063,2.448,5.5,7.345,4.484-1.761.688-1.045,2.421,3.136,5.5.358,2.421-1.045,1.733,2.448,6.19,2.448,1.045,1.761.688.688,1.045-2.806,1.375v3.109l-2.091.688-1.761,1.375-1.4,3.8.358,5.172-2.448.358-1.4-1.375-.358,1.733h-1.045l.358,2.421-3.851,3.8-2.806,1.733h-1.045l-3.136-2.063-2.091,2.063H577.01l-2.091-1.375V730.1l-1.761,1.733-.688-2.751-1.4-.688-3.136,3.439-2.091.688-1.761,1.733-1.045-2.063-1.4,2.421h-2.091l-2.091-1.733-.688,1.045-1.4-2.063-.715-4.291Z" transform="translate(419.279 -311.227)" fill="#d5e300" stroke="#fff" stroke-width="1"/><path d="M548.778,925.8l-5.584,1.733-3.494.358.358,3.439,3.136,3.8,4.181,3.8.358,2.063,1.4,1.733-.358,3.439,3.851,5.172,4.209,2.751,4.209,1.045,1.761,2.063h-3.851l2.806,2.751,1.761-1.045,1.761,3.439,6.3,1.733,2.091-1.733v-3.8l4.539-.688,3.136-1.375,8.033,1.375-2.091-5.859,3.494-3.8-6.987-1.375-2.448-3.109-1.761-3.8-2.448-1.375-1.761-4.484-3.494-1.733,2.806-2.421-6.63-.358-.688-2.751-1.761-.688-3.549,3.494-1.045-.688-2.448,2.751-1.045-1.733-1.4,3.109-2.091-.688-1.761-1.375-1.045,1.375-1.4-2.063-1.045-4.484Z" transform="translate(424.789 -509.126)" fill="#d5e300" stroke="#fff" stroke-width="1"/><path d="M647.906,958.429l1.761-2.063v-3.439l5.942-.688,2.091-1.375,7.7,1.733-1.761-6.19,3.494-3.109-5.942-1.733-1.761-.358-3.494-6.547-2.806-1.375-1.045-4.484-3.851-2.421,2.806-2.063-5.942-.688.358-1.733v-2.063l2.806,2.063,3.136-2.421,4.209,2.063,3.136-1.375,2.091,3.439,2.806-1.375,2.806-.688,1.045,1.733,1.761-5.172,3.136,4.814-2.806,2.421,2.448.688,5.254.688.358,6.547,2.806-.688,1.761,1.733h2.448l1.761-1.375h1.761l.358,2.751V938.1l-.688,2.063,3.136,8.94,1.4,1.375-1.4.688-5.942,2.751,2.448,4.126-1.045,3.8-3.136-2.751-1.045,1.733-1.045,4.484-2.448-.688,1.4-4.126-3.136-1.733-1.761-2.063-5.254-1.045-2.091,3.109-.358,1.733-.358,4.814-1.761,2.063-2.448-1.375-.358,2.751-1.045,1.733-3.494-1.733-.358-3.109-1.045-3.439-2.806-1.733-6-2.036Z" transform="translate(348.383 -503.545)" fill="#ff8c8c" stroke="#fff" stroke-width="1"/><path d="M734.187,1185.41l-4.952,1.458-2.971,1.953-.99,2.421-3.384-2.531-2.558-3.329,1.486-2.916,1.981-2.916-2.971-2.916-2.476-4.374-3.466-2.421-1.486-6.327,4.457-3.411,3.466-6.327,2.971-4.374,4.952.5,4.457,3.411,1.981,3.411h7.427l1.486,3.411.5,3.411,1.485,5.364-1.981,4.374-2.916,2.2,1.9,2.943-6.41,1.651-1.981,5.337Z" transform="translate(299.597 -671.216)" fill="#d5e300" stroke="#fff" stroke-width="1"/><path d="M644.081,1128.5l4.539.358,2.806,2.421,3.136,1.375,6.987,2.063-1.4,2.421-4.9,7.923-4.539,3.109,1.045,6.19,4.181,3.109,2.091,4.814,3.494,2.421-3.851,5.172,2.806,2.421,1.045,2.063-1.761,1.375H655.91l-4.181-1.045.358-4.484.358-4.126-1.761-.688-1.045,1.733H645.1l-2.806-1.733v-1.375l1.761-.688-3.136-2.063-2.806,2.421-3.494-2.751h-2.091l-2.091,2.751-3.136-2.063,2.091-5.172,4.209.358-.688-2.063,3.136-1.733,1.045-4.484-1.761-3.109,1.761-3.439,4.9,2.063,1.761-7.235-1.4-2.751,1.761-1.375-.027-4.181Z" transform="translate(361.287 -656.065)" fill="#d5e300" stroke="#fff" stroke-width="1"/><path d="M800.867,1258.7l-2.806.413-1.761,3.246,1.4,2.833,3.851-.413,2.806,3.246,1.4-2.008-.688-3.631-1.4-2.421-2.806-1.266Z" transform="translate(238.777 -750.448)" fill="#e3e898" stroke="#fff" stroke-width="1"/><path d="M685.8,845.588l5.584-4.814-.688-2.751h1.4V835.96l2.091,2.063,2.091-.358-.358-5.859,1.045-3.8,4.9-2.063-.688-3.109,3.136-1.375-1.045-1.045,2.091-.688,2.448-.358,1.045-2.063,2.091,2.421,2.091-.358,1.4,1.045,1.045-5.859,3.494-.358,1.045,1.375,4.209,1.733v1.733l2.806,2.751h3.136l.688-1.045h2.806l3.851,2.421,2.091,1.045-2.091,1.375.358,3.109,1.4,2.751-1.045,2.421-.358,2.063L739.966,838l-3.851.688-1.4-1.375-1.045,1.045,1.4.688.688,6.547L734,849.714l-1.761.358,1.045,1.733-2.091,3.439-2.806,2.063-1.761-1.375-3.494-4.126-.358,1.733-2.091-.358-2.806,5.859-1.761-1.375-1.4,1.045-2.806.688-2.091-2.063-2.806.688v-6.877h-4.9l-2.806-1.045,2.448-2.751-1.761-2.751-1.045-.358-2.091,3.8-1.045-2.063-2.806,1.375-2.448,1.375-4.759-3.136Z" transform="translate(318.88 -428.227)" fill="#d5e300" stroke="#fff" stroke-width="1"/><path d="M624.936,515.312l-.358-2.421-5.584-1.375-4.9-1.733.688-2.063-1.761-2.063-1.761.358-.358-2.063-1.761-2.421-1.045-2.751,2.448.358V497.4l2.091-1.375L613,494.3l-2.448-2.063-.688-2.421,1.761-2.063.358-2.751-2.806.358-1.045-2.063,2.806-2.063.688-4.814,1.4,1.733,1.4-1.375V471.6l2.448,2.063,3.494,2.063,1.761,1.045,4.539,1.733,3.851,1.045,5.254.688,3.851,1.733h2.448l1.045,1.733v3.109l.358,3.8-.688,2.421L647,495.093l-1.4,2.421-3.494-.688-2.448,3.439L641.744,502l-1.4,2.063,1.045,2.751,2.448,1.375-1.4.688-2.091-.688.358,1.733,1.761,1.375-1.761,3.439-4.539-.358L633.353,513l-3.851-1.733-4.567,4.044Z" transform="translate(375.205 -179.874)" fill="#d5e300" stroke="#fff" stroke-width="1"/><path d="M693.959,599.81l-3.136-1.375-2.806-5.859,1.4-1.375v-3.439l-3.494-5.172.688-2.421,2.448-.688-5.254-2.751-2.091-2.063-2.806-4.814.358-2.063,2.091-2.421v-1.733l-3.136-4.484.358-5.859-3.136-.358-1.045-2.751,3.494-.688,3.136.688,3.136-3.8v-3.439l1.761-1.045,2.448.688,2.448-3.109-2.448-1.733v-2.063l2.091.688,2.091-.358-2.806-1.375-1.4-3.109,1.4-2.063-1.761-1.733,2.448-3.439,3.494,1.375,1.4-2.751-2.806-1.045-1.4-1.733v-8.61l-.358-1.375,1.761-.358,1.761,1.375h3.136l1.045,2.063,7.345,1.375,3.494-1.375,4.209-1.733,4.539.688,1.761-1.045,2.806,1.375,2.448-2.063,1.761,1.045-.688,1.733-1.761,4.814-.358,2.751-1.761,1.375,2.806,3.109-.358,2.063-2.448.358-1.4,2.063-.688,2.751-1.4.358-1.4-3.8-1.045,1.375-2.091-.688-1.045.688,2.806,2.063.688,2.751-.688,2.063h.688l1.761,3.439h2.448l-.358,3.8,1.761,1.375-1.045,1.375H723.7l2.448,2.063,3.494.688,1.4-1.045,3.136,1.045-.688,2.063-1.761-.358.688,2.421,1.4.688.688.688-1.761,2.063-.358,3.439L735.2,563.5l2.448,1.375.688,4.484,2.091-1.375.358,1.375,2.806,1.733.688,1.375-2.091,3.439-2.448,2.421-2.448-1.045-1.4-2.421-2.091,4.126-1.4-2.751-2.091,3.8-2.806.358-2.448-2.063h-3.136l-1.045,2.751L724,583.5l3.494,2.063-.358,4.484-1.761,1.375-.358,3.109,1.815,3.906,1.045,2.063-2.448-.688-3.136,1.375H718.8l-2.806-2.063.358-2.063-4.9-1.733-.358-1.375-3.494-.358-1.4,5.5-1.4-.688-1.761.688-2.091-2.421-1.045,2.063-5.942,1.073Z" transform="translate(327.144 -207.565)" fill="#d5e300" stroke="#fff" stroke-width="1"/><path d="M853.523,752.253l-3.851-3.439-1.045-3.8-.688-2.063-.358-2.751,2.448-1.375.358-4.484L843.4,729.53l1.045-1.375v-1.733l2.806.358,2.806,2.421,2.448-.358,2.448-3.439,1.761,1.733,1.4-3.439,2.806,2.421,3.136-1.375,2.448-3.439,1.761-2.751,7.7-1.375-4.9.688,3.851-.688h4.539l2.448.688,3.494-2.421,3.494.688,1.4,2.421,3.851-2.421,2.091-1.733H900.1l-.688,2.751,3.136,3.439v2.421l-1.045,1.733-.358,1.045-4.9,2.751,2.806.688.688-1.045,2.448.688,1.4,2.751-.358,1.733-2.448,1.375,3.494,2.421.688,2.063-2.448.358-1.045,1.375,1.761,1.375v2.063l-2.448.688-4.209.358-1.045,1.733,2.091,1.045.688,1.375-1.761,1.045-4.209,1.045-4.209,1.045-1.045,2.751-4.539-.358-3.494,3.329v1.045l2.091,2.421,2.806.688.688,2.421-.688,1.733-1.761,1.375s2.091,1.045-.358,1.733a20.023,20.023,0,0,0-3.136,1.045l-1.761-1.733-1.045-2.421-3.136.358-2.091-2.421h-2.806l-.358-2.751,2.091-1.733-4.209-1.045-1.045-2.751-2.448-.358-1.761-3.439-2.091-2.063-.99.33-.688.688-2.833.688Z" transform="translate(204.634 -355.881)" fill="#d5e300" stroke="#fff" stroke-width="1"/><path d="M845.385,572.673l-2.806-1.045-.358-2.421-2.448,1.045-.688-3.439-3.136-1.733-1.761-2.421-.358-3.439,2.448-2.421-3.136-1.733v-2.036l1.4.358,1.4-2.063-3.851-1.375-.688,1.375h-3.494l-2.448-2.421h-3.136l1.4-1.733-1.4-1.375v-3.439L819.884,542l-1.4-3.8h-1.045l.358-1.375-.358-3.109-3.136-2.063h3.851l.688-1.733,1.4,4.126H822l.688-3.109,1.045-1.733H825.5l1.4-2.751-3.136-3.109,2.091-1.045-.688-2.063,1.4-2.421,1.761-4.126,2.806.358,1.045,1.045,5.942-3.8,2.091,3.109,9.078.358,1.045-1.045,2.806,1.375,4.539-3.8.358,1.733-1.045.358-.358,6.547,1.4,1.375-.688.688-2.091.358-.688,1.733,2.806.688-1.4,1.733-.358,3.439,1.761,3.109V537.9l4.181,1.045,2.806,2.751,6.63.358,1.761,2.751v3.109l1.4,2.751,1.4-2.751,1.761-.358,1.4,2.421-1.045,2.751-2.448.688v3.439l1.761,1.045,2.091.358,2.806,1.045,1.4,1.733,1.045,1.375-2.091,2.421-2.806,2.063-3.851.358-5.942,3.8-1.045-1.733-4.181-1.045-3.136,2.063-2.448-.358-4.9.358h-4.181l-4.374,2.338Z" transform="translate(225.729 -208.652)" fill="#d5e300" stroke="#fff" stroke-width="1"/><path d="M1058.2,740.6Z" transform="translate(48.924 -374.874)" fill="none" stroke="#000" stroke-width="1"/><path d="M983.914,566.153V563.4l4.9-4.126-2.091-3.439-4.539-1.375-2.448-1.375.688-3.109,2.091-1.045,1.045-2.421-1.4-2.421-1.045-.688-2.448,3.439-1.4-2.421.358-2.751-2.091-3.109-5.942-.688-2.448-3.109-4.9-.688v-4.484l-1.4-3.109v-3.8l1.761-1.733L959.1,519.91l.688-1.375,3.494-.358-1.761-2.063.688-6.547.688-1.733,5.584-1.045h3.851l4.9,1.045,9.436-1.733,8.748,4.484,1.4-1.733,4.209,1.375,4.539,2.751h3.136l1.4-1.375,2.448.688,5.254-2.751v2.751l1.761.358,1.045,2.063,5.254-1.375,2.091.358-.688,2.063,2.806,2.421.358,3.109-1.761,2.063v1.045l3.851,3.8-.358,1.375-1.045.358v1.045l2.091,1.045v2.751l-2.091,4.126v1.045l2.091,2.751-3.494.688-1.761,2.063,2.091,4.484-2.091.688,2.091,3.109-3.136,6.19-5.254-.688-.358,1.733,1.045,1.045-1.4,1.045-1.4-1.733h-2.806l-4.539-1.045-1.4,1.375,1.4,1.375-2.448,2.063-4.9-3.8-.358-2.063-2.806-.358-3.136,2.751-3.136,1.733.358,2.751-.688,1.733-2.091-1.375-3.136,2.751-2.806.688-3.136-3.741Z" transform="translate(120.762 -204.883)" fill="#d5e300" stroke="#fff" stroke-width="1"/><path d="M1202.488,564.648l3.851-6.547-2.448-3.109,2.091-.358-1.761-4.814,2.448-2.063h2.806l-2.806-3.439,2.448-4.126.358-3.439-2.806-1.733,1.76-1.733-3.494-4.126v-1.375l1.4-1.375v-3.439l-2.806-2.421.358-1.733-2.091-1.733,1.045-1.733h1.045l3.136,1.045,2.091-2.421,10.481.358,6.3-1.045,2.448,2.063,2.091-2.751h5.584l3.851,1.375,3.136,3.8,1.4-.358,1.4,1.045,1.4-.688,2.448,1.375v1.733l1.76.358,4.209,2.063,2.806.688,1.045-1.045h1.4v2.751l3.851,1.045,3.494,2.063-.688,2.063,1.4,3.109,3.136,1.045-1.4,1.733,3.136.358,1.4,2.063-.358,5.172h-1.4l-1.4-.688-2.091,2.063-4.181-.358-5.942-1.045-3.494,1.045-2.806,1.733,2.448,2.751-.358,2.421-3.136,5.859h-2.448l-5.254.688-1.4-2.751h-1.761l-.358,2.421-1.4,4.484-3.494,2.751-1.761.688-4.209,1.045-1.761-1.375-2.091,1.375-2.448-.358-1.045-1.733-2.448,1.375-1.761-1.733-2.091,2.421-2.806,3.8-5.584.358-1.045-2.421-3.494-.358,1.4-2.063-2.751-2.091Z" transform="translate(-55.173 -209.595)" fill="#d5e300" stroke="#fff" stroke-width="1"/><path d="M1034.715,739.284l2.091-.688-1.4-2.063-1.4-.688.688-2.063,4.209.358,2.448-1.045v-2.421l-1.4-1.733,2.448-.688-.358-2.063-2.448-2.751,1.4-1.733.358-2.421-.688-1.375-1.76-1.045-2.091,1.045-2.448-1.045,4.9-1.733,1.761-4.814,3.494-2.421,2.448-2.421,2.448,2.751,1.045-2.063-1.045-2.421,2.448-3.439,4.539-1.375h1.761l2.448,2.063,2.806,4.126,1.761-2.751v-1.045l1.761-1.375,1.4.688,5.584-.688,1.4,3.109,1.761-.688-1.4-1.733V698.9l4.539.688,4.209,1.045-2.091,3.109,3.494.358.688,1.733-2.448,2.751-2.448-1.733-2.091-.358-1.045.688,2.091,3.439,2.091,1.375h-2.091l-2.448,1.733-.688,5.5-.688,9.986,2.091,5.859-2.091,5.859-1.4,1.045v1.045l1.761,1.375v1.375l-1.4.688V753.7l-4.539,2.751-4.9.688-3.136-2.421h-3.851l-3.494-1.733h-3.136l-.688,2.063,2.091,2.751-.688,2.421-1.761,2.421-1.045,3.439-5.254-1.375v-2.421l1.045-.688-.688-2.751-2.806-5.859,3.494-1.045-2.806-1.375v-4.126l3.851,1.045v-2.063l-3.136-1.375,4.9-3.439v-2.063l-3.136-.688-3.136,5.5-2.806-2.063-5.364-2.008Z" transform="translate(66.467 -344.645)" fill="#d5e300" stroke="#fff" stroke-width="1"/><path d="M1187.8,722.2l2.448-6.547-2.448-5.5,1.761-15.845,2.091-1.375,3.851.358-2.806-1.375-3.494-4.126,1.76-1.045,2.448.358,2.448,2.421,2.091-2.751,5.254.358,5.584-6.877,1.761,1.733,2.091-1.045,1.045,1.733,3.494.358,1.4-1.375,1.4,1.375,4.9-1.045,4.9-2.751,1.76-7.235h1.761l1.045,2.751,4.9-1.045h3.494l-.688,2.421L1241,678.547l-2.448,4.484-1.045,6.19-5.254,3.439-.688,6.19,1.761,2.421v2.063l-2.448,4.814h-4.539l-6.987-1.045-2.806.688,2.806,2.421.688,2.751-1.761.688-.688-1.733-.358-1.375-2.091-.358L1212.7,712.6l1.4,1.375v7.538l-1.76,2.063-.688,6.877H1209.2l-1.761-3.8-2.806-2.421,1.4-1.375-2.806.688H1200.1l-1.045-2.063-2.091.358h.358v6.547l1.4,2.063-1.76,1.375-1.761-.688-1.045-1.733-3.136-2.063L1187.8,722.2Z" transform="translate(-45.024 -325.145)" fill="#d5e300" stroke="#fff" stroke-width="1"/><path d="M840.8,879.384l3.494-3.109,1.4-2.063-1.4-2.421h2.091l1.4-3.8v-3.8l-.688-3.439-1.761-1.045,1.4-1.045,1.761,2.063,3.136-.688h1.045l-2.091-2.421,1.045-4.484-1.045-2.421v-3.439l1.4-1.375,2.091.358,2.448-2.063,3.136,5.172,2.448,1.045,1.761,2.751,3.494,1.375.358,1.045-2.091,1.045L867.4,858.7l-2.448.688,3.851-.358,2.091,2.421,3.136-1.045.688,3.439,2.091,1.045-.688,1.045-2.091,3.439,1.045,3.109-1.761.688-2.091,5.5-1.4,1.045-.688,1.733-.358.688-4.539-.358-2.448,1.045H859.7v-.688l-2.448-.358-1.045.688-.358,4.484-2.091,3.439-3.136-2.751-.358-1.733-.688,2.421-2.806-.688-1.045-1.045,2.091-1.045-1.045-2.421-2.448,1.045-.688,1.733-1.045-2.063,2.448-3.439-4.236-1.018Z" transform="translate(206.519 -449.974)" fill="#d5e300" stroke="#fff" stroke-width="1"/><path d="M797.6,1083.5Z" transform="translate(237.835 -623.444)" fill="none" stroke="#000" stroke-width="1"/><path d="M789.336,982.673l-3.136-4.814,8.033-2.751-4.181-9.986L791.1,962.7v-3.109l2.448-6.547,2.091.688.358-1.733,4.181,5.172,4.9,2.063-2.448,2.421.688,2.063,3.851-2.421,1.4,1.733-2.448,2.421,3.494,1.045,4.209,1.375-.358,1.375-1.045,3.109-2.448,2.063-.688,3.109-2.448-.688h-1.761l-.688,2.421V982.7l-4.539,2.063-1.761,1.733-1.761,2.063-2.806-.358v-2.063l-2.448,1.733-2.091-1.733.358-3.466Z" transform="translate(246.099 -528.119)" fill="#d5e300" stroke="#fff" stroke-width="1"/><path d="M886.6,897.031l-4.209-1.733v-1.045L878.9,891.5l1.045-2.751,3.136-3.8.358-4.814,2.448-1.375,1.045,1.375h3.136l1.045-1.045,5.942.688v-2.421l2.091-.688,1.4-5.859,2.806-.688-1.761-3.109,3.136-4.484,3.851-1.733-.358-1.375,2.091-2.063-.688-3.439-2.091-.358-2.091-3.8,2.806-3.439,4.9.688,1.761-2.751,5.942-2.063,5.942,1.733L929.93,846l3.851-5.5,2.806.688v2.063l-4.539,3.109,2.806,1.733v1.733l-3.494-1.045L931,852.907l2.091,1.375-2.448.688,1.761,5.5,1.761,2.421v1.045l-1.4.688v3.8l-3.851,1.733,1.4,3.439-2.806.688-2.091,4.126,2.091,2.421.358,1.733-1.761,1.375-.688,2.751,1.4,2.751-2.091,2.751-1.4-1.045h-2.448l-1.761,1.375.358,4.126,1.761.688,1.045-1.375,1.045.688v4.484h-1.4l-2.448-2.063-.688,1.045-2.806-2.751v-2.751h-1.4l-.358-1.375-2.806-.688,1.761-1.375-3.851-3.109-5.584-.358-2.448,2.063h-4.209l-1.761.358.688,2.751-3.136.688-3.851-2.751-2.091,1.375.358,1.045,1.045,1.045-1.733,2.751Z" transform="translate(178.9 -447.292)" fill="#d5e300" stroke="#fff" stroke-width="1"/><path d="M703.5,1069.765l1.486-5.364,2.971,1.458,1.981-2.421v-4.374l2.476-5.364,4.952,1.458,4.952,3.411-1.486,4.869,2.971.5,1.485-5.364,5.942,3.906,4.952.963.99,2.421,1.981,1.458v3.411l-.5,2.916-2.476,3.906-.99,3.906-3.466-3.906h-6.437l-4.952-1.458h-3.961l-4.456-.963-8.418-5.364Z" transform="translate(306.049 -601.842)" fill="#d5e300" stroke="#fff" stroke-width="1"/><path d="M773.6,1142.2l8.913,1.953-.99,4.869Z" transform="translate(255.233 -665.996)" fill="#d5e300" stroke="#fff" stroke-width="1"/><path d="M828.9,1079.421l.743,1.6,1.238,2.063.605,3.769,4.814-2.063,4.567-1.21-2.091-3.906-2.228-3.769-4.456.248-3.191,3.274Z" transform="translate(215.145 -617.935)" fill="#d5e300" stroke="#fff" stroke-width="1"/><path d="M859.6,1043.25l-.358,3.274,2.091,2.668.605,1.6,1.348-.248,1.843-2.806,2.091-3.521-.99-2.558.11-2.916-2.008-2.338-2.091,3.934-3.329-.853-.11,2.558Z" transform="translate(193.47 -589.301)" fill="#d5e300" stroke="#fff" stroke-width="1"/><path d="M871.946,1034.03l3.081-5.612,1.1-1.706-1.486-2.421.5-4.126,3.961,1.706,1.733-2.558-.853-1.458-.248-1.1,1.6-.963,4.071,2.668,3.081-.853-.358-2.558,1.843-.5,4.071.11,2.228-2.063,5.309.358-.853-.248,3.081,1.706,1.843,1.6-1.485,1.21,2.586.853.5,1.21h1.348l-.248,2.668,2.833,2.668.605,1.21-.11,3.164.853,2.063,2.833,2.916-.11,1.953,1.733.605-.853.743.11,1.458,3.576,2.806,1.843,5.969,1.843,5.969.3,2.063-.44,1.485.248,1.21,2.476,1.348-.99.853-.11,1.1.853,1.816.743.963-.248,1.21.5,9.381,1.238,1.6,1.348,2.668-.358,3.053-2.723,1.6-3.466-1.816-2.971.11-4.456-.605-2.228-1.458-2.228-.11L908.4,1081.4l-.853-.605h-2.476l-3.219-1.6-1.6-2.806-.11.248-1.981-.11-1.348-1.953,2.338-.605,1.485-2.063-.248-4.264,1.6-2.668-1.843-1.706-.358-2.668-2.228-2.668-.99-2.2-3.714-2.668-.5-2.421-2.586-1.706-.99-4.759-4.952-1.348-3.576,3.054-1.348-.853-1.348,2.806h-1.486l-3.329-1.816v-2.311h-.11l-1.6-1.706L868.7,1039.7l1.981-1.1-.11-2.311,1.375-2.256Z" transform="translate(186.294 -572.048)" fill="#d5e300" stroke="#fff" stroke-width="1"/><path d="M834.3,1159.993l-3.494-5.859-1.4-3.439,1.761-4.814,2.448-4.126,3.136-3.439,1.045-3.439-1.4-2.751v-2.421l-2.448-1.375-2.448-.688v-2.421l-2.091-1.045,1.761-3.439.688-3.439.358-2.751,3.494-1.045,2.448-1.045,2.091-.358,3.851,3.439.358,2.421,3.851,1.733,1.761-2.421,1.4,1.375,3.494-4.484,5.942,1.733.688,4.484,3.136,2.063.358,3.109,3.494,3.109,3.136,4.126-.358,2.421,2.806,2.421-2.091,2.063.358,4.484-1.045,2.421H868.9l-1.4.688-2.091-1.375-3.851.358-1.761-2.751h-1.761l-2.091,1.045L854.9,1148l-.688,2.421-4.9,1.733h-1.761l-3.494,2.063h-.688l-1.045-2.063h-1.045l-1.045,1.375-.358,3.439v1.733l-2.091,2.421-3.494-1.128Z" transform="translate(214.783 -644.176)" fill="#d5e300" stroke="#fff" stroke-width="1"/><path d="M857.4,1242.378l1.045,3.439,4.539,1.733.688,2.751,1.4,2.751,4.539,3.8,1.761,6.547,3.136,7.235,1.4,5.5,6.3,6.19,2.091,3.8,4.9,1.733,5.584-4.126-1.045-4.814-3.851-6.19.358-2.063-5.584-8.253-.358-5.5,3.494-1.733,1.045-4.126v-5.859l-3.494-2.448L881.141,1241l-.358-1.375,2.806-1.045-1.4-2.421,1.761.358,3.494-7.923-2.091-1.045h-3.494l-1.4-2.751-3.851.688-2.091,6.877-5.584,1.733-.688-.688-4.539,2.421-1.4-2.063h-1.045l-1.045,1.045v6.547l-2.806,1.018Z" transform="translate(194.485 -725.874)" fill="#d5e300" stroke="#fff" stroke-width="1"/><path d="M604.778,1400.7l-.688-5.172L602,1392.778l.358-5.172,2.806-4.814-.688-3.109V1374.9l2.448-2.751h1.4l-1.761-1.733-4.181-6.547,4.9,2.751,3.136,2.751-.358-3.109-1.4-3.8,1.761-2.421-1.761-4.814v-5.172l-1.4-1.375-4.9-.688-.358-3.8,5.584-2.063v-5.859l-.358-1.375.688-1.045.358-2.421,5.254.688,1.761-2.421h.358l2.448,3.109-.358,3.439H619.5l2.091,3.109h2.091l.688,2.063,5.254,1.045,2.448.688-.358,1.733-1.4.358v1.733l-2.448,1.733-.688,2.751-3.851,2.421,2.091,2.063v2.751l-3.494.688v6.877l5.584,1.045.688.688-.688,1.733-3.494,3.439-2.091-1.733-1.761,1.045-2.091-1.045.358,4.126-2.091,3.109.358,2.751,2.091-1.045.688,4.126-1.045,2.063-1.045,4.814-2.448,4.484-2.448.358-4.209,4.484Z" transform="translate(379.627 -801.916)" fill="#d5e300" stroke="#fff" stroke-width="1"/><path d="M656.448,1405.844l-1.761,1.375-.688-2.751,2.448-3.109-1.045-5.172,2.091,2.063,2.448-1.375,1.4,1.375,4.181-2.751.358-2.063L660.3,1391.7l-.358-6.547,3.494-1.045v-2.421l-2.448-2.751,3.851-2.063.358-2.751,3.136-1.733-.358-1.045,1.761-.688.358-1.733-2.448-1.375,2.448-2.063,1.4-.688.688,2.063h2.091l1.4-.688,2.806,3.109-1.045,1.375-.358,1.733.688,1.045h2.091l1.045,1.733,5.942,1.045.358,1.375-1.761.358-1.045,1.733,3.851.688.358,1.733-3.136.688s.688,2.063-.688,2.063a5.039,5.039,0,0,1-2.806-1.375l-1.045,1.375-2.091-.358-1.045,2.063-.688,2.063-2.448,1.045-3.851,2.421-2.448,1.733-.358,2.421-.688,4.126-2.806,1.733-1.4,3.109-1.761,2.063-4.9-1.431Z" transform="translate(341.932 -827.36)" fill="#d5e300" stroke="#fff" stroke-width="1"/><path d="M667.39,1318.659l4.539-2.421,4.539-2.063,1.4-3.8h2.091l.688-1.045,4.181,1.045.688-2.421h2.448l-.358-2.063-4.181-.688,1.045-2.063,1.761.358-.358-1.733-5.584-.688-1.4-1.733-2.806-.358.358-2.063,1.4-1.045-3.136-3.8h-2.448l-1.4-1.733-4.539,2.751-5.584-1.045-.358-1.375h-1.4l-2.091-3.439h-2.448l.358-3.439-2.091-2.751v-4.126l3.136-3.439.358-1.733,3.136-1.733.688-1.733,3.136-.358V1263.8l4.209.358,1.4-2.063,1.761.688-.358,8.253,4.9,2.063,2.806-.688,1.761-1.045,2.091,1.375,1.045-2.421,4.209-2.063,4.9,1.045,4.9,2.751,3.494,3.109,4.181,1.733,4.209,1.733,3.136,2.751,2.091,4.814-2.091,2.421-3.494,1.733-5.942,4.126-3.136,3.109-.358,2.421-4.209.688,2.448,3.8-1.045,2.751.358,3.109,1.4,2.063-4.209.358-3.851,2.063v2.421l-.688,2.421-2.448-.688-2.091-.358-4.539-2.063-2.448,1.375-.358,1.733-4.209,1.733-.358-3.109-5.227.358Z" transform="translate(342.874 -752.912)" fill="#d5e300" stroke="#fff" stroke-width="1"/><path d="M639.744,1462.258l4.952.5-.5,2.421,4.952-1.458v-.963l2.971-1.953,3.466,1.458-.99,3.906-3.466.5-3.466,4.869,1.485,3.906-.99,2.916-4.952.963-1.981,3.411-.5,3.906,1.486,1.953,4.456-4.374,2.476-.963,1.981.963,8.418.5.5,3.411-4.952,4.869-1.486,2.916,3.466,1.953v2.916l-3.466,5.832-2.971,3.411v7.29l-4.952,5.832.5,5.364-4.456,1.458-3.961,2.421-4.456-.963-3.466-2.916-6.437-1.458,1.485-2.421-1.981-2.421s-1.981-5.364.5-5.364,5.942-1.953,5.942-1.953l-3.466-1.458-3.466-.5.5-4.869,2.476-2.916-1.486-2.421-1.485,3.411-2.476.5-.5,3.411,1.486,1.458-2.476,2.916-3.961-6.327-.99-4.869v-6.877h0l4.952-2.421,2.476-2.916,1.981.963,3.466-7.29,1.486-3.906-.99-4.374,4.952.5,3.466-4.374,2.971-1.953.5-3.906.99-4.4Z" transform="translate(371.29 -896.952)" fill="#d5e300" stroke="#fff" stroke-width="1"/><path d="M728.56,1483.532l.99-4.869-3.466-1.953,5.447-5.832,1.486-1.458-.99-3.906-7.427.5-2.476-1.458-6.932,3.906-.99-2.421.5-4.869,6.437-1.458.99-2.916-1.981-4.374,3.961-4.374,2.971-.5,1.486-3.906,4.456.5,1.486-4.374,6.932-1.953.5-3.411,3.466,3.411,2.971,3.906-.5,4.869,3.961,1.458,2.476,7.785-3.466,1.953v4.374l-2.971,5.832-1.981,5.364-.99,2.916.99,6.822-8.913,2.916Z" transform="translate(298.292 -877.814)" fill="#d5e300" stroke="#fff" stroke-width="1"/><path d="M750.923,1621.8l4.952,2.421,2.476,2.421.5,3.906-1.486,4.374-2.476,3.411-5.447-2.421-1.485,3.411-1.486,4.869L743,1645.651l.99-5.364,1.981-3.906v-4.347l1.981-3.906,2.971-6.327Z" transform="translate(277.415 -1013.662)" fill="#d5e300" stroke="#fff" stroke-width="1"/><path d="M807.7,1623.016l4.456-2.916,1.485,2.916-.5,3.411-2.971,3.411-2.476,2.421v-9.243Z" transform="translate(230.513 -1012.43)" fill="#d5e300" stroke="#fff" stroke-width="1"/><path d="M811.842,1660.8l-4.456,4.374-1.486,4.374,3.961,1.953,2.971-3.411-.99-3.411V1660.8Z" transform="translate(231.818 -1041.933)" fill="#d5e300" stroke="#fff" stroke-width="1"/><path d="M826.376,1432l4.456-4.869,3.961-5.832.5-8.776-.5-6.327-1.981-5.364-1.981-5.364V1390.1l-3.466-2.916-3.466-3.906.5-4.374,2.971-4.869,4.457-2.421,1.981-2.421,6.932-.5,1.485,5.364,2.971,10.7,4.952,5.832,3.466,4.374,1.981,2.916-.5,5.364-1.485,1.458v6.327l-1.981,4.374-1.018,3.439-.99,4.374v7.785l-3.466,2.421-1.981,3.906-5.942,1.953-.5,2.916-2.971,1.458-3.961,2.421a2.436,2.436,0,0,1-1.486-2.421,10.444,10.444,0,0,0-1.486-4.374l2.476-3.411L826.376,1432Z" transform="translate(218.77 -830.188)" fill="#d5e300" stroke="#fff" stroke-width="1"/><path d="M843.7,1664.111l2.476-3.411,2.971,3.906-1.981,1.953Z" transform="translate(204.417 -1041.861)" fill="#d5e300" stroke="#fff" stroke-width="1"/><path d="M948.757,1515.6l-1.981,6.327-2.476,7.29v6.822l4.952,5.364v-12.654l2.476-6.327.5-3.411-3.466-3.411Z" transform="translate(131.491 -936.677)" fill="#d5e300" stroke="#fff" stroke-width="1"/><path d="M866.786,1646.6l-1.486,3.906h4.952Z" transform="translate(188.759 -1031.64)" fill="#d5e300" stroke="#fff" stroke-width="1"/><path d="M948.594,1268.122l2.806-3.439,1.4-5.5L950,1255.742l-4.9-3.439.688-3.439,4.181-7.565,5.584,2.063,5.584,4.814,5.584-2.063,3.494.688,7.7,2.063.688,2.751-.688,3.439v2.751L975.828,1264l6.3-.688h3.494l-2.806,4.126v3.439l1.4,4.814-4.209-2.063L975.8,1275l-7.7-.688-4.209-2.751-2.091,2.751a4.372,4.372,0,0,1-4.9.688c-2.723-1.375-7.62-6.19-8.308-6.877Z" transform="translate(130.911 -737.835)" fill="#d5e300" stroke="#fff" stroke-width="1"/><path d="M983.2,1393.8h7.7l3.494,4.126,2.806,4.814-2.091,4.126-4.9,2.063-3.494-.688-.688-6.19L983.2,1393.8Z" transform="translate(103.292 -848.383)" fill="#d5e300" stroke="#fff" stroke-width="1"/><path d="M1026.4,1378.8l9.078.688,4.209,3.439-.688,4.126-6.3-2.751-6.3-5.5Z" transform="translate(71.976 -837.51)" fill="#d5e300" stroke="#fff" stroke-width="1"/><path d="M1053.787,1424.9l-6.987-2.063V1413.9l5.584,2.751,2.091,3.439Z" transform="translate(57.188 -862.954)" fill="#d5e300" stroke="#fff" stroke-width="1"/><path d="M978.1,1466.4l9.078.688,2.806,6.19.688,5.5,2.806,3.439-.688,7.565-1.4,7.565-4.9,3.439-4.181,4.814-2.091-.688.688-6.877.688-7.565.688-6.877-.688-6.877Z" transform="translate(106.989 -901.011)" fill="#d5e300" stroke="#fff" stroke-width="1"/><path d="M1067.223,1241.148l-1.981-2.916.5-2.916,2.971-5.364-3.466.5-4.456-.963-1.486,1.458.99-3.906-.5-3.411.99-2.916-1.486-5.832,5.447,1.458,2.971-2.421,2.971.963,1.981-1.953-1.486-4.374-.99-2.916v-2.916l.99-3.906.5-3.411,4.456.963,2.971,4.869,2.971,5.832.99,4.374v3.906l3.466,4.869-.5,3.411,3.961,1.458-5.447.5.5,5.364h-3.961l-2.971,1.953-1.486,4.374-3.466,4.869v3.411l-1.981-.963v-2.421l-3.961-1.018Z" transform="translate(48.127 -704.562)" fill="#d5e300" stroke="#fff" stroke-width="1"/><path d="M1075.5,1374.1l4.457,1.458.99,3.411-1.485.5-3.961-5.364Z" transform="translate(36.383 -834.102)" fill="#d5e300" stroke="#fff" stroke-width="1"/><path d="M1086.3,1409.5l2.971,5.364,1.981,2.916v1.953l-.99.5-.99,4.869,1.485,5.364,4.457,4.869,2.971,1.458v2.916l.5.963h3.961l2.476-2.916.99-2.916v-2.916l-.99-2.916-7.923-13.15-.5-2.916Z" transform="translate(28.554 -859.764)" fill="#d5e300" stroke="#fff" stroke-width="1"/><path d="M1153.476,1370.7l-2.971-1.953-.99-5.832-.5-5.364v-1.953l-3.466-5.364-2.476-6.822-3.961-3.411-2.971-4.374-1.981-3.906v-1.458l-1.981-2.421-2.476-1.953-7.427-5.364,1.485-2.421-3.466-3.411.5-2.916,1.485-5.832,4.952-1.953h1.981l.5-4.869h3.961l3.466.963,1.981-2.421,5.942-1.458,2.971,1.458.99,2.916-1.981,3.411,2.476,3.411,2.476,4.869,2.476,4.374,1.981,3.411v-3.906h3.961l1.981,1.458v4.374l3.466.5.99,4.869.5,5.364,1.485,3.906-.5,3.411,3.466,2.421.99-2.421.5-2.421-1.486-1.953.5-4.374,3.961-1.458,3.961,4.374,3.466,8.28.99,5.832-3.466,6.327,5.447,3.906-.99,3.906-.5,2.421,1.485,5.832.5,2.421v2.421l1.485,2.421-.99,2.916.99,4.869,2.971,5.832-1.485,2.916-1.485,1.953,1.485,3.411-3.466.963-2.971-.963.99-2.916h-4.484l-2.971,2.916-5.447.963-2.971,2.916-4.952,2.916-.99-3.906,2.476-3.411-3.961-3.411v-4.374l-2.971-3.906-.99-6.822-2.476-2.421-1.458-7.7Z" transform="translate(3.907 -777.632)" fill="#d5e300" stroke="#fff" stroke-width="1"/><path d="M1288.2,1403.9Z" transform="translate(-117.805 -855.705)" fill="none" stroke="#000" stroke-width="1"/><path d="M1270.4,1388.8Z" transform="translate(-104.901 -844.759)" fill="none" stroke="#000" stroke-width="1"/><path d="M1231.077,1134.752l4.9-6.19v-4.814l2.091-6.877,9.793-6.877-2.806-13.094,6.987-3.439-1.4-6.19-3.494-8.941,1.4-5.5-4.9-4.814,6.987-8.253-8.39-18.6-4.209.688-4.9-8.253h-2.091l-2.806,2.751,2.806,11.691,1.4,7.565-2.091,2.751v4.126l-4.181-1.375-4.9,4.126-4.9,8.253-2.091,6.19,3.494,6.19.605,8.72-.853,2.228-2.558.083v2.063l-5.584,6.877,4.209,3.439-1.4,2.751.688,2.751,4.209,8.941,4.209,5.5.688-2.751,4.9.688.688,4.126,3.494,3.466Z" transform="translate(-60.682 -587.272)" fill="#d5e300" stroke="#fff" stroke-width="1"/><path d="M1342.187,1572.341l-2.806,3.439-4.9-2.063-1.4-2.751-4.181-6.19,2.091-2.751h3.494l1.4,2.751,4.9.688v-2.751l2.091-5.5-2.091-3.439-1.4-6.877-.688-3.439-1.4-6.877-1.4-4.814,1.4-6.877,4.209,1.375,4.181-2.063h6.987l4.209,2.751,6.3,3.439,3.494,7.565,3.494,9.628-1.4,2.751,4.209,8.941,4.209,11.691.688,3.439-.688,7.565v4.814l-.688,5.5.688,6.877,2.091,7.565.688,7.565.688,6.19,3.494,6.19-3.494,1.375-3.494,4.126-2.091-1.375-.688-3.439-2.091-4.814.688-2.751-2.091-.688-2.091,1.375-3.494.688-4.209-1.375-.688-2.751-2.806-6.877-2.091-1.375-2.806,3.439-1.4,2.751-2.806-.688-3.494,6.19-2.091.688-2.091,2.751.688,5.5-2.091,4.814-.688-6.877-2.091-5.5-.688-2.751,4.209-4.814,2.806,2.751,2.091-4.126-2.806-5.5-2.806-4.814,1.4-2.751-3.494-3.439-1.4-4.126-2.091-5.5,3.494-3.439h5.584v-4.126h3.494v-2.063l-4.237-4.814Z" transform="translate(-147.308 -942.911)" fill="#d5e300" stroke="#fff" stroke-width="1"/><path d="M1298.606,1456.651l-2.806-2.751" transform="translate(-123.314 -891.95)" fill="none" stroke="#000" stroke-width="1"/><path d="M1287,1138.249l-1.4-6.877,3.494-4.126,2.806-4.814.688-8.253,10.481-7.565-.688-4.126-1.4-7.565,6.3-4.814-1.4-5.5-2.091-8.941v-4.814l-4.9-6.877,6.3-8.253-2.806-6.877-4.9-12.379,1.4-2.063,5.584-5.5h3.494l2.091,3.439,1.4,5.5,1.4-4.814,1.4-2.751,3.494,1.375-2.091,4.814,1.4,4.814,1.4,3.439,1.4,12.379,3.494,4.814,2.091,4.126-1.4,2.751,2.091,2.063.688,2.751-4.9,3.439.688,5.5.688,4.814.688,3.439,2.806,3.439-2.091,11,2.806,5.5,5.584,2.751-1.4,3.439,2.091,8.253,4.181,4.126.688,5.5,1.4,6.877-2.091,1.375,2.091,6.877,1.4,8.253,1.4,6.877v4.126l1.4,5.5,1.4,5.5v6.19l-3.494-1.375,2.091,7.565,2.806,11,2.091,6.877-2.806,4.814-1.4-3.439-2.091-6.19-2.091-6.877-3.494-6.877.688-2.063-1.4-5.5-2.806-9.628-2.806-2.751-6.987-4.814-9.078-2.063-6.3,2.751-4.209-3.439-2.806-4.126,2.091-5.5-.688-5.5-3.494-6.877-4.209-6.19-2.091.688-2.806,4.126,2.091,5.5-1.4,2.751-2.806-3.439-1.265-7.565Z" transform="translate(-115.92 -583.864)" fill="#d5e300" stroke="#fff" stroke-width="1"/><path d="M333.608,1691.03l-2.971-.5-1.981-4.374-2.971-1.953,1.486-6.327-2.971-5.364,1.486-2.916,1.981,4.374,1.981,4.869v3.411l4.457,3.411Z" transform="translate(581.006 -1048.313)" fill="none" stroke="rgba(88,15,15,0.99)" stroke-width="1"/><path d="M98.7,486.48l-2.476-3.906,3.466-3.411-1.981-3.411-.5-5.364H91.767l-2.476-6.822-1.981-4.374-.99-8.775-3.961-7.785.5-4.869,5.447-1.953L86.32,431.9l-2.476-4.869-2.971-2.421L78.4,418.78v-4.374l-.5-3.411,1.981-3.411-2.476-6.327-3.961-5.364,2.476-4.374-3.961-3.411,2.971-4.374L71.465,377.9l4.952-8.775L72.95,366.7,70.475,362.8l.5-2.421-4.457-3.906.99-6.327.99-2.916-1.981-3.411,4.457-3.906,2.971-2.916,4.952-3.411-1.981-1.953-2.971,1.953-2.476-2.421-2.971-.963-5.942-2.421-.5,2.916H59.581l-4.457-1.953-1.486-2.916-1.981-2.916L55.124,319l1.981-3.411.5-5.832h2.476L58.1,305.854l-6.932-4.869-2.971-3.411-1.981-2.916H42.745v-3.906l-2.971-.963,2.476-3.906-2.971-1.458,2.971-4.374-1.981-2.916,3.466-2.421-.99-6.822,1.486-1.953,2.971,2.421,5.447-3.411,3.466-1.953-.99-4.374-1.485-4.869,1.981-3.906-3.961-2.916-1.486-7.785,1.486-2.421,2.476-2.421v-4.374l-1.981-4.374-1.486-2.421L47.7,225.554l-5.942.5-2.971-2.421L36.8,225.582l-6.85-5.887-6.932-2.916-5.942-5.364-7.868-2.448-4.457.5L2.279,206.05l-5.447-4.869.5-2.421-1.981-3.411-3.466-3.411-1.981-4.374,2.476-1.953.99-5.832,3.466-.963v-1.953l5.942-4.869-.5-4.374L-1.187,165.2l4.457-3.411,2.971.5,2.971-1.458v3.851l2.971,2.916,3.961,2.421,2.971-2.421-2.476-.963,1.486-3.906h4.952l1.981-3.906.99-2.916,2.476-.963-2.476-2.916,2.476-3.411-.99-3.906,2.476-1.953-1.486-2.421,3.466-3.906,4.952,2.448,2.971,1.458,1.981-2.421h4.457l5.447-1.458,5.942,2.916,2.971.963,3.466-3.906,5.942,4.374,2.971-.5v-2.916l1.981-5.364,3.961-1.458.5-2.916-6.932-.963H70.117l-.99-3.411-1.485,1.953L63.1,120.854l-1.485-4.869,1.485-4.374L60.626,108.2v-3.906l-1.981,1.953-1.981-2.421V108.2H54.684l-3.466,2.421H47.257l-.99-2.421-2.971.963L41.81,107.21l-3.961.963-1.486-.963-3.934-3.879.5-2.421-3.961-.5L26.982,97l.99-.963V92.134H24.507L21.04,88.228l-.99-2.421-2.971-.5L15.594,81.9,11.66,80.443V77.032L6.708,80.443,4.727,78.49,2.252,80.911.271,79.948-3.69,75.574l.99-2.916L-4.681,71.2V66.331l2.971-1.458V61.462L3.242,58.05l.99-2.916L2.252,52.219l1.981-6.327L7.7,44.929l.99-3.411H11.66l4.952-1.458,3.961-2.916L18.1,34.227l2.476-4.869h2.971l3.961-4.374,2.476-2.421,2.476,1.953,2.476-.963-2.476-2.916-.523-3.961-1.486-2.421-3.934.963-1.981-1.953L22.058,12.3l-1.981,3.411L18.1,14.751l-.5-4.4,3.466-3.906V2.564L26.02-2.8l.99,5.364V6.471h4.952l.5,2.916,2.971-.5-.5,2.916H38.4l1.486,2.421,3.466-1.953.99,3.411,4.952,4.374,2.476-.5.5,5.364,4.457-.5V29.3h4.456l.99,2.421-.5,2.916,4.952,3.411.5-3.411.99-3.906,3.961.963,2.971,5.364L78.507,35.6l3.961.963,1.485-2.421-1.981-2.421-1.981-1.953-2.971.963-.5-2.421.99-1.953-1.486-1.953-1.485,1.458L70.09,23.911,68.6,19.538l3.961-3.411,2.971-1.953,1.981,3.411,4.952,1.953,5.942.963.5,1.953-2.971.963,2.476,1.458L86.43,26.332l6.437,1.458-.99,2.421-3.961-.5v1.953l3.961,4.374.5,2.916-.99,2.421,2.476,4.374,7.427,2.421,1.981,3.411-2.476.963,6.437,2.421,2.971,3.411,4.952.963,2.971-4.869,1.485,2.916,1.981,1.953h4.952l1.981,1.458-.5,2.421,2.476.963,2.476-2.916L130.5,59.811,131,56.4l3.961-1.953,2.971-.5-1.651-5.639L133.8,51.723l-.5-3.906-1.485-3.411,3.961-3.411,1.981-4.374,3.961,1.458-.99,4.374,1.486,2.916,3.961-1.953,1.981,3.411,1.981,2.916,1.486,2.421-2.476,1.953,3.961,3.411v3.439h3.961L154.1,63.882h0l5.447,3.411-1.981,2.421-1.981.963-.99,4.374-1.486.963,2.971,6.327L154.1,83.3l-.99,2.916,2.476,1.458-.99,1.458,3.961,3.411-1.981,4.374,1.486,4.869-2.476,2.421.5,7.785L154.1,115.9l-.5,3.906-.99,2.421,1.981,1.953-.5,2.421,4.457,3.411,1.486-1.953L165,126.6l4.457,2.421,5.447,3.411,5.447,2.916,7.923,1.458,4.456,1.953,3.466.963,4.952-.963.99,4.374,4.952-.963,3.466.963s.99-2.421,5.447-2.421h10.4l2.971-1.458,2.476,1.953v.963l8.39-2.531,4.209,2.063,11.2.688,6.987-3.439h17.5l5.584-2.063,6.3,4.814,3.494-2.063,6.3,2.751,5.584,2.063,3.494-2.063,3.494-1.375,4.209,2.063,4.209,1.375,2.806-2.751,4.181-1.375,8.39,1.375,9.078-1.375h4.9l6.3-.688,2.091-1.375,4.9,4.126,4.9,2.063,2.806,4.126,5.584,1.375,3.494-1.375.688,2.751,8.39,4.814-.688,4.126,5.584,1.375V166.6l-.688,4.126h-8.39L384.3,172.1l-4.181-.688-4.209,2.063,2.806,4.126-4.9,8.253-2.091,5.5-2.091,3.439.688,4.126-2.806,3.439-3.494.688-1.4,2.751.688,4.126,2.806,4.814-3.494,2.751-6.3,2.063-4.9-2.063-2.091,1.375L352.142,223l-2.806-.688H346.53l-1.4,3.439.688,5.5-1.4,4.814-3.494,4.126-2.806-2.063-2.806-2.751-4.9-2.063-1.4,2.751,2.091,4.814-2.806,1.375-3.494-2.063-2.091-3.439-4.209-2.063.688,5.5-1.4,5.5-4.9,3.439-4.9-1.375-3.494-1.375-5.584-2.063L294.73,245l2.806,5.5-1.4,4.814-3.494,2.063-3.494-1.375s-3.494,1.375-4.9,4.126l-2.806,5.5,2.091,4.126-2.091,2.063-.688,7.565-4.209-.688-1.4,3.439,1.1,1.486,2.228,1.1.853,2.916-1.541,2.476-2.778,3.576,7.125,12.517,2.091,7.565,2.806,4.814,1.4,6.19,1.4,3.439v9.628l2.806,5.5,2.091,3.439,4.181-.688-2.091-4.126-.688-7.565.688-6.877,4.9,1.375,5.584,6.19v5.5l.688,4.814,1.4,6.877,2.806,5.5,4.181-2.751,1.4,2.063,4.9-2.751h3.494l5.584-7.565-.11-.963,2.228-.248.99-2.421-.248-3.164-.5-2.916v-2.421l-1.733-3.164-1.981-3.411,2.228-6.575,4.456-7.29,5.942-4.374L347,311.8l-.248-5.612,1.981-2.916L344.77,285l2.723-3.411h1.981l2.228,4.374,2.228,4.374,3.961-.743,1.733-2.916,3.219-3.411,2.971-2.421h2.971l1.733,2.668,1.733,4.869,1.238-2.916,1.981-3.411,1.981.963,1.238,1.21-1.238,1.458-.99,2.421.99,3.906.99,2.916,1.238,1.953.5,6.575v5.117l3.714,4.622,2.476,4.622-1.486,2.421,1.733,1.953,1.238,2.2-.5,1.458-3.961,2.916.248,1.953.248,5.364.5,5.364,1.238,1.953,1.733,2.668-1.238,7.538-.5,3.659,1.733,3.411.99,1.706,3.961,2.2,1.981,1.21-1.238,1.953.743,5.832,1.238,4.622,3.961,3.411.5,5.364,1.238,5.364v1.706l-2.228,1.21,2.476,5.364,2.723,16.065.248,5.612,2.971,10.7v5.612l-2.228-.743-1.733-1.21,1.238,3.659,2.971,11.939,1.238,5.612,1.486,4.374-2.476,4.622v5.117l-.743,3.659-.248,6.575v5.117l.5,4.622,1.733,7.07.5,3.411.743,5.364.248,4.869,2.971,5.364.99,2.2-2.723.963-4.209,3.906-1.486-.743-3.714-8.033.743-3.411-1.981-1.21-2.476,2.421-2.476.248-3.219-.5-2.228-1.706L388.1,505.1l-1.733-2.421-1.486-.743-3.961,6.08-2.476-1.21-2.476,2.916-1.238,3.906-3.219.963-1.238,2.421,1.486,5.612.743,4.456-3.466,3.824,3.219,5.117,3.026,3.274,1.926,3.3-2.476,3.659,2.723,5.749,1.238,4.236-.743,3.164,2.531,3.934.688,5.557,1.238,2.668.743,1.4" transform="translate(823.343 164.023)" fill="none" stroke="rgba(100,100,100,0.99)" stroke-width="1" stroke-dasharray="25 6.25 3.125 6.25"/><text transform="translate(976.865 673.685)" fill="#1292cc" font-size="12" font-family="Arial-ItalicMT, Arial" font-style="italic"><tspan x="0" y="0">BAY OF BENGAL</tspan></text><text transform="translate(1016.74 442.717)" font-size="4" font-family="ArialMT, Arial"><tspan x="0" y="0">Dhaka</tspan></text><text transform="translate(1085.444 480.871)" font-size="4" font-family="ArialMT, Arial"><tspan x="0" y="0">Cumilla</tspan></text><text transform="translate(1017.063 468.295)" font-size="4" font-family="ArialMT, Arial"><tspan x="0" y="0">Munshiganj</tspan></text><text transform="translate(1023.432 358.475)" font-size="4" font-family="ArialMT, Arial"><tspan x="0" y="0">Mymensingh</tspan></text><text transform="translate(1169.059 333.582)" font-size="4" font-family="ArialMT, Arial"><tspan x="0" y="0">Sylhet</tspan></text><text transform="translate(1161.85 500.165)" font-size="4" font-family="ArialMT, Arial"><tspan x="0" y="0">Khagrachari</tspan></text><text transform="translate(1056.353 571.549)" font-size="4" font-family="ArialMT, Arial"><tspan x="0" y="0">Bhola</tspan></text><text transform="translate(995.435 602.158)" font-size="4" font-family="ArialMT, Arial"><tspan x="0" y="0">Borguna</tspan></text><text transform="translate(904.261 544.074)" font-size="4" font-family="ArialMT, Arial"><tspan x="0" y="0">Shatkhira</tspan></text><text transform="translate(973.119 512.052)" font-size="4" font-family="ArialMT, Arial"><tspan x="0" y="0">Gopalganj</tspan></text><text transform="translate(932.011 476.369)" font-size="4" font-family="ArialMT, Arial"><tspan x="0" y="0">Magura</tspan></text><text transform="translate(875.887 459.424)" font-size="4" font-family="ArialMT, Arial"><tspan x="0" y="0">Chuadanga</tspan></text><text transform="translate(932.557 415.881)" font-size="4" font-family="ArialMT, Arial"><tspan x="0" y="0">Pabna</tspan></text><text transform="translate(858.675 371.395)" font-size="4" font-family="ArialMT, Arial"><tspan x="0" y="0">Rajshahi</tspan></text><text transform="translate(937.901 294.84)" font-size="4" font-family="ArialMT, Arial"><tspan x="0" y="0">Gaibandha</tspan></text><text transform="translate(917.544 226.538)" font-size="4" font-family="ArialMT, Arial"><tspan x="0" y="0">Lalmonirhat</tspan></text><text transform="translate(1188.786 546.354)" font-size="4" font-family="ArialMT, Arial"><tspan x="0" y="0">Rangamati</tspan></text><g transform="translate(1157.108 621.865)"><path d="M1239.9,1673.075l6.987-1.375,1.4,6.877-2.091,6.19-4.209,6.877.688-4.814.688-9.628Z" transform="translate(-1239.9 -1671.7)" fill="#d5e300" stroke="#fff" stroke-width="1"/><path d="M1262.452,1679.265l7.7-4.126,3.494-2.751,3.494-.688,4.9,8.253,5.584,2.751,2.091-.688,1.4-3.439,3.494,4.814v2.063h-3.494l-.688,4.814h-6.3l-2.806,3.439,2.806,6.877,5.584,5.5-2.091,3.439,3.494,5.5,2.806,3.439-1.4,4.814h-2.806l-.688-2.751-4.9,5.5,1.4,6.19,4.456,5.089.688,3.439-3.356,3.989,3.053,5.5,5.172,6.465-3.053,3.851,3.466,5.5,1.43,4.374-1.348,2.724,2.008,4.456,2.806,6.877-.688,3.439-2.091-2.063-2.806-7.565-3.494-4.126-2.806-4.814-2.091-4.814v-4.126L1275,1746.635l-1.4-11v-4.814L1271.5,1726l-4.209-5.5-.688-2.751,3.494-4.126.688-4.814,1.4-4.126,1.4-6.19-.688-7.565-2.806,6.19-3.494-2.063,2.806,4.814,2.091,5.5-3.494,6.877.688.688-6.987-.688.688,3.439h-4.209l-.688-3.439,2.091-6.19,1.4-5.5-3.494-2.751,4.952-18.541Z" transform="translate(-1252.658 -1671.7)" fill="#d5e300" stroke="#fff" stroke-width="1"/><text transform="translate(9.592 14.64)" fill="#d5e300" font-size="4" font-family="ArialMT, Arial"><tspan x="0" y="0">Cox&apos;s Bazar</tspan></text><path d="M1287.1,1744.075l6.987-1.375,1.4,6.877-2.091,6.19-4.209,6.877.688-4.814.688-9.628Z" transform="translate(-1274.116 -1723.168)" fill="#d5e300"/></g><text transform="translate(1085.901 528.983)" font-size="4" font-family="ArialMT, Arial"><tspan x="0" y="0">Noakhali</tspan></text><text transform="translate(1057.527 491.335)" font-size="4" font-family="ArialMT, Arial"><tspan x="0" y="0">Chandpur</tspan></text><text transform="translate(1023.73 579.365)" font-size="4" font-family="ArialMT, Arial"><tspan x="0" y="0">Patuakhali</tspan></text><text transform="translate(934.818 569.527)" font-size="4" font-family="ArialMT, Arial"><tspan x="0" y="0">Khulna</tspan></text><text transform="translate(989.284 543.961)" font-size="4" font-family="ArialMT, Arial"><tspan x="0" y="0">Pirojpur</tspan></text><text transform="translate(994.841 500.611)" font-size="4" font-family="ArialMT, Arial"><tspan x="0" y="0">Madaripur</tspan></text><text transform="translate(905.918 468.376)" font-size="4" font-family="ArialMT, Arial"><tspan x="0" y="0">Jhinaidaha</tspan></text><text transform="translate(865.936 443.361)" font-size="4" font-family="ArialMT, Arial"><tspan x="0" y="0">Meherpur</tspan></text><text transform="translate(981.233 435.816)" font-size="4" font-family="ArialMT, Arial"><tspan x="0" y="0">Manikganj</tspan></text><text transform="translate(1028.446 409.593)" font-size="4" font-family="ArialMT, Arial"><tspan x="0" y="0">Gazipur</tspan></text><text transform="translate(1072.649 436.142)" font-size="4" font-family="ArialMT, Arial"><tspan x="0" y="0">Brahmanbaria</tspan></text><text transform="translate(905.457 381.676)" font-size="4" font-family="ArialMT, Arial"><tspan x="0" y="0">Nator</tspan></text><text transform="translate(1114.904 331.781)" font-size="4" font-family="ArialMT, Arial"><tspan x="0" y="0">Sunamganj</tspan></text><text transform="translate(971.856 336.497)" font-size="4" font-family="ArialMT, Arial"><tspan x="0" y="0">Jamalpur</tspan></text><text transform="translate(903.082 313.389)" font-size="4" font-family="ArialMT, Arial"><tspan x="0" y="0">Jaipurhat</tspan></text><text transform="translate(888.542 228.032)" font-size="4" font-family="ArialMT, Arial"><tspan x="0" y="0">Nilfamari</tspan></text><text transform="translate(828.807 227.246)" font-size="4" font-family="ArialMT, Arial"><tspan x="0" y="0">Thakurgaon</tspan></text><text transform="translate(1116.475 384.834)" font-size="4" font-family="ArialMT, Arial"><tspan x="0" y="0">Habiganj</tspan></text><text transform="translate(850.969 195.099)" font-size="4" font-family="ArialMT, Arial"><tspan x="0" y="0">Panchagarh</tspan></text><text transform="translate(1059.254 334.925)" font-size="4" font-family="ArialMT, Arial"><tspan x="0" y="0">Netrokona</tspan></text><text transform="translate(986.944 382.87)" font-size="4" font-family="ArialMT, Arial"><tspan x="0" y="0">Tangail</tspan></text><text transform="translate(1153.8 581.731)" font-size="4" font-family="ArialMT, Arial"><tspan x="0" y="0">Chattogram</tspan></text><text transform="translate(1025.457 532.992)" font-size="4" font-family="ArialMT, Arial"><tspan x="0" y="0">Barisal</tspan></text><text transform="translate(950.003 504.697)" font-size="4" font-family="ArialMT, Arial"><tspan x="0" y="0">Narail</tspan></text><text transform="translate(1056.896 419.811)" font-size="4" font-family="ArialMT, Arial"><tspan x="0" y="0">Narsingdi</tspan></text><text transform="translate(945.287 447.32)" font-size="4" font-family="ArialMT, Arial"><tspan x="0" y="0">Rajbari</tspan></text><text transform="translate(817.997 349.859)" font-size="4" font-family="ArialMT, Arial"><tspan x="0" y="0">Chapainawabganj</tspan></text><text transform="translate(933.497 337.283)" font-size="4" font-family="ArialMT, Arial"><tspan x="0" y="0">Bogura</tspan></text><text transform="translate(868.261 257.899)" font-size="4" font-family="ArialMT, Arial"><tspan x="0" y="0">Dinajpur</tspan></text><text transform="translate(953.933 250.825)" font-size="4" font-family="ArialMT, Arial"><tspan x="0" y="0">Kurigram</tspan></text><text transform="translate(1154.019 372.355)" font-size="4" font-family="ArialMT, Arial"><tspan x="0" y="0">Maulvibazar</tspan></text><text transform="translate(1202.75 627.012)" font-size="4" font-family="ArialMT, Arial"><tspan x="0" y="0">Bandarban</tspan></text><text transform="translate(1116.686 518.547)" font-size="4" font-family="ArialMT, Arial"><tspan x="0" y="0">Feni</tspan></text><text transform="translate(1057.973 521.691)" font-size="4" font-family="ArialMT, Arial"><tspan x="0" y="0">Lakshmipur</tspan></text><text transform="translate(1007.041 553.13)" font-size="4" font-family="ArialMT, Arial"><tspan x="0" y="0">Jhalokati</tspan></text><text transform="translate(961.312 558.9)" font-size="4" font-family="ArialMT, Arial"><tspan x="0" y="0">Bagerhat</tspan></text><text transform="translate(912.404 504.435)" font-size="4" font-family="ArialMT, Arial"><tspan x="0" y="0">Jashore</tspan></text><text transform="translate(900.177 429.961)" font-size="4" font-family="ArialMT, Arial"><tspan x="0" y="0">Kushtia</tspan></text><text transform="translate(1018.198 495.117)" font-size="4" font-family="ArialMT, Arial"><tspan x="0" y="0">Shariatpur</tspan></text><text transform="translate(973.539 471.088)" font-size="4" font-family="ArialMT, Arial"><tspan x="0" y="0">Faridpur</tspan></text><text transform="translate(1035.266 441.807)" font-size="4" font-family="ArialMT, Arial"><tspan x="0" y="0">Narayanganj</tspan></text><text transform="translate(1070.706 381.787)" font-size="4" font-family="ArialMT, Arial"><tspan x="0" y="0">Kishoreganj</tspan></text><text transform="translate(943.377 381.787)" font-size="4" font-family="ArialMT, Arial"><tspan x="0" y="0">Sirajganj</tspan></text><text transform="translate(867.923 333.056)" font-size="4" font-family="ArialMT, Arial"><tspan x="0" y="0">Naogaon</tspan></text><text transform="translate(993.68 312.621)" font-size="4" font-family="ArialMT, Arial"><tspan x="0" y="0">Sherpur</tspan></text><text transform="translate(913.667 257.602)" font-size="4" font-family="ArialMT, Arial"><tspan x="0" y="0">Rangpur</tspan></text><path d="M962.366,518v7.455l2.366,1.568h-3.549L960,528.591l3.549,1.183-1.568,1.568-.8,3.934,1.953,2.751-.385,4.319,5.5,1.183,1.568,3.136,5.5.8,2.751,2.751-.385,2.366,1.183,2.751,2.751-3.136,2.366,2.366v2.366l-2.751.8-1.183,3.934,4.7,1.953,3.549,1.183,1.183,3.136-4.319,3.549v4.7l2.751,2.751-1.953,4.7-4.7,2.366,1.183,1.183L985.584,586l1.953,1.568.385,2.366-1.568,1.568,2.751,4.7v1.183l-2.751.385,1.568,1.953V602.1l-2.366,1.183-3.934-.8-1.183,1.953,2.366,1.183.385,1.568-2.366,1.953,3.934.385,3.934,1.953,3.136-3.549,4.319-.8-.385,2.751-3.934,2.366L994.579,615l-.385,1.568-3.549-1.183-.8,3.549,3.136,1.953-3.136.8.8,3.136.8,2.366,2.366,1.568-1.568,2.751.385,1.953h0v.385" transform="translate(120.11 -213.509)" fill="none" stroke="#000" stroke-width="0.5"/><path d="M314.272,429.736l-3.934-3.136-.8,2.366,1.953,1.568-3.549,1.568v6.3l2.366,3.136.385,2.751-1.953,3.136-2.366-.385-2.366,1.953-.385,3.549-4.291,6.272,1.183,3.136-1.568,2.366,1.953,1.953-1.953,1.568,1.953.385v1.953l-1.568,1.953L300.9,473.7l.385,1.953,1.568,3.934-1.568.385V483.9l1.953,2.751,3.549-.385v2.366l-.8,1.183,1.183,1.953.8-1.568,4.7,2.751-.385,1.953-1.953.385,1.953,3.136-.385,4.7-.385,3.136-1.953-.385,1.568,3.136-.8,2.366-.8,1.568h-1.568l-1.953,1.183,1.568,3.136v3.549l-3.136,3.549,3.934,3.136.8,1.953-1.953,1.568,4.319,5.887v4.7l-.8,4.7,1.183,2.751-1.568,1.183,3.136,2.366.8,3.934v3.934l-2.366,3.549-7.07,1.568-3.136-.385-1.183,3.136-1.183,3.934,3.136,1.953,1.568-.8,1.953,3.549-1.568.385-2.751-2.366v2.751l5.117,1.568,3.136,1.953-5.117,1.953-3.934-.385-5.117-1.953-7.07,2.751-8.638-4.567-1.568-3.934-4.7-5.5.8,4.7-1.953,1.568v.385l-4.319-.385-1.183-1.953-4.7-6.3-5.887.385L254.6,566.1l-5.5.385-3.136,1.568v-.385l-1.183-1.953H242.83l-1.568-2.751.8-4.319-2.366-2.751h-4.319l-2.751-2.366-1.568,2.366-3.934-.8-4.319.385-7.455-5.887-3.549-.385h0" transform="translate(662.486 -147.253)" fill="none" stroke="#000" stroke-width="0.5"/><path d="M414.878,972.3l.55,8.885.55,1.678-3.879,2.778,1.1,2.778,5.777,5.5,4.319-1.568,1.568,1.953,3.549,3.549,1.568,6.685,3.549,3.549-1.568.385-1.568.8v1.953h5.117l3.934,3.136.385,3.934,3.136,5.117-2.751-1.568-1.568,1.568,1.953,1.953-.8,4.319,1.183,3.549h3.549l-2.751,1.953.8,3.136,3.549-.8,2.366,1.953-.385,3.934,3.136-1.953,3.136,1.183-3.136,7.07H448.11l4.319,4.7,1.953,4.319,4.7,2.366-1.568,4.7,3.549,1.953-1.568,2.366.8,3.136,2.366,1.953,4.319-1.953,2.751,2.366.385,8.253-5.5,1.183v4.319h3.549l3.136,1.568-.385,4.319,1.953,5.5-1.568,2.751,1.568,7.07-4.7-4.319-2.751-1.568,1.183,3.549,3.549,3.549,1.568,1.568h-1.953l-2.751,3.136v4.7l-3.549,6.685-1.568,6.685,2.751,3.934,1.183,6.685-3.136,5.5,1.953,4.319-1.568,6.3,2.366,3.934-.385,2.751.8,8.253v.385" transform="translate(517.287 -542.835)" fill="none" stroke="#000" stroke-width="0.5"/><path d="M621.2,1285.9l.825-3.329,5.557.55,2.228-2.778-.275-3.053,3.329-3.329.55-3.054,3.329-.825.275-1.953h3.054l-.275-3.6,4.732-.275,1.953-1.953,1.4.825-.825,8.06,5.007,1.953,4.732-1.4,1.953,2.228,1.4-3.6,5.007-1.953,3.879,1.1,3.879,2.228,4.456,3.6,5.007,1.953,4.732,2.228,2.228,2.228,1.953,4.456,3.054,6.107,1.4,6.382,2.5,8.335,3.054,4.181,4.181,4.731,3.879,5.282-.55,4.456,6.107,6.107,3.329,3.879v3.879L715.474,1344l-.275,4.456v10.289l.825,5.832h0" transform="translate(365.709 -753.058)" fill="none" stroke="#000" stroke-width="0.5"/><path d="M816.132,975.413l.385-6.685-1.568-4.7-3.549-3.136,2.751-.8-1.953-3.136L814.949,955l2.751-3.934-1.568-4.7-1.953-7.868-.8-5.887,1.183-4.319,4.319-6.685,8.253-3.136-1.953-8.253-.385-7.455,2.751.385,2.366-2.751.385-3.934,4.319-5.887-.385-3.549,3.136-2.751,3.934,1.953,6.3-1.183,2.366-3.549,2.366-6.3H854.7l-1.953-3.136,3.136-4.319,3.934-.8V864.99l1.568-1.568v-3.136l-2.366-.8-2.751-3.549,4.319-4.319,3.934.8,1.953-3.136,7.455-1.183h.385" transform="translate(227.831 -452.801)" fill="none" stroke="#000" stroke-width="0.5"/><path d="M764.591,1034.024l-1.706-1.073-1.513,1.155.5-1.953-1.568-1.073,2.008-.137.55-1.843.743,1.871,1.9-.055-1.541,1.293Z" transform="translate(264.874 -584.009)" fill="#3f3f3f"/><path d="M464.681,1498.178a1.625,1.625,0,0,1-1.541,1.678,1.607,1.607,0,0,1-1.541-1.678,1.546,1.546,0,1,1,3.081,0Z" transform="translate(481.404 -922.831)" fill="#3f3f3f"/><path d="M785.881,1363.178a1.625,1.625,0,0,1-1.541,1.678,1.684,1.684,0,0,1,0-3.356A1.625,1.625,0,0,1,785.881,1363.178Z" transform="translate(248.564 -824.969)" fill="#3f3f3f"/><path d="M1232.881,1494.178a1.624,1.624,0,0,1-1.541,1.678,1.607,1.607,0,0,1-1.541-1.678,1.625,1.625,0,0,1,1.541-1.678A1.607,1.607,0,0,1,1232.881,1494.178Z" transform="translate(-75.47 -919.931)" fill="#3f3f3f"/><path d="M1306.281,639.278a1.625,1.625,0,0,1-1.541,1.678,1.607,1.607,0,0,1-1.541-1.678,1.546,1.546,0,1,1,3.081,0Z" transform="translate(-128.678 -300.208)" fill="#3f3f3f"/><path d="M185.281,773.878a1.624,1.624,0,0,1-1.541,1.678,1.607,1.607,0,0,1-1.541-1.678,1.546,1.546,0,1,1,3.081,0Z" transform="translate(683.943 -397.781)" fill="#3f3f3f"/><path d="M373.94,503.478l-1.155-.935-6,.8-.688,2.311h-1.733l-1.155-1.623-4.4-.688-2.668-2.888-1.155,1.953-2.778-1.623-1.045,1.513-3-.358-.8-3.466-2.641-.908-3.576-.688-1.623,1.155-.358.22-1.953-1.375.578-.8-3-3.824-1.651-.99-1.348-2.586,1.155-3.246-3.466-1.045-5.309.578-1.843-2.668-3.466.935L315.4,480.7h0" transform="translate(587.385 -186.47)" fill="none" stroke="#000" stroke-width="0.5"/><path d="M388.881,361.078a1.625,1.625,0,0,1-1.541,1.678,1.684,1.684,0,1,1,1.541-1.678Z" transform="translate(536.352 -98.539)" fill="#3f3f3f"/></g></svg>