<svg xmlns="http://www.w3.org/2000/svg" width="90.233" height="29.972" viewBox="0 0 90.233 29.972"><defs><style>.a{fill:#2c2c2c;}</style></defs><path class="a" d="M12.913,14.983a5.931,5.931,0,0,0,5.934,5.934C10.879,20.917,5.66,17.1,5.66,9.052V0s7.253,0,7.253,6.719Z" transform="translate(-3.861)"/><path class="a" d="M34.424,12.913a5.934,5.934,0,0,0-5.934,5.934C28.49,10.879,32.3,5.66,40.355,5.66H49.41s0,7.253-6.719,7.253Z" transform="translate(-19.435 -3.861)"/><path class="a" d="M53.084,34.424A5.931,5.931,0,0,0,47.15,28.49c7.968,0,13.19,3.814,13.19,11.868v9.049s-7.256,0-7.256-6.716V34.427Z" transform="translate(-32.164 -19.435)"/><path class="a" d="M14.983,53.087a5.934,5.934,0,0,0,5.934-5.937c0,7.968-3.814,13.19-11.865,13.19H0s0-7.253,6.719-7.253Z" transform="translate(0 -32.164)"/><path class="a" d="M200.121,34.109c0,2.2-2.377,2.988-3.9,2.988-1.22,0-3.2-.458-3.2-2.012,0-1.831,1.341-2.381,2.838-2.622s3.2-.245,4.268-.954V34.1Zm3.477-6.315c0-3.325-3.232-4.574-6.312-4.574-3.477,0-6.922,1.189-7.167,5.247H193.6c.153-1.71,1.522-2.5,3.477-2.5,1.4,0,3.261.318,3.261,2.133,0,2.044-2.225,1.77-4.726,2.225-2.927.334-6.067.976-6.067,4.911,0,3.08,2.559,4.605,5.4,4.605a8.164,8.164,0,0,0,5.46-1.907c.273,1.433,1.271,1.907,2.683,1.907a8.677,8.677,0,0,0,2.2-.4S203.6,39.124,203.6,35.9V27.794Z" transform="translate(-129.298 -15.84)"/><path class="a" d="M120.921,19.568c0,2.743-1.189,5.549-4.361,5.549-2.806,0-4.424-2.377-4.424-5.549,0-3.356,1.494-5.581,4.424-5.581,2.861,0,4.361,2.714,4.361,5.581M108.77,27.435h3.293V25.27h.06c1.039,2.075,3.325,2.594,5.46,2.594,4.666,0,6.8-4,6.8-8.235,0-4.605-2.409-8.388-7.38-8.388a5.766,5.766,0,0,0-4.7,2.47h-.06V9.42a3.5,3.5,0,0,0-3.477-3.76Z" transform="translate(-74.199 -3.861)"/><path class="a" d="M161.34,39.413h3.477v-7.5c0-3.477,1.891-5.4,4.272-5.4a12.59,12.59,0,0,1,1.494.153v-3.35a8.089,8.089,0,0,0-1.313-.092,5.092,5.092,0,0,0-4.605,3.477h-.06V23.645H161.34Z" transform="translate(-110.061 -15.839)"/><path class="a" d="M251.961,28.922c-.318-3.871-3.445-5.7-7.1-5.7-5.187,0-7.777,3.722-7.777,8.48,0,4.634,2.714,8.143,7.653,8.143,4.056,0,6.589-2.26,7.228-6.357H248.5c-.337,2.257-1.739,3.6-3.754,3.6-3.019,0-4.176-2.775-4.176-5.4,0-4.79,2.543-5.721,4.329-5.721a3.335,3.335,0,0,1,3.6,2.956Z" transform="translate(-161.728 -15.84)"/></svg>