<svg width="12.7" height="12.7" xmlns="http://www.w3.org/2000/svg">

 <g>
  <title>background</title>
  <rect fill="none" id="canvas_background" height="402" width="582" y="-1" x="-1"/>
 </g>
 <g>
  <title>Layer 1</title>
  <path fill="#ffffff" stroke-width="0.705556px" id="path4487" d="m4.93889,1.411152l0,1.41111l-1.41111,0l0,7.76111l5.64444,0l0,-7.76111l-1.41111,0l0,-1.41111l-2.82222,0zm0.70555,0.70555l1.41112,0l0,1.41111l-1.41112,0l0,-1.41111zm-1.41111,1.41111l0.70556,0l0,0.70556l2.82222,0l0,-0.70556l0.70556,0l0,6.35l-4.23334,0l0,-6.35zm0.70556,1.41111l0,0.70556l2.82222,0l0,-0.70556l-2.82222,0zm0,1.41111l0,0.70556l0.70555,0l0,-0.70556l-0.70555,0zm0.70555,0.70556l0,0.70556l0.70556,0l0,-0.70556l-0.70556,0zm0.70556,0l0.70556,0l0,-0.70556l-0.70556,0l0,0.70556zm0.70556,0l0,0.70556l0.70555,0l0,-0.70556l-0.70555,0zm0,0.70556l-0.70556,0l0,0.70555l0.70556,0l0,-0.70555zm0,0.70555l0,0.70556l0.70555,0l0,-0.70556l-0.70555,0zm-0.70556,0l-0.70556,0l0,0.70556l0.70556,0l0,-0.70556zm-0.70556,0l0,-0.70555l-0.70555,0l0,0.70555l0.70555,0z"/>
 </g>
</svg>