<svg xmlns="http://www.w3.org/2000/svg" width="22.925" height="29.596" viewBox="0 0 22.925 29.596">
  <g id="Group_127" data-name="Group 127" transform="translate(0 0)">
    <path id="Path_125" data-name="Path 125" d="M926.017,1166.859a1.929,1.929,0,0,1,1.359-1.876c1.238-.357,2.485-.68,3.729-1.015q3.144-.845,6.289-1.686c.077-.021.153-.042.23-.06a1.214,1.214,0,0,1,1.614,1.108c.086.618.159,1.238.265,1.853a29.679,29.679,0,0,0,1.643,5.644c.919,2.375,1.892,4.73,2.8,7.108a27.893,27.893,0,0,1,1.758,6.926,1.985,1.985,0,0,1-1.438,2.128q-3.775,1.018-7.552,2.025c-.862.231-1.724.459-2.585.69a1.292,1.292,0,0,1-.789.008c-.252-.089-.279-.158-.092-.34.226-.221.459-.438.705-.637a5.19,5.19,0,0,0,1.98-3.63c.033-.32.07-.33.323-.129a2.336,2.336,0,0,1,.819,1.28c.055.216.147.266.358.208q1.591-.438,3.187-.856a.289.289,0,0,0,.249-.36,3.162,3.162,0,0,1,1.973-3.187c.209-.082.239-.178.184-.377a45.936,45.936,0,0,0-1.6-4.7c-.024-.062-.032-.149-.117-.155s-.105.08-.142.135a6.753,6.753,0,0,1-4.585,2.755c-.2.042-.277-.022-.237-.233.095-.5.182-.994.267-1.492a.4.4,0,0,1,.31-.317,3.511,3.511,0,0,0,1.381-.847,1.423,1.423,0,0,0-.362-2.436,3.769,3.769,0,0,1-1.348-.993,1.789,1.789,0,0,0-2.114-.379,4.7,4.7,0,0,0-2.3,1.988,5.779,5.779,0,0,0-1.033,3.534,3.159,3.159,0,0,1-.527,1.8c-.044.074-.083.18-.18.182s-.121-.116-.151-.194c-1-2.568-2.126-5.085-3-7.7a26.763,26.763,0,0,1-1.263-5.585C926.02,1166.968,926.019,1166.888,926.017,1166.859Zm4.391,8.335a6.491,6.491,0,0,1,4.192-2.862,7.584,7.584,0,0,1,5.091.38c-.056-.16-.085-.253-.121-.344a41.868,41.868,0,0,1-1.569-4.61c-.055-.206-.141-.255-.356-.226a2.593,2.593,0,0,1-3-1.885c-.065-.213-.162-.226-.347-.174-.955.263-1.914.51-2.869.773-.7.194-.549.1-.581.736a3.047,3.047,0,0,1-1.885,2.853c-.3.131-.322.261-.244.532.382,1.324.827,2.626,1.32,3.912C930.156,1174.572,930.275,1174.86,930.408,1175.194Z" transform="translate(-922.795 -1162.172)" fill="#d10d74"/>
    <path id="Path_126" data-name="Path 126" d="M875.846,1373.632h-3.538c-.4,0-.413-.018-.239-.368.553-1.108,1.069-2.237,1.674-3.317a4.151,4.151,0,0,0,.4-2.533c-.139-1.5-.483-2.971-.648-4.466a8.714,8.714,0,0,1,.032-2.4,3.647,3.647,0,0,1,.973-1.906c.535-.573,1.114-1.1,1.69-1.629.166-.152.247-.142.332.075.465,1.18.938,2.356,1.411,3.533a.8.8,0,0,1,.033.464,4.379,4.379,0,0,0,.115,2.259c.177.523.42.65.956.481a2.571,2.571,0,0,0,1.357-1.014,4.042,4.042,0,0,0,.751-2.486,5.3,5.3,0,0,1,1.741-3.993,2.421,2.421,0,0,1,1.423-.746,1.011,1.011,0,0,1,1.194.85,2.927,2.927,0,0,1-.084,1.411,30.928,30.928,0,0,0-.846,4.341c-.1.885-.162,1.774-.208,2.664-.038.751-.027,1.5-.111,2.253a3.9,3.9,0,0,1-1.452,2.677,11.985,11.985,0,0,0-2.762,3.352.906.906,0,0,1-.922.51C878.027,1373.61,876.936,1373.632,875.846,1373.632Z" transform="translate(-871.962 -1344.048)" fill="#d10d74"/>
  </g>
</svg>
