<svg xmlns="http://www.w3.org/2000/svg" width="34.983" height="54.145" viewBox="0 0 34.983 54.145"><g transform="translate(-2005.697 -179.77)"><path d="M2018.859,212.425v-.788c0-4.413-.015-8.826.012-13.238a3.418,3.418,0,0,1,4.557-3.188,3.365,3.365,0,0,1,2.291,3.083c.03,1.563.012,3.128.015,4.693v.7a7.319,7.319,0,0,1,1.366-.427,3.06,3.06,0,0,1,3.262,1.935c.137.331.213.367.536.207a3.037,3.037,0,0,1,4.279,1.607c.144.348.233.346.541.2a3.035,3.035,0,0,1,4.463,2.745q.035,6.677-.037,13.358a9.293,9.293,0,0,1-.952,4,3.406,3.406,0,0,1-.942,1.379,2.51,2.51,0,0,0-.992,2.6,11.278,11.278,0,0,1,0,1.382c-.01.422-.218.7-.655.7s-.642-.283-.642-.71c0-1.123,0-2.246,0-3.371a.715.715,0,0,1,.356-.651,5.837,5.837,0,0,0,2.42-4.375,12.4,12.4,0,0,0,.134-2.038q0-6.108.01-12.215a1.71,1.71,0,0,0-.922-1.633,1.687,1.687,0,0,0-1.774.059,1.651,1.651,0,0,0-.77,1.1c-.089.408-.3.738-.776.656-.456-.079-.579-.437-.576-.86.005-.442.01-.884-.012-1.324a1.719,1.719,0,0,0-1.478-1.64,1.748,1.748,0,0,0-1.925,1.195c-.03.1-.052.192-.077.29a.629.629,0,0,1-.733.554.666.666,0,0,1-.582-.726c-.013-.42,0-.842-.007-1.264a1.75,1.75,0,0,0-1.453-1.853,1.728,1.728,0,0,0-2.02,1.372c-.119.4-.3.733-.773.659-.458-.072-.584-.423-.582-.85,0-2.427.007-4.853-.005-7.282a2.109,2.109,0,0,0-1.538-2.059,2.157,2.157,0,0,0-2.4.954,2.489,2.489,0,0,0-.315,1.384q.008,7.31,0,14.622c0,.161,0,.321,0,.482a.674.674,0,0,1-.4.681.693.693,0,0,1-.775-.167l-1.992-1.834a3.519,3.519,0,0,0-.922-.668,1.938,1.938,0,0,0-2.524,2.788,2.509,2.509,0,0,0,.527.651,15.58,15.58,0,0,1,4.905,8.229,10.392,10.392,0,0,0,1.622,3.591,4.126,4.126,0,0,0,1.8,1.451.883.883,0,0,1,.614.924c-.01,1,.008,2.007-.008,3.009-.01.693-.216.9-.916.9-4.092,0-8.183.022-12.275-.03a3.566,3.566,0,0,1-3.618-3.876q-.01-13.809,0-27.622,0-8.874,0-17.751a3.658,3.658,0,0,1,2.8-3.782,4.476,4.476,0,0,1,1.076-.079q12.127,0,24.252,0a3.619,3.619,0,0,1,3.9,3.9q.008,9.687,0,19.376a1.9,1.9,0,0,1-.03.479.639.639,0,0,1-1.26-.06,4.526,4.526,0,0,1-.012-.541q0-9.6,0-19.2a2.4,2.4,0,0,0-1.729-2.576,2.929,2.929,0,0,0-.833-.077q-12.1,0-24.192,0a2.342,2.342,0,0,0-2.656,2.661q-.005,22.6,0,45.193a2.331,2.331,0,0,0,2.614,2.644c3.65.012,7.3,0,10.952.023.46,0,.686-.112.608-.6a.594.594,0,0,1,0-.181,2.187,2.187,0,0,0-1.078-2.366c-1.493-1.018-2.139-2.706-2.683-4.381-.37-1.143-.669-2.306-1.146-3.414a12.2,12.2,0,0,0-3.168-4.477,4.31,4.31,0,0,1-1.593-2.341,3.215,3.215,0,0,1,1.336-3.474,3.433,3.433,0,0,1,3.844.151C2017.739,211.422,2018.233,211.891,2018.859,212.425Z" transform="translate(0 0)" fill="#c9d600" stroke="#c9d600" stroke-miterlimit="10" stroke-width="1"/><path d="M2026.734,195.215a2.889,2.889,0,0,1,1.7-3.25c.229-.115.278-.254.156-.479-.144-.264-.256-.546-.412-.8a3.076,3.076,0,0,0-.683-.976c-.391-.273-.679.251-1.041.365a2.813,2.813,0,0,1-2.273-.09q-.849-.452-1.669-.957a2.732,2.732,0,0,1-1.27-2.566c.007-.378-.12-.489-.462-.514a10.438,10.438,0,0,0-1.742.008c-.291.027-.42.126-.4.443a2.874,2.874,0,0,1-1.766,2.94c-.3.151-.6.331-.887.505a2.72,2.72,0,0,1-3.014-.017c-.435-.269-.633-.166-.843.209-.1.174-.231.328-.325.5a3.079,3.079,0,0,0-.537,1.125c-.018.423.571.457.858.71a2.742,2.742,0,0,1,1.029,1.776,10.74,10.74,0,0,1,0,2.4,2.626,2.626,0,0,1-1.536,2.092c-.417.213-.452.423-.228.78.149.238.253.5.4.738a2.79,2.79,0,0,0,.636.862c.33.219.587-.221.9-.326a.65.65,0,0,1,.911.313c.184.377,0,.654-.328.857-.136.084-.281.152-.418.234-1.342.795-1.361.795-2.293-.475a10.473,10.473,0,0,1-1.386-2.587c-.167-.457-.14-.887.35-1.059,1.528-.541,1.873-1.655,1.747-3.14a1.9,1.9,0,0,0-1.071-1.725c-1.248-.639-1.4-.621-.724-2.167a10.623,10.623,0,0,1,1.617-2.522.771.771,0,0,1,1.155-.177c.251.164.505.325.766.475a1.52,1.52,0,0,0,1.651,0c.36-.218.719-.438,1.1-.624a1.625,1.625,0,0,0,.946-1.662c-.052-1.587-.177-1.59,1.543-1.789a11.387,11.387,0,0,1,3,.114.71.71,0,0,1,.694.874c-.283,1.51.445,2.325,1.732,2.957a1.974,1.974,0,0,0,2.234-.065c.179-.127.373-.234.564-.345a.722.722,0,0,1,1.016.169,10.971,10.971,0,0,1,1.987,3.407.72.72,0,0,1-.331.969.326.326,0,0,1-.054.028c-2.135.947-1.675,1.4-1.675,3.668,0,.546.455.865.9,1.125.328.191.681.348.987.567a.56.56,0,0,1,.159.8.574.574,0,0,1-.77.286,5.417,5.417,0,0,1-2.04-1.341A3.589,3.589,0,0,1,2026.734,195.215Z" transform="translate(2.371 2.915)" fill="#d10d74" stroke="#d10d74" stroke-miterlimit="10" stroke-width="1"/><path d="M2011.173,206.808c-.659,0-1.32.012-1.98,0-.432-.008-.819-.132-.817-.666s.39-.643.825-.644q1.951-.008,3.9,0c.444,0,.82.124.817.656s-.392.649-.825.658C2012.453,206.818,2011.812,206.808,2011.173,206.808Z" transform="translate(1.468 16.988)" fill="#d10d74" stroke="#d10d74" stroke-miterlimit="10" stroke-width="1"/></g></svg>