<svg xmlns="http://www.w3.org/2000/svg" width="29.994" height="30" viewBox="0 0 29.994 30"><g transform="translate(650.722 356.96)"><path d="M-580.534-295.983a9.23,9.23,0,0,1-9.383,9.272,9.267,9.267,0,0,1-9.145-9.3,9.233,9.233,0,0,1,9.262-9.224A9.23,9.23,0,0,1-580.534-295.983Zm-9.25-2.35c-.716,0-1.431-.007-2.147,0a.856.856,0,0,0-.94.844.888.888,0,0,0,.948.9q2.147.016,4.294,0a.864.864,0,0,0,.91-.882.833.833,0,0,0-.919-.856C-588.352-298.34-589.068-298.332-589.784-298.333Zm0,4.748c.69,0,1.379,0,2.069,0,.625,0,.994-.328,1-.864s-.357-.87-.983-.873q-2.088-.008-4.176,0a.879.879,0,0,0-.985.879.879.879,0,0,0,.971.858C-591.188-293.58-590.486-293.585-589.784-293.585Z" transform="translate(-40.194 -40.249)" fill="#d10d74"/><path d="M-638.082-350.616c0,1.945-.01,3.89.008,5.834,0,.394-.126.5-.506.5-3.877-.012-7.754-.007-11.631-.008-.507,0-.509,0-.509-.516q0-4.529,0-9.059a3.023,3.023,0,0,1,3.071-3.063q4.529-.006,9.059,0c.5,0,.506,0,.507.518Q-638.081-353.514-638.082-350.616Zm-5.423-1.674c0-.141,0-.281,0-.422a.883.883,0,0,0-.875-.962.871.871,0,0,0-.91.926c-.017.306-.012.614,0,.921,0,.226-.088.328-.318.322-.307-.007-.614-.012-.92,0a.872.872,0,0,0-.93.906.881.881,0,0,0,.957.879,7.307,7.307,0,0,0,.767,0c.325-.025.475.083.448.43a5.443,5.443,0,0,0,.007.882.857.857,0,0,0,.931.86.857.857,0,0,0,.845-.906c.013-.306.012-.614,0-.921-.008-.244.09-.35.338-.342.319.009.64.013.959-.005a.849.849,0,0,0,.872-.838.853.853,0,0,0-.818-.931,5.107,5.107,0,0,0-.575-.015C-643.593-351.517-643.5-351.4-643.5-352.29Z" transform="translate(0 -0.022)" fill="#d10d74"/><path d="M-585.935-351.127c0-1.778.008-3.556-.007-5.334,0-.385.124-.5.51-.5,3.044.014,6.089,0,9.133.01a3.023,3.023,0,0,1,3.04,3.018c.014,2.724.005,5.449,0,8.174,0,.124.047.286-.065.361-.143.1-.259-.053-.372-.123a10.858,10.858,0,0,0-6.537-1.7,10.693,10.693,0,0,0-5.169,1.653c-.136.086-.286.268-.435.194-.179-.089-.1-.323-.1-.5Q-585.939-348.5-585.935-351.127Zm6.3,1.389c.729,0,1.459.013,2.188,0a.891.891,0,0,0,.929-.876.872.872,0,0,0-.9-.9c-1.445-.02-2.891-.014-4.337,0a.851.851,0,0,0-.845.555.888.888,0,0,0,.9,1.221C-581.013-349.726-580.322-349.738-579.631-349.738Z" transform="translate(-50.397 0)" fill="#d10d74"/><path d="M-644.887-292.124q2.667,0,5.334,0c.147,0,.345-.057.418.1.059.131-.088.255-.161.371a10.834,10.834,0,0,0-1.693,6.462,10.82,10.82,0,0,0,1.686,5.277c.073.115.221.234.154.37-.079.163-.274.093-.418.093q-4.01.005-8.02,0a3.034,3.034,0,0,1-3.129-3.125q0-4.509,0-9.018c0-.531,0-.535.534-.536Q-647.534-292.126-644.887-292.124Zm2.926,4.745a.809.809,0,0,0-.491-.734.839.839,0,0,0-.964.132,9.219,9.219,0,0,0-.708.7c-.186.2-.337.231-.531.01s-.409-.422-.624-.623a.862.862,0,0,0-1.266-.036.87.87,0,0,0,.015,1.269c.206.227.423.445.649.651.182.166.194.3.008.473-.234.217-.46.444-.676.678a.86.86,0,0,0-.044,1.237.855.855,0,0,0,1.267.018c.249-.22.483-.457.711-.7.161-.171.289-.158.446.006a10.073,10.073,0,0,0,.74.722.844.844,0,0,0,1.235-.054.863.863,0,0,0-.028-1.21c-.216-.235-.442-.462-.677-.678-.19-.175-.214-.318-.007-.5.229-.2.438-.429.653-.647A.955.955,0,0,0-641.96-287.379Z" transform="translate(-0.004 -50.441)" fill="#d10d74"/></g></svg>