<svg xmlns="http://www.w3.org/2000/svg" width="56.741" height="53.7" viewBox="0 0 56.741 53.7">
  <g id="Group_111" data-name="Group 111" transform="translate(0.502 1)">
    <g id="Group_110" data-name="Group 110" transform="translate(0 0.21)">
      <path id="Path_104" data-name="Path 104" d="M159.558,663.726c.017-.563-.161-.676-.671-.7-1.867-.073-3.732-.19-5.6-.291-.826-.045-1.278-.417-1.262-1.035.017-.641.518-1,1.384-.933,3.729.3,7.464.4,11.2.353a118.407,118.407,0,0,0,36.784-6.347c1.475-.5,2.935-1.047,4.405-1.562a.98.98,0,0,1,1.429.9,1.039,1.039,0,0,1-.806.971c-1.836.649-3.663,1.327-5.509,1.944-.5.168-.616.333-.439.849,1.063,3.1,2.091,6.219,3.128,9.331.389,1.168-.076,1.729-1.311,1.565-1.017-.135-2.033-.277-3.045-.449a.815.815,0,0,0-.816.255c-.759.78-1.537,1.542-2.318,2.3-.733.711-1.5.519-1.828-.46q-1.67-4.987-3.319-9.98c-.142-.433-.29-.559-.769-.443-1.535.37-3.083.686-4.632.991-.383.076-.494.18-.431.6.5,3.369.97,6.743,1.456,10.114.149,1.035-.459,1.57-1.463,1.249s-2.031-.652-3.032-1.015a.87.87,0,0,0-.9.136c-.865.625-1.744,1.231-2.628,1.829-.849.575-1.587.257-1.734-.76-.474-3.269-.944-6.539-1.388-9.813-.077-.571-.183-.841-.88-.754-1.506.187-3.026.267-4.543.351-.462.026-.612.154-.623.64-.072,3.285-.18,6.57-.277,9.855-.007.246-.013.493-.037.738a.991.991,0,0,1-1.567.865c-.981-.515-1.958-1.038-2.922-1.584a.807.807,0,0,0-.848-.018c-.958.467-1.932.9-2.9,1.344s-1.639,0-1.608-1.06c.025-.842.055-1.683.067-2.525S159.508,665.367,159.558,663.726Zm41.775,2.907c-.965-2.888-1.9-5.664-2.813-8.449-.137-.419-.373-.279-.619-.211-1.58.439-3.155.895-4.74,1.315-.407.108-.435.277-.311.633.478,1.374.929,2.758,1.39,4.138l1.526,4.57c.663-.723,1.219-1.322,1.765-1.929a1.254,1.254,0,0,1,1.263-.433C199.6,666.415,200.412,666.5,201.334,666.633ZM161.4,672.32c.676-.307,1.427-.62,2.15-.987a1.328,1.328,0,0,1,1.389.043c.7.409,1.425.777,2.139,1.162.055-.1.088-.134.089-.168.09-2.951.17-5.9.275-8.851.016-.442-.2-.44-.521-.437-1.64.016-3.28.031-4.919.017-.381,0-.487.11-.492.484-.016,1.23-.091,2.458-.105,3.688C161.383,668.945,161.4,670.619,161.4,672.32Zm22.978-1.715a.688.688,0,0,0,.038-.171c-.406-2.862-.821-5.722-1.214-8.585-.063-.46-.335-.382-.618-.324-1.609.33-3.237.525-4.867.705-.352.039-.445.15-.393.5q.614,4.136,1.194,8.278c.05.36.144.431.448.211.548-.4,1.12-.761,1.661-1.166a1.4,1.4,0,0,1,1.44-.211C182.813,670.118,183.579,670.345,184.376,670.605Z" transform="translate(-152.021 -633.94)" fill="#c9d600"/>
      <path id="Path_105" data-name="Path 105" d="M193.326,517.577a1.112,1.112,0,0,1-.948-.679q-2.457-4.266-4.929-8.523c-.182-.312-.266-.8-.611-.879a12.1,12.1,0,0,0-2.075-.231c-.211-.013-.311.246-.441.4q-3.438,4.029-6.872,8.063c-.8.938-1.57.807-2.012-.34-1.231-3.194-2.47-6.385-3.676-9.589a1.389,1.389,0,0,0-1-.916,2.266,2.266,0,0,0-2.513.595c-2.442,2.2-4.973,4.293-7.468,6.429-1,.854-1.7.627-2.016-.649-.826-3.343-1.662-6.684-2.469-10.032a1.069,1.069,0,0,0-.792-.874c-.9-.291-1.776-.634-2.659-.963-.712-.265-1.011-.785-.793-1.354s.771-.775,1.488-.493a122.283,122.283,0,0,0,15.746,5.022,117.693,117.693,0,0,0,18.2,2.961,115.563,115.563,0,0,0,18.149.122c.964-.072,1.5.241,1.559.888.061.673-.411,1.03-1.454,1.082-1.579.08-3.157.164-4.737.218a.767.767,0,0,0-.69.387q-2.975,4.343-5.973,8.669C194.091,517.254,193.831,517.593,193.326,517.577Zm-32.925-7.94L166.987,504c-2.965-.785-5.758-1.621-8.623-2.584Zm21.927-2.677c-2.931-.329-5.693-.831-8.542-1.386l3.028,7.867Zm6.985.694c1.357,2.346,2.647,4.577,3.939,6.807.25.432.348.02.437-.108q2.126-3.053,4.232-6.12c.053-.077.14-.158.045-.3C195.14,507.935,192.3,507.818,189.313,507.654Z" transform="translate(-151.984 -497.412)" fill="#d10d74"/>
    </g>
    <line id="Line_20" data-name="Line 20" y2="51.7" transform="translate(0.498)" fill="none" stroke="#c9d600" stroke-linecap="round" stroke-width="2"/>
    <line id="Line_21" data-name="Line 21" y2="33.453" transform="translate(55.239 8.11)" fill="none" stroke="#d10d74" stroke-linecap="round" stroke-width="2"/>
  </g>
</svg>
