<svg xmlns="http://www.w3.org/2000/svg" width="45.566" height="53.897" viewBox="0 0 45.566 53.897">
  <g id="Group_121" data-name="Group 121" transform="translate(300.316 -1053.416)">
    <path id="Path_117" data-name="Path 117" d="M-257.047,1078.16c-.117-.061-.308-.052-.338-.3a4.143,4.143,0,0,0,1.564-3.891,4.081,4.081,0,0,0-2.618-3.273c1.949-2.31,2.165-4.3.683-6.057a3.981,3.981,0,0,0-2.518-1.406,4.406,4.406,0,0,0-4.026,1.635,4.283,4.283,0,0,0-1.9-2.21,4.033,4.033,0,0,0-4.842.689c-1.123,1.1-2.222,2.225-3.351,3.359a1.041,1.041,0,0,1-.1-.684c-.007-1.389.021-2.778-.01-4.167a4.1,4.1,0,0,0-5.381-3.832c-.145.046-.291.184-.463.075-.182-2.957-1.622-4.634-4.012-4.682-2.51-.051-3.919,1.5-4.27,4.732-.164-.048-.324-.093-.482-.142a4.072,4.072,0,0,0-4.47,1.406,4.226,4.226,0,0,0-.86,2.693c0,.264.041.533-.4.37a4.144,4.144,0,0,0-5.464,4.244c.111,3.052.025,6.111.025,9.167q0,13.559,0,27.117a4.07,4.07,0,0,0,4.294,4.305q8.622,0,17.245,0a4.031,4.031,0,0,0,4.169-3.484,1.8,1.8,0,0,1,.549-1.033q6.132-6.108,12.245-12.234c1.934-1.934,3.88-3.857,5.8-5.806A4.08,4.08,0,0,0-257.047,1078.16Zm-19.793-7.727q0,6.059,0,12.119,0,10.162,0,20.325a1.85,1.85,0,0,1-2.128,2.108h-16.863a1.842,1.842,0,0,1-2.121-2.107q0-18.145,0-36.29a1.782,1.782,0,0,1,2.261-1.94,1.737,1.737,0,0,1,1.243,1.81c.01,2.928,0,5.856.006,8.784,0,.9-.008,1.8,0,2.693.009.846.482,1.388,1.184,1.386s1.171-.552,1.172-1.4q.007-7.63,0-15.26c0-.257-.006-.513,0-.769a1.761,1.761,0,0,1,1.76-1.747,1.75,1.75,0,0,1,1.729,1.777c.012,3.313.006,6.625.007,9.938,0,2.052-.011,4.1,0,6.155a1.178,1.178,0,0,0,1.69,1.174,1.267,1.267,0,0,0,.653-1.287c-.009-3.185,0-6.369,0-9.553q0-5.29,0-10.579a1.792,1.792,0,0,1,1.608-2.026,1.76,1.76,0,0,1,1.921,1.9c.01,3.633,0,7.267,0,10.9,0,3.142-.006,6.283,0,9.425,0,1.069.917,1.67,1.753,1.172a1.3,1.3,0,0,0,.578-1.266q-.014-7.021-.006-14.042c0-.577,0-1.154,0-1.731a1.806,1.806,0,0,1,1.76-1.96,1.79,1.79,0,0,1,1.769,1.95C-276.83,1064.876-276.84,1067.655-276.84,1070.433Zm2.338-.066a.664.664,0,0,1,.243-.5c1.617-1.613,3.221-3.24,4.853-4.837a1.719,1.719,0,0,1,2.518.025,1.725,1.725,0,0,1-.065,2.473q-3.63,3.661-7.288,7.293a2.689,2.689,0,0,1-.258.183C-274.5,1073.388-274.5,1071.877-274.5,1070.367Zm.005,8.212c0-.226.16-.339.292-.471q5.978-5.981,11.961-11.957a1.825,1.825,0,0,1,2.591-.109,1.746,1.746,0,0,1-.081,2.572q-7.24,7.256-14.493,14.5c-.053.053-.114.1-.267.232C-274.494,1081.677-274.493,1080.128-274.5,1078.579Zm16.968,4.395a3.576,3.576,0,0,1-.266.278l-16.231,16.23c-.116.116-.241.224-.451.418v-15.3a1.424,1.424,0,0,0,1.242.519,1.946,1.946,0,0,0,1.031-.717q5.374-5.37,10.746-10.743a5.048,5.048,0,0,1,.563-.522,1.731,1.731,0,0,1,2.233.154,1.732,1.732,0,0,1,.211,2.278,4.82,4.82,0,0,1-.518.566q-5.393,5.4-10.788,10.792a4.318,4.318,0,0,0-.477.517,1.153,1.153,0,0,0,.115,1.471,1.177,1.177,0,0,0,1.521.134,4.287,4.287,0,0,0,.467-.438q3.923-3.92,7.843-7.843a1.944,1.944,0,0,1,1.331-.678,1.663,1.663,0,0,1,1.666.969A1.676,1.676,0,0,1-257.528,1082.973Z" transform="translate(0 0)" fill="#d10d74"/>
    <path id="Path_118" data-name="Path 118" d="M-271.459,1075.729q0,6.059,0,12.118,0,10.162,0,20.325a1.85,1.85,0,0,1-2.129,2.108h-16.863a1.842,1.842,0,0,1-2.121-2.107q0-18.145,0-36.29a1.782,1.782,0,0,1,2.261-1.94,1.737,1.737,0,0,1,1.243,1.81c.01,2.928,0,5.856.005,8.784,0,.9-.008,1.8,0,2.693.009.846.482,1.388,1.184,1.387s1.171-.552,1.172-1.4q.007-7.63,0-15.26c0-.257-.006-.513,0-.769a1.761,1.761,0,0,1,1.76-1.747,1.75,1.75,0,0,1,1.729,1.777c.012,3.313.006,6.625.007,9.938,0,2.052-.011,4.1,0,6.155a1.178,1.178,0,0,0,1.69,1.175,1.268,1.268,0,0,0,.653-1.288c-.009-3.184,0-6.369,0-9.553q0-5.29,0-10.579a1.792,1.792,0,0,1,1.608-2.026,1.761,1.761,0,0,1,1.921,1.9c.01,3.633,0,7.266,0,10.9,0,3.142-.006,6.283,0,9.425,0,1.069.917,1.67,1.753,1.172a1.3,1.3,0,0,0,.578-1.266q-.014-7.021-.006-14.042c0-.577,0-1.154,0-1.731a1.806,1.806,0,0,1,1.76-1.96,1.79,1.79,0,0,1,1.769,1.95C-271.449,1070.171-271.459,1072.95-271.459,1075.729Zm2.338-.066a.664.664,0,0,1,.243-.5c1.617-1.613,3.221-3.24,4.853-4.837a1.719,1.719,0,0,1,2.518.025,1.725,1.725,0,0,1-.065,2.473q-3.63,3.661-7.288,7.293a2.713,2.713,0,0,1-.258.183C-269.118,1078.684-269.115,1077.173-269.121,1075.662Zm.005,8.212c0-.227.16-.339.292-.471q5.978-5.981,11.961-11.957a1.825,1.825,0,0,1,2.591-.109,1.746,1.746,0,0,1-.081,2.572q-7.24,7.256-14.493,14.5c-.053.054-.114.1-.267.232C-269.114,1086.972-269.112,1085.424-269.116,1083.874Zm16.968,4.395a3.573,3.573,0,0,1-.266.278l-16.231,16.23c-.116.116-.241.224-.451.419v-15.3a1.424,1.424,0,0,0,1.242.52,1.947,1.947,0,0,0,1.031-.717q5.374-5.37,10.746-10.743a5.072,5.072,0,0,1,.563-.522,1.731,1.731,0,0,1,2.233.155,1.732,1.732,0,0,1,.211,2.278,4.824,4.824,0,0,1-.518.566q-5.393,5.4-10.788,10.792a4.351,4.351,0,0,0-.477.517,1.153,1.153,0,0,0,.115,1.471,1.177,1.177,0,0,0,1.521.134,4.29,4.29,0,0,0,.467-.438q3.923-3.92,7.843-7.843a1.946,1.946,0,0,1,1.331-.678,1.664,1.664,0,0,1,1.666.969A1.676,1.676,0,0,1-252.148,1088.269Z" transform="translate(-5.381 -5.295)" fill="#d7e501"/>
  </g>
</svg>
