<svg xmlns="http://www.w3.org/2000/svg" width="54.194" height="59.899" viewBox="0 0 54.194 59.899"><g transform="translate(-24.783 307.355)"><path d="M160.287-214.026c-.072,2.223-.168,4.446-.209,6.67-.069,3.736-.323,7.464-.477,11.2a12.819,12.819,0,0,0,.545,3.372c.6,2.629,1.35,5.217,2.068,7.815a2.542,2.542,0,0,1-.886,2.8,2.442,2.442,0,0,1-2.75.374,2.373,2.373,0,0,1-1.351-1.58,98.069,98.069,0,0,1-2.774-11.48,34.562,34.562,0,0,1,.1-5.5,10.192,10.192,0,0,0,0-1.087c-.828,1.438-1.608,2.888-2.288,4.388a10.159,10.159,0,0,0-1.233,3.244c-.177,1.991-.363,3.982-.526,5.974-.106,1.3-.151,2.608-.27,3.908a2.7,2.7,0,0,1-2.8,2.388,2.616,2.616,0,0,1-2.394-2.579c.027-2.306.242-4.605.425-6.9.091-1.139.236-2.273.331-3.411a13.322,13.322,0,0,1,1.614-4.724c.772-1.577,1.564-3.147,2.4-4.69a3.707,3.707,0,0,0,.484-2.164c-.172-1.936-.079-3.879-.129-5.818-.013-.508-.064-1.015-.1-1.562-.083.049-.15.064-.173.1-1.481,2.593-3.871,3.768-6.685,4.257a12.338,12.338,0,0,1-3.292.161,2.24,2.24,0,0,1-2.059-2.327,2.192,2.192,0,0,1,2.211-2.165,12.309,12.309,0,0,0,3.627-.475,3.63,3.63,0,0,0,2.36-1.979,18.426,18.426,0,0,1,2.026-3.63,5.129,5.129,0,0,1,4.317-2.151c1.961.035,3.923,0,5.884.017a5.322,5.322,0,0,1,4.558,2.447,16.723,16.723,0,0,1,2.6,7.447c.217,1.679.4,3.362.6,5.043a2.229,2.229,0,0,1-1.937,2.483,2.218,2.218,0,0,1-2.523-1.811c-.185-1.146-.241-2.312-.371-3.467A16.855,16.855,0,0,0,160.287-214.026Z" transform="translate(-87.095 -66.051)" fill="#c9d600"/><path d="M30.553-214.2a15.378,15.378,0,0,0-.851,3.966c-.161,1.357-.261,2.721-.392,4.082a2.3,2.3,0,0,1-2.377,2.1,2.3,2.3,0,0,1-2.148-2.333,38.564,38.564,0,0,1,1.063-8.242,14.529,14.529,0,0,1,1.757-4.1,5.422,5.422,0,0,1,4.294-2.807,49.7,49.7,0,0,1,7.344.011,5.532,5.532,0,0,1,4.185,2.687,9.665,9.665,0,0,1,1.382,3.059,37.075,37.075,0,0,0,2.775,6.925,4.275,4.275,0,0,1,.623,1.648,2.227,2.227,0,0,1-1.572,2.293,2.141,2.141,0,0,1-2.577-1.009,43.776,43.776,0,0,1-3.152-7.236.539.539,0,0,0-.322-.422c0,2.937,0,5.769,0,8.6a1.688,1.688,0,0,0,.262.8q1.742,3.274,3.331,6.623a11.679,11.679,0,0,1,.94,4.034c.264,3.008.479,6.021.722,9.031a2.737,2.737,0,0,1-2.281,3.008,2.577,2.577,0,0,1-2.918-2.324c-.179-1.559-.222-3.133-.353-4.7-.155-1.85-.335-3.7-.515-5.545a5.5,5.5,0,0,0-.655-1.9c-.856-1.719-1.732-3.427-2.6-5.139a3.207,3.207,0,0,0-.2-.277,16.128,16.128,0,0,0,.011,1.971c.491,3.776-.3,7.4-1.288,10.994-.456,1.653-.89,3.313-1.373,4.958a2.579,2.579,0,0,1-2.94,1.922,2.584,2.584,0,0,1-2.187-2.872,18.808,18.808,0,0,1,.569-2.191c.735-2.677,1.495-5.349,2.022-8.078a13.247,13.247,0,0,0,.05-3.117c-.114-2.59-.282-5.177-.348-7.769C30.762-208.395,30.651-211.242,30.553-214.2Z" transform="translate(0 -65.999)" fill="#c9d600"/><path d="M115.2-307.337c1.255.055,2.871-.117,4.478.08a3.851,3.851,0,0,1,3.4,3.8q.029,2.722,0,5.444a3.906,3.906,0,0,1-3.841,3.829c-1.458.028-1.464.029-1.165,1.455a10.639,10.639,0,0,0,.337,1.177,1.079,1.079,0,0,1-.371,1.261,1.06,1.06,0,0,1-1.309.075,13.2,13.2,0,0,1-3.749-3.388,1.379,1.379,0,0,0-1.287-.618,4.906,4.906,0,0,1-3.8-1,3.664,3.664,0,0,1-1.331-2.785c-.016-1.733-.034-3.466,0-5.2a3.926,3.926,0,0,1,4.121-4.127C112.062-307.367,113.451-307.337,115.2-307.337Zm-.321,7.765v0c-1.164,0-2.328-.008-3.492,0-.567.005-.934.316-.938.751s.367.753.936.755q3.461.014,6.922,0c.6,0,.913-.278.914-.755s-.3-.742-.913-.748C117.162-299.58,116.018-299.572,114.875-299.572Zm-.019-3.941c-1.141,0-2.282,0-3.423,0-.67,0-.993.245-.987.722s.306.717,1,.719c2.282.006,2.169,0,4.451,0,.5,0,.922-.109.909-.722-.013-.591-.414-.724-.923-.72C114.743-303.507,116-303.512,114.856-303.513Z" transform="translate(-62.966)" fill="#d10d74"/><path d="M195.7-272.739a5.186,5.186,0,0,1,5.166,5.2,5.248,5.248,0,0,1-5.192,5.134,5.268,5.268,0,0,1-5.148-5.189A5.225,5.225,0,0,1,195.7-272.739Z" transform="translate(-127.655 -26.661)" fill="#c9d600"/><path d="M54.8-272.754a5.224,5.224,0,0,1,5.114,5.205,5.259,5.259,0,0,1-5.2,5.132,5.255,5.255,0,0,1-5.139-5.251A5.214,5.214,0,0,1,54.8-272.754Z" transform="translate(-19.092 -26.65)" fill="#c9d600"/></g></svg>