<svg xmlns="http://www.w3.org/2000/svg" width="33.267" height="53.749" viewBox="0 0 33.267 53.749"><g transform="translate(-356.018 973.693)"><g transform="translate(356.018 -973.693)"><path d="M356.018-942.462q0-10.276,0-20.551a1.671,1.671,0,0,1,1.191-1.811q6.006-2.4,12.01-4.8,4.56-1.824,9.12-3.649c.278-.111.56-.216.846-.3a1.664,1.664,0,0,1,2.337,1.7c.018,2.1.024,4.2,0,6.3-.006.574.192.766.762.756,1.683-.027,3.367-.016,5.051-.007,1.339.007,1.941.6,1.941,1.95q.007,15.812,0,31.623,0,4.636,0,9.272c0,1.463-.586,2.044-2.059,2.045q-14.531.005-29.063.006c-1.6,0-2.141-.548-2.141-2.174Q356.017-932.29,356.018-942.462Zm3.361.05h0q0,9.067,0,18.134c0,.965.01.968.947.968H384.97c.948,0,.951,0,.951-.965q0-18.064,0-36.129c0-1.074,0-1.076-1.058-1.076h-24.57c-.911,0-.913,0-.913.934Z" transform="translate(-356.018 973.693)" fill="#c9d600"/></g><g transform="translate(361.916 -955.972)"><path d="M474.827-770.845a.857.857,0,0,0-.865.857.866.866,0,0,0,.845.88.852.852,0,0,0,.861-.86A.845.845,0,0,0,474.827-770.845Z" transform="translate(-463.5 781.261)" fill="#d10d74"/><path d="M499.388-753.544a.886.886,0,0,0-.9.823.894.894,0,0,0,.846.913.892.892,0,0,0,.889-.842A.878.878,0,0,0,499.388-753.544Z" transform="translate(-484.618 766.36)" fill="#d10d74"/><path d="M461.053-743.7a.88.88,0,0,0-.87.86.873.873,0,0,0,.877.874.86.86,0,0,0,.852-.867A.879.879,0,0,0,461.053-743.7Z" transform="translate(-451.632 757.884)" fill="#d10d74"/><path d="M442.513-775.748a.872.872,0,0,0-.857.866.881.881,0,0,0,.863.866.887.887,0,0,0,.874-.884A.883.883,0,0,0,442.513-775.748Z" transform="translate(-435.675 785.484)" fill="#d10d74"/><path d="M420.54-835.67c-.2-.5-.492-.541-.848-.146a1.558,1.558,0,0,1-1.143.547c-.478.014-.957,0-1.435.006-.19,0-.256-.072-.264-.261-.01-.242.063-.364.322-.336.1.011.209,0,.313,0,.162,0,.211-.062.184-.225a8.5,8.5,0,0,0-.4-1.563c-.217-.584-.219-.584-.75-.285a.137.137,0,0,0-.023.013c-.186.154-.267.027-.355-.122s-.154-.266.056-.379c.383-.205.758-.426,1.132-.649a1.63,1.63,0,0,1,1.474-.143c.369.136.584-.01.58-.4a1.68,1.68,0,0,0-.806-1.466c-.382-.246-.622-.132-.7.314a1.567,1.567,0,0,1-.757,1.1c-.4.243-.816.465-1.217.71-.174.106-.25.045-.35-.1-.14-.209-.124-.341.118-.436.088-.035.163-.1.249-.142.176-.085.169-.179.052-.321a8.751,8.751,0,0,0-1.173-1.185c-.435-.36-.438-.357-.711.122-.022.038-.045.074-.066.113-.129.24-.26.053-.386,0s-.217-.129-.115-.3c.257-.423.5-.859.753-1.282a1.545,1.545,0,0,1,1.065-.729c.456-.092.575-.36.308-.743a1.662,1.662,0,0,0-1.383-.762c-.462-.01-.6.182-.447.624a1.573,1.573,0,0,1-.121,1.356c-.223.393-.456.781-.675,1.176-.09.162-.178.2-.349.1-.274-.167-.283-.17-.117-.457a2.327,2.327,0,0,1,.13-.226c.115-.156.072-.239-.1-.3a8.625,8.625,0,0,0-1.555-.431c-.591-.1-.591-.093-.613.51a.207.207,0,0,0,0,.026c.02.23-.127.242-.3.246s-.3-.038-.294-.257c.009-.409,0-.818,0-1.226a1.717,1.717,0,0,1,.631-1.424c.29-.239.268-.492-.059-.69a1.709,1.709,0,0,0-1.58-.091c-.5.2-.544.493-.151.847a1.558,1.558,0,0,1,.548,1.143c.015.478,0,.957.007,1.435,0,.188-.067.259-.259.266-.239.009-.368-.057-.339-.319.01-.095,0-.191,0-.287.01-.184-.055-.242-.249-.209a8.48,8.48,0,0,0-1.61.426c-.628.24-.519.182-.244.675a.851.851,0,0,0,.051.091c.148.2-.017.267-.151.35s-.253.13-.356-.064c-.183-.345-.377-.687-.586-1.017a1.734,1.734,0,0,1-.2-1.639c.119-.314-.022-.509-.361-.524a1.645,1.645,0,0,0-1.519.793c-.25.38-.135.617.31.7a1.5,1.5,0,0,1,1.031.65c.286.446.538.914.809,1.37.075.127.037.2-.08.275-.293.187-.321.185-.5-.112-.044-.075-.091-.149-.128-.227-.082-.174-.176-.175-.32-.055a8.787,8.787,0,0,0-1.185,1.173c-.361.436-.358.438.12.711.03.017.059.038.09.052.257.119.087.261.025.4-.07.157-.154.205-.321.1-.392-.241-.8-.465-1.194-.7a1.6,1.6,0,0,1-.8-1.133c-.079-.418-.333-.539-.693-.311a1.65,1.65,0,0,0-.805,1.358c-.028.516.16.657.646.492a1.414,1.414,0,0,1,1.118.03c.5.249.971.542,1.454.818.059.034.115.069.1.161-.04.307-.251.418-.517.264a2.707,2.707,0,0,1-.249-.143c-.154-.112-.225-.049-.284.1a8.023,8.023,0,0,0-.432,1.555c-.1.6-.1.61.5.615.222,0,.283.09.282.3s-.051.308-.277.3c-.452-.01-.9.007-1.357-.007a1.588,1.588,0,0,1-1.233-.583c-.281-.34-.57-.318-.771.072a1.733,1.733,0,0,0-.012,1.608c.2.414.476.441.782.094a1.633,1.633,0,0,1,1.313-.58c.183,0,.365,0,.548,0,.252,0,.5.005.757,0,.179-.005.246.071.247.248,0,.311-.019.342-.333.346-.1,0-.209,0-.313,0-.15,0-.2.066-.172.214a8.444,8.444,0,0,0,.39,1.539c.224.607.231.617.795.3.212-.12.27,0,.356.141s.127.272-.074.376c-.3.157-.6.323-.881.508a1.862,1.862,0,0,1-1.8.252c-.262-.1-.436.033-.476.315a1.744,1.744,0,0,0,.8,1.592c.381.21.611.107.689-.322a1.566,1.566,0,0,1,.755-1.106c.4-.243.815-.466,1.217-.71.168-.1.254-.063.353.1.126.2.139.343-.113.439-.088.034-.163.1-.249.142-.166.081-.188.169-.064.32a8.855,8.855,0,0,0,1.112,1.136c.485.412.488.407.813-.127a.167.167,0,0,0,.014-.022c.1-.23.235-.128.375-.047s.255.137.133.334c-.251.407-.478.828-.722,1.24a1.553,1.553,0,0,1-1.079.752c-.455.091-.579.358-.316.741a1.656,1.656,0,0,0,1.329.763c.517.026.66-.161.5-.644a1.528,1.528,0,0,1,.1-1.285c.227-.411.47-.813.7-1.223.088-.159.174-.211.348-.106.276.167.286.172.122.456a2.409,2.409,0,0,1-.13.226c-.112.153-.079.239.1.3a8.642,8.642,0,0,0,1.555.431c.593.1.593.094.614-.508a.207.207,0,0,0,0-.026c-.02-.229.124-.245.3-.247s.3.036.3.255c-.009.409,0,.818,0,1.226a1.717,1.717,0,0,1-.63,1.425c-.291.241-.271.492.057.69a1.7,1.7,0,0,0,1.6.082c.48-.2.518-.486.13-.836a1.557,1.557,0,0,1-.549-1.142c-.015-.478,0-.957-.007-1.435,0-.186.064-.261.257-.268.237-.009.369.054.34.317-.011.1,0,.209,0,.313,0,.158.054.217.221.189a8.581,8.581,0,0,0,1.588-.408c.56-.209.56-.211.266-.74a.37.37,0,0,0-.026-.045c-.157-.208.027-.262.153-.346.142-.094.254-.127.356.063.211.39.436.772.661,1.154a1.616,1.616,0,0,1,.133,1.451c-.136.371.007.587.4.584a1.67,1.67,0,0,0,1.48-.826c.231-.373.115-.6-.321-.683a1.532,1.532,0,0,1-1.076-.712c-.261-.421-.5-.858-.751-1.283-.089-.149-.048-.228.09-.312.289-.175.3-.179.468.121.043.075.093.148.131.226.082.172.175.178.321.057a8.757,8.757,0,0,0,1.168-1.153c.378-.453.374-.456-.124-.745a.743.743,0,0,0-.068-.039c-.235-.1-.11-.241-.037-.378s.146-.243.337-.124c.391.244.8.465,1.193.7a1.591,1.591,0,0,1,.8,1.135c.077.415.332.533.7.3a1.636,1.636,0,0,0,.8-1.383c.02-.485-.17-.623-.624-.469a1.57,1.57,0,0,1-1.334-.112c-.4-.226-.8-.467-1.2-.686-.19-.1-.176-.206-.088-.374.111-.213.233-.254.425-.107.075.057.171.089.247.145.16.118.239.063.3-.107a8.746,8.746,0,0,0,.427-1.53c.1-.613.1-.62-.51-.632-.207,0-.273-.085-.27-.282s.018-.324.26-.318c.426.01.852,0,1.278,0a1.68,1.68,0,0,1,1.354.612c.261.311.517.289.721-.065A1.719,1.719,0,0,0,420.54-835.67Zm-11.617-4.836a1.46,1.46,0,0,1,1.439,1.45,1.435,1.435,0,0,1-1.433,1.446,1.464,1.464,0,0,1-1.462-1.454A1.479,1.479,0,0,1,408.922-840.506Zm-3.546,6.6a1.458,1.458,0,0,1-1.447-1.437,1.489,1.489,0,0,1,1.446-1.454,1.462,1.462,0,0,1,1.448,1.466A1.424,1.424,0,0,1,405.376-833.9Zm2.558,4.474a1.461,1.461,0,0,1-1.417-1.469,1.417,1.417,0,0,1,1.446-1.423,1.461,1.461,0,0,1,1.447,1.44A1.492,1.492,0,0,1,407.934-829.428Zm1.906-3.771a1.48,1.48,0,0,1-1.437-1.459,1.482,1.482,0,0,1,1.451-1.446,1.466,1.466,0,0,1,1.445,1.447A1.464,1.464,0,0,1,409.84-833.2Zm3.424,2.386a1.433,1.433,0,0,1-1.435-1.449,1.468,1.468,0,0,1,1.449-1.446,1.489,1.489,0,0,1,1.446,1.46A1.466,1.466,0,0,1,413.264-830.813Zm.327-4.5a1.462,1.462,0,0,1-1.434-1.456,1.466,1.466,0,0,1,1.45-1.441,1.464,1.464,0,0,1,1.446,1.471A1.462,1.462,0,0,1,413.591-835.316Z" transform="translate(-398.536 845.937)" fill="#d10d74"/><path d="M468.066-800.785a.824.824,0,0,0,.848-.857.828.828,0,0,0-.858-.85.843.843,0,0,0-.851.862A.829.829,0,0,0,468.066-800.785Z" transform="translate(-457.68 808.518)" fill="#d10d74"/><path d="M501.893-785.964a.824.824,0,0,0-.86.846.824.824,0,0,0,.846.86.824.824,0,0,0,.86-.846A.824.824,0,0,0,501.893-785.964Z" transform="translate(-486.816 794.283)" fill="#d10d74"/></g></g></svg>