<svg xmlns="http://www.w3.org/2000/svg" width="54.54" height="40.062" viewBox="0 0 54.54 40.062">
  <g id="Group_123" data-name="Group 123" transform="translate(-4.823 -1352.15)">
    <path id="Path_119" data-name="Path 119" d="M148.158,1363.528l-8.644-4.191L112.1,1363l-1.659.524.844,7.072.9,5.912-1.746,5.052-1.746,2.743,8.207,8.12,8.906,4.1,8.033,1.484,6.178-2.881,3.787-2.908,4.124-6.552.783-1.7,1.771-3.3.2-3.27.75-2.46Z" transform="translate(-92.114 -6.374)" fill="#c9d600"/>
    <g id="Group_122" data-name="Group 122" transform="translate(4.823 1352.15)">
      <path id="Path_120" data-name="Path 120" d="M22.363,1374.44a35.294,35.294,0,0,0,4.042,2.5,36.273,36.273,0,0,0,12.89,4.28,18.6,18.6,0,0,0,2.589.17,5.843,5.843,0,0,1,.9.05c.614.085.949.439.921.94s-.409.823-1.012.845a20.549,20.549,0,0,1-3.1-.162,40.117,40.117,0,0,1-19.449-8.012c-.343-.253-.545-.293-.792.114-.42.691-.88,1.359-1.347,2.02a.542.542,0,0,0,.054.826c2.336,2.323,4.642,4.677,6.993,6.985a9.965,9.965,0,0,0,3.373,2.021c2.2.88,4.4,1.765,6.63,2.579a12.97,12.97,0,0,0,10.659-.69,9.82,9.82,0,0,0,4.463-4,.87.87,0,0,1,1.261-.345.908.908,0,0,1,.249,1.288,11.089,11.089,0,0,1-4.641,4.405,15.818,15.818,0,0,1-7.347,1.953,13.067,13.067,0,0,1-4.718-.734q-3.783-1.407-7.526-2.922a14.113,14.113,0,0,1-4.94-3.487c-2.057-2.173-4.2-4.268-6.318-6.381-.442-.44-.716-.874-.368-1.488.154-.271-.058-.416-.21-.575q-1.19-1.245-2.385-2.485c-2.3-2.384-4.647-4.725-6.888-7.164a5.239,5.239,0,0,1-1.007-5.981,5.246,5.246,0,0,1,4.944-3.342,34.086,34.086,0,0,1,5.033.615c.672.081,1.341.188,2.01.291.29.045.434-.009.345-.351a7.708,7.708,0,0,1-.129-.836,1,1,0,0,1,.969-1.294c1.9-.273,3.8-.535,5.7-.8q6.955-.982,13.91-1.964c2.756-.387,5.508-.812,8.273-1.127a6.517,6.517,0,0,1,3.6.76c1.47.722,2.943,1.438,4.4,2.189a5.843,5.843,0,0,1,3.165,4.169c.589,2.8,1.155,5.6,1.728,8.4a2.986,2.986,0,0,1,.074.5.862.862,0,0,1-1.129.944c-1.652-.449-3.3-.926-4.939-1.412a.882.882,0,0,1-.665-1.082.862.862,0,0,1,1.148-.625c.968.238,1.922.532,2.881.805.626.178.647.162.517-.475q-.688-3.373-1.38-6.746a3.834,3.834,0,0,0-2.068-2.806c-1.493-.759-3-1.484-4.5-2.239a6.47,6.47,0,0,0-4.017-.456c-4.427.658-8.862,1.265-13.293,1.892q-5.977.846-11.955,1.687c-.4.055-.509.234-.451.606.42,2.713.841,5.427,1.243,8.143.071.479.28.6.752.567,2.606-.2,5.214-.37,7.821-.554q4.5-.317,9-.639,2.758-.193,5.516-.37c.732-.048,1.464-.1,2.2-.119.631-.017,1,.283,1.046.788s-.313.912-.946.962c-2.024.159-4.05.3-6.076.444q-4.614.327-9.228.647-3.6.248-7.205.482-1.069.071-2.14.128c-.414.023-.638.179-.671.647-.061.862-.184,1.719-.3,2.577-.052.382.055.546.469.557,2.388.065,4.776.149,7.164.232,4.437.155,8.874.3,13.311.48q1.184.048,2.368.091c.69.026,1.143.406,1.134.931-.009.542-.453.918-1.154.894-2.481-.086-4.962-.2-7.442-.3-1.128-.046-2.256-.061-3.384-.113-2.781-.128-5.566-.177-8.349-.278A19.159,19.159,0,0,0,22.363,1374.44Zm-3.193-6.419c-.013-.079-.029-.171-.043-.264-.343-2.248-.7-4.493-1.018-6.744-.061-.427-.254-.556-.645-.611q-3.238-.454-6.47-.947a3.824,3.824,0,0,0-3.857,1.889,3.67,3.67,0,0,0,.427,4.312c3.005,3.163,6.049,6.289,9.067,9.439.307.32.47.246.677-.087.348-.558.73-1.1,1.089-1.647a1.163,1.163,0,0,0,.215-.453C18.807,1371.284,18.985,1369.659,19.17,1368.02Z" transform="translate(-4.823 -1352.15)" fill="#d10d74"/>
      <path id="Path_121" data-name="Path 121" d="M386.774,1571.477c-.113,0-.226,0-.338,0a.916.916,0,0,1-1.01-.841c-.03-.516.282-.876.9-.95.744-.088,1.493-.1,2.234-.265a4,4,0,0,0,2.649-1.843,14.384,14.384,0,0,0,1.235-2.4c.25-.627.721-.877,1.22-.69.533.2.72.708.453,1.36a10.163,10.163,0,0,1-2.783,4.243A7.91,7.91,0,0,1,386.774,1571.477Z" transform="translate(-342.344 -1540.399)" fill="#d10d74"/>
      <path id="Path_122" data-name="Path 122" d="M419.036,1512.657c-.045.732-.076,1.427-.133,2.119a1,1,0,0,1-1.05,1.024l-5.176.317c-.113.007-.226.011-.338.008-.642-.015-1.026-.334-1.046-.866-.022-.563.344-.914,1.016-.963q.872-.062,1.744-.107c.863-.046,1.727-.1,2.591-.121.382-.009.533-.142.537-.532.006-.544.051-1.089.111-1.63a.884.884,0,0,1,.9-.831.865.865,0,0,1,.84.886C419.048,1512.205,419.036,1512.45,419.036,1512.657Z" transform="translate(-365.284 -1493.086)" fill="#d10d74"/>
    </g>
  </g>
</svg>
