<svg xmlns="http://www.w3.org/2000/svg" width="46.68" height="36.503" viewBox="0 0 46.68 36.503"><g transform="translate(0 0)"><path d="M476.838-413.916a4.091,4.091,0,0,1-1.114,1.953,3.661,3.661,0,0,1-2.568,1c-1.564-.014-3.128.008-4.692-.015a.625.625,0,0,0-.714.509c-.779,2.428-1.581,4.849-2.376,7.272-.3.916-.391.978-1.364.976-1.23,0-2.46,0-3.69,0-.871,0-1.15-.354-.958-1.209q.861-3.842,1.727-7.683.314-1.4.618-2.8a3.659,3.659,0,0,1,3.619-2.937c1.245,0,2.49-.012,3.735.005.362.005.482-.122.467-.476-.022-.546-.014-1.093,0-1.639.005-.274-.061-.362-.339-.233-.426.2-.878.344-1.3.558a4.283,4.283,0,0,1-2.025.39q-12.117-.02-24.233,0a6.642,6.642,0,0,1-3.027-.616c-1.082-.526-1.1-.481-1.1.706,0,.288.019.578,0,.865-.025.346.124.444.453.441,1.245-.013,2.49-.008,3.735,0a3.66,3.66,0,0,1,3.627,2.93q1.137,5.11,2.289,10.216a4.543,4.543,0,0,1,.113.626.724.724,0,0,1-.734.85c-1.488.016-2.976.01-4.464.005-.435,0-.64-.292-.763-.665q-.735-2.227-1.47-4.454c-.351-1.067-.706-2.133-1.041-3.2a.521.521,0,0,0-.588-.424c-1.625.015-3.249.01-4.874,0a3.613,3.613,0,0,1-3.62-3.62q-.012-5.1,0-10.2a2.162,2.162,0,0,1,2.266-2.262c1.351-.01,2.7.011,4.054-.013a1.234,1.234,0,0,1,1.056.5c.952,1.163,1.924,2.309,2.872,3.475a.959.959,0,0,0,.845.415c.834-.025,1.671.02,2.5-.012a2.378,2.378,0,0,1,2.436,1.463c0-.848.044-1.7-.009-2.543a3.791,3.791,0,0,1,2.934-3.967c.842-.189,1.665-.468,2.489-.732a.984.984,0,0,1,1.108.281c.783.794.8.794,1.585.037a1.08,1.08,0,0,1,1.158-.3c.943.287,1.9.538,2.836.843a3.629,3.629,0,0,1,2.531,3.519c0,.955,0,1.911,0,2.873.119-.035.115-.142.153-.216a2.138,2.138,0,0,1,2.011-1.25q1.435-.015,2.87,0a.776.776,0,0,0,.664-.313c.955-1.16,1.929-2.3,2.873-3.474a1.4,1.4,0,0,1,1.236-.6c1.2.038,2.4.051,3.6,0a2.368,2.368,0,0,1,2.6,1.677Z" transform="translate(-430.157 438.728)" fill="#007161"/><path d="M853.963-519.153a4.838,4.838,0,0,1-1.715,2.716,4.461,4.461,0,0,1-5.044.176,4.386,4.386,0,0,1-1.933-4.613,4.4,4.4,0,0,1,3.708-3.478,4.412,4.412,0,0,1,4.816,3.041c.055.173.112.346.169.518Z" transform="translate(-807.283 525.833)" fill="#007161"/><path d="M642.16-540.142a4.352,4.352,0,0,1,4.4,4.471,4.377,4.377,0,0,1-4.269,4.332,4.353,4.353,0,0,1-4.533-4.383A4.346,4.346,0,0,1,642.16-540.142Z" transform="translate(-618.803 540.142)" fill="#007161"/><path d="M434.6-524.144a4.347,4.347,0,0,1,4.393,4.337,4.353,4.353,0,0,1-4.5,4.462,4.347,4.347,0,0,1-4.3-4.428A4.351,4.351,0,0,1,434.6-524.144Z" transform="translate(-430.189 525.604)" fill="#007161"/></g><path d="M634.872-295.694c.07.017.143.02.214.032a2.688,2.688,0,0,1,1.071.4,1.809,1.809,0,0,1,.808,1.264,2.622,2.622,0,0,1,.034.437q0,1,0,2v.078c.012-.122.025-.245.041-.366a4.737,4.737,0,0,1,.364-1.348,3.312,3.312,0,0,1,.529-.833,2.965,2.965,0,0,1,.773-.629,3.6,3.6,0,0,1,1.22-.414,4.783,4.783,0,0,1,.764-.058h2.792c.094,0,.1,0,.09.1a3.085,3.085,0,0,1-.111.64,2.482,2.482,0,0,1-.341.745,1.811,1.811,0,0,1-1.209.771,2.924,2.924,0,0,1-.526.042q-.943,0-1.885,0h-.064c.185.022.368.045.551.077a4.353,4.353,0,0,1,1.269.413,3.149,3.149,0,0,1,.875.659,2.986,2.986,0,0,1,.437.615,3.685,3.685,0,0,1,.394,1.25,5.045,5.045,0,0,1,.045.7q0,1.374,0,2.748c0,.017,0,.033,0,.05,0,.054-.01.062-.062.058a3.3,3.3,0,0,1-.646-.106,2.5,2.5,0,0,1-.758-.339,1.8,1.8,0,0,1-.774-1.164,2.359,2.359,0,0,1-.046-.391c-.015-.408,0-.816-.007-1.223,0-.284,0-.567,0-.851v-.059c-.019.136-.034.272-.054.408a4.407,4.407,0,0,1-.469,1.47,3.2,3.2,0,0,1-.479.666,3,3,0,0,1-.848.63,3.554,3.554,0,0,1-.975.317,4.771,4.771,0,0,1-.624.07c-.1,0-.2.007-.306.007h-2.82v-.167a.172.172,0,0,0,.018-.069c.008-.078.02-.154.035-.231a2.713,2.713,0,0,1,.331-.9,1.8,1.8,0,0,1,.784-.726,2.057,2.057,0,0,1,.878-.2c.7,0,1.4,0,2.1,0h.07a.49.49,0,0,0-.083-.01,6.251,6.251,0,0,1-.742-.109,4.294,4.294,0,0,1-1.007-.344,3.156,3.156,0,0,1-.982-.743,3.07,3.07,0,0,1-.533-.861,4.079,4.079,0,0,1-.3-1.541c-.007-.975,0-1.95,0-2.925,0-.013,0-.026,0-.039Zm5.841,4.715a1.859,1.859,0,0,0-1.82-1.859A1.863,1.863,0,0,0,637-290.983a1.859,1.859,0,0,0,1.865,1.862A1.852,1.852,0,0,0,640.713-290.979Z" transform="translate(-615.516 318.011)" fill="#d10d74"/></svg>