<svg xmlns="http://www.w3.org/2000/svg" width="24.854" height="20.171" viewBox="0 0 24.854 20.171"><g transform="translate(-1215.288 -26.72)" fill="none"><path d="M1236.558,33.513c-1.9,1.317-3.817,2.634-5.707,3.963-.794.548-2.134,1.671-3.122,1.671h-.025c-.988,0-2.331-1.123-3.123-1.671-1.889-1.329-3.8-2.646-5.694-3.963-.866-.585-2.1-1.963-2.1-3.074a1.978,1.978,0,0,1,1.953-2.219h17.952a1.963,1.963,0,0,1,1.95,1.951A4.405,4.405,0,0,1,1236.558,33.513Zm2.085,9.927a1.955,1.955,0,0,1-1.95,1.951H1218.74a1.957,1.957,0,0,1-1.953-1.951V33.756a6.825,6.825,0,0,0,1.232,1.062c2.025,1.379,4.074,2.756,6.061,4.207a6.683,6.683,0,0,0,3.623,1.683h.025a6.674,6.674,0,0,0,3.621-1.683c1.989-1.439,4.038-2.828,6.074-4.207a7.125,7.125,0,0,0,1.219-1.062Z" stroke="none"/><path d="M 1218.740478515625 28.22000122070312 C 1217.435546875 28.22000122070312 1216.787963867188 29.24468231201172 1216.787963867188 30.43877029418945 C 1216.787963867188 31.54952239990234 1218.020263671875 32.92805099487305 1218.886596679688 33.51280212402344 C 1220.776123046875 34.82985305786133 1222.691528320312 36.14691162109375 1224.580932617188 37.47624969482422 C 1225.37353515625 38.02412033081055 1226.716552734375 39.14715957641602 1227.704223632812 39.14715957641602 L 1227.715209960938 39.14715957641602 L 1227.728881835938 39.14715957641602 C 1228.716674804688 39.14715957641602 1230.057006835938 38.02412033081055 1230.850830078125 37.47624969482422 C 1232.740234375 36.14691162109375 1234.654296875 34.82985305786133 1236.5576171875 33.51280212402344 C 1237.63134765625 32.7681999206543 1238.642456054688 31.53586196899414 1238.642456054688 30.17098236083984 C 1238.642456054688 29.09712219238281 1237.753051757812 28.22000122070312 1236.69287109375 28.22000122070312 L 1218.740478515625 28.22000122070312 M 1216.787963867188 33.7559928894043 L 1216.787963867188 43.43988037109375 C 1216.787963867188 44.51374053955078 1217.666625976562 45.39086151123047 1218.740478515625 45.39086151123047 L 1236.69287109375 45.39086151123047 C 1237.765258789062 45.39086151123047 1238.642456054688 44.51374053955078 1238.642456054688 43.43988037109375 L 1238.642456054688 33.7559928894043 C 1238.277587890625 34.15903091430664 1237.8623046875 34.51288986206055 1237.423706054688 34.81756210327148 C 1235.387939453125 36.19609069824219 1233.338623046875 37.58555221557617 1231.349487304688 39.02420043945312 C 1230.324829101562 39.78110122680664 1229.058227539062 40.70741271972656 1227.728881835938 40.70741271972656 L 1227.715209960938 40.70741271972656 L 1227.704223632812 40.70741271972656 C 1226.375 40.70741271972656 1225.105712890625 39.78110122680664 1224.080932617188 39.02420043945312 C 1222.094482421875 37.57326126098633 1220.045166015625 36.19609069824219 1218.020263671875 34.81756210327148 C 1217.569458007812 34.51288986206055 1217.154296875 34.15903091430664 1216.787963867188 33.7559928894043 M 1218.740478515625 26.72000122070312 L 1236.69287109375 26.72000122070312 C 1238.496215820312 26.72000122070312 1239.980712890625 28.11162567138672 1240.130126953125 29.87767791748047 L 1240.142456054688 29.86404037475586 L 1240.142456054688 30.17098236083984 L 1240.142456054688 33.7559928894043 L 1240.142456054688 43.43988037109375 C 1240.142456054688 45.3427619934082 1238.594970703125 46.89086151123047 1236.69287109375 46.89086151123047 L 1218.740478515625 46.89086151123047 C 1216.836791992188 46.89086151123047 1215.287963867188 45.3427619934082 1215.287963867188 43.43988037109375 L 1215.287963867188 33.7559928894043 L 1215.287963867188 29.8756103515625 L 1215.318481445312 29.90913009643555 C 1215.405517578125 29.16096115112305 1215.677124023438 28.47658920288086 1216.1044921875 27.94338226318359 C 1216.736938476562 27.15447235107422 1217.673095703125 26.72000122070312 1218.740478515625 26.72000122070312 Z" stroke="none" fill="#2c2c2c"/></g></svg>