<svg id="Group_112" data-name="Group 112" xmlns="http://www.w3.org/2000/svg" width="52.736" height="46.725" viewBox="0 0 52.736 46.725">
  <path id="Path_106" data-name="Path 106" d="M200.527,1014.837q0,7.662,0,15.324c0,2.493-1.093,3.613-3.6,3.571-3.783-.064-3.6.365-6.87-2.277a34.63,34.63,0,0,0-18.243-7.167c-1.868-.214-3.743-.3-5.624-.323-2.973-.044-5.946-.126-8.918-.211-2.436-.07-3.475-1.13-3.482-3.547q-.014-5.557,0-11.114a2.918,2.918,0,0,1,2.933-3.3,13.746,13.746,0,0,1,1.428-.061c3.871-.066,7.753.03,11.612-.225,8.041-.531,15.374-3.04,21.574-8.375a4.439,4.439,0,0,1,3.289-1.225c.923.056,1.852.009,2.778.015a2.855,2.855,0,0,1,3.107,3.086c.014,5.276,0,10.553,0,15.829Zm-25.384-1.2c.337,0,.674.008,1.01,0,1.051-.029,1.362-.328,1.383-1.354.014-.7-.009-1.4.006-2.1.011-.522-.176-.7-.715-.577a29.6,29.6,0,0,1-2.978.538c-.747.085-.984.414-.992,1.142C172.832,1013.613,172.832,1013.636,175.142,1013.633Z" transform="translate(-153.785 -995.897)" fill="#d10d74"/>
  <path id="Path_107" data-name="Path 107" d="M176.252,1126.963c-1.073,0-1.943.014-2.813,0-2.576-.048-3.9-1.372-3.837-3.951a30.888,30.888,0,0,0-1.057-8.989c-.314-1.134-.693-2.251-1.1-3.356-.219-.6-.189-.913.543-.886,2.521.094,5.044.163,7.564.271,1.82.078,3.643.026,5.464.184a1.417,1.417,0,0,1,1.471,1.155,24.394,24.394,0,0,1,.144,12.882,3.311,3.311,0,0,1-2.969,2.6A30.034,30.034,0,0,1,176.252,1126.963Z" transform="translate(-163.815 -1080.246)" fill="#c9d600"/>
  <path id="Path_108" data-name="Path 108" d="M338.858,1048.517c0-2.1-.007-4.205,0-6.308,0-.839.206-.939.931-.509a8.067,8.067,0,0,1,.057,13.65c-.253.151-.531.436-.837.257-.27-.159-.146-.514-.147-.782-.008-2.1,0-4.205,0-6.308Z" transform="translate(-290.851 -1029.638)" fill="#c9d600"/>
</svg>
