<svg xmlns="http://www.w3.org/2000/svg" width="25.044" height="59.508" viewBox="0 0 25.044 59.508"><g transform="translate(-75.362 -112.746)"><path d="M92.427,182.267a3.282,3.282,0,0,1-1.619,0,3.23,3.23,0,0,1-2.108-1.752,2.925,2.925,0,0,1-.251-1.2q-.007-4.751,0-9.5c0-4.153,0-8.3.009-12.457,0-.493-.142-.72-.66-.673s-.406.431-.406.736q-.01,10.718-.009,21.438a3.637,3.637,0,0,1-.527,2.151,3.326,3.326,0,0,1-1.83,1.258,3.284,3.284,0,0,1-1.619,0,3.477,3.477,0,0,1-2.354-3.646q.031-16.258.01-32.516v-3.787a1.208,1.208,0,0,0-.294.522,27.86,27.86,0,0,0-1.236,8.094c-.091,2.18.023,4.362.093,6.543a1.956,1.956,0,0,1-1.958,2.117,2.019,2.019,0,0,1-2.164-2.057c-.007-.193-.009-.386-.018-.579a51.636,51.636,0,0,1,.611-12.747,15.162,15.162,0,0,1,2.3-5.892,6.1,6.1,0,0,1,5.431-2.837c2.792.069,5.588.054,8.381.01a5.773,5.773,0,0,1,4.743,2.216,15.162,15.162,0,0,1,2.922,7.213c.1.557.233,1.476.34,2.481.111,1.04.164,1.912.192,2.532-.011,3.441-.017,5.949,0,6.825,0,.089-.051.42-.075.861a2.018,2.018,0,0,1-2.181,1.972,1.968,1.968,0,0,1-1.948-2.079c.013-.906.094-1.812.109-2.719a49.525,49.525,0,0,0-.458-8.715,16.407,16.407,0,0,0-1-3.8.7.7,0,0,0-.069.483q-.007,17.929,0,35.858A3.481,3.481,0,0,1,92.427,182.267Z" transform="translate(0 -10.115)" fill="#c9d600"/><path d="M93.455,112.746a5.666,5.666,0,0,1,5.647,5.013,13.486,13.486,0,0,1-.074,1.587,4.229,4.229,0,0,1-.367,1.332,7.444,7.444,0,0,1-.781,1.291,19.443,19.443,0,0,1-2.653,2.472,3.231,3.231,0,0,1-4.379-.634s-1.034-.938-1.48-1.368-.3-.353-.3-.353c-1.113-1.137-1.352-4.043-1.3-4.38A5.673,5.673,0,0,1,93.455,112.746Z" transform="translate(-5.51 0)" fill="#d10d74"/><path d="M93.455,112.746a5.666,5.666,0,0,1,5.647,5.013.81.81,0,0,1-.289.769,4.616,4.616,0,0,1-1.528.914c-.106.038-.261.076-.228.214.045.187.207.122.336.086a4.511,4.511,0,0,0,1.237-.614c.107-.069.218-.207.356-.109.1.074.051.215.041.327a4.229,4.229,0,0,1-.367,1.332c-.2.459-.635.436-1.027.5-.159.027-.409-.018-.364.239.034.2.249.118.4.1.129-.012.29-.105.37.041s-.054.3-.155.4a19.443,19.443,0,0,1-2.653,2.472,3.231,3.231,0,0,1-4.379-.634c-.551-.63-1.283-1.052-1.783-1.721-.112-.15-.326-.29-.247-.49.09-.224.3-.032.462-.044.132-.011.306.027.319-.157s-.157-.183-.29-.211a1.746,1.746,0,0,1-1.5-1.93c.008-.336.138-.3.348-.176a5.376,5.376,0,0,0,1.222.645c.141.043.325.166.407-.024.094-.217-.139-.228-.269-.28a4.612,4.612,0,0,1-1.478-.885.867.867,0,0,1-.281-.828A5.673,5.673,0,0,1,93.455,112.746Zm-.037,11.583a3.251,3.251,0,0,0,.345,0,1.5,1.5,0,0,0,.28-.067,3.478,3.478,0,0,0,2.478-3.035c.171-1-.1-1.458-1.018-1.76a6.722,6.722,0,0,0-3.918-.074c-1.178.321-1.449.795-1.236,1.984A3.365,3.365,0,0,0,93.418,124.329Z" transform="translate(-5.51 0)" fill="#c9d600"/></g></svg>