<svg xmlns="http://www.w3.org/2000/svg" width="35.044" height="83" viewBox="0 0 35.044 83">
  <g id="Group_33" data-name="Group 33" transform="translate(-28.887 -331)">
    <g id="Group_32" data-name="Group 32" transform="translate(29 331)">
      <path id="Path_41" data-name="Path 41" d="M99.164,200.737a4.577,4.577,0,0,1-2.258,0,4.505,4.505,0,0,1-2.94-2.443,4.08,4.08,0,0,1-.351-1.672q-.01-6.626,0-13.253c0-5.792-.007-11.583.013-17.375,0-.688-.2-1-.921-.939s-.566.6-.567,1.027q-.014,14.949-.013,29.9a5.072,5.072,0,0,1-.735,3,4.639,4.639,0,0,1-2.552,1.754,4.579,4.579,0,0,1-2.258,0c-2.34-.887-3.288-2.617-3.283-5.086q.043-22.677.014-45.353v-5.282a1.684,1.684,0,0,0-.41.728,38.858,38.858,0,0,0-1.724,11.289c-.127,3.04.032,6.084.129,9.126a2.729,2.729,0,0,1-2.731,2.953,2.816,2.816,0,0,1-3.018-2.869c-.009-.269-.012-.539-.026-.807a72.021,72.021,0,0,1,.852-17.78,21.147,21.147,0,0,1,3.2-8.217,8.513,8.513,0,0,1,7.576-3.957c3.894.1,7.794.076,11.69.014a8.053,8.053,0,0,1,6.615,3.091c2.427,2.909,3.395,6.43,4.076,10.06.146.777.325,2.059.475,3.461.155,1.45.229,2.666.268,3.532-.015,4.8-.024,8.3,0,9.52,0,.125-.071.585-.1,1.2a2.815,2.815,0,0,1-3.042,2.751,2.745,2.745,0,0,1-2.717-2.9c.018-1.264.132-2.527.152-3.792a69.077,69.077,0,0,0-.639-12.156,22.884,22.884,0,0,0-1.4-5.3.969.969,0,0,0-.1.674q-.01,25.007,0,50.014C102.449,198.115,101.5,199.849,99.164,200.737Z" transform="translate(-75.362 -117.879)" fill="#d10d74"/>
      <path id="Path_43" data-name="Path 43" d="M95.7,112.746a7.9,7.9,0,0,1,7.876,6.993,18.811,18.811,0,0,1-.1,2.213,5.9,5.9,0,0,1-.512,1.858,10.383,10.383,0,0,1-1.089,1.8,27.12,27.12,0,0,1-3.7,3.447,4.507,4.507,0,0,1-6.108-.885s-1.443-1.308-2.064-1.908-.423-.492-.423-.492c-1.552-1.586-1.886-5.639-1.819-6.109A7.912,7.912,0,0,1,95.7,112.746Z" transform="translate(-78.156 -112.746)" fill="#d5e300"/>
      <path id="Path_42" data-name="Path 42" d="M95.708,112.746a7.9,7.9,0,0,1,7.876,6.993,1.13,1.13,0,0,1-.4,1.073,6.438,6.438,0,0,1-2.131,1.274c-.148.053-.364.106-.318.3.063.26.289.17.469.12a6.292,6.292,0,0,0,1.725-.857c.149-.1.3-.289.5-.152.144.1.07.3.057.457a5.9,5.9,0,0,1-.512,1.858c-.279.64-.886.609-1.433.7-.222.037-.571-.025-.508.334.048.274.348.165.553.146.18-.017.4-.147.516.057.12.224-.075.417-.217.564a27.118,27.118,0,0,1-3.7,3.447,4.507,4.507,0,0,1-6.108-.885c-.768-.879-1.789-1.468-2.487-2.4-.156-.209-.455-.4-.345-.683.125-.312.424-.044.644-.062.183-.015.427.037.444-.218s-.219-.255-.4-.294a2.436,2.436,0,0,1-2.087-2.692c.011-.469.192-.425.485-.245a7.5,7.5,0,0,0,1.7.9c.2.06.453.232.568-.034.132-.3-.194-.318-.375-.391a6.433,6.433,0,0,1-2.062-1.234,1.21,1.21,0,0,1-.393-1.155A7.912,7.912,0,0,1,95.708,112.746ZM95.656,128.9a4.535,4.535,0,0,0,.482,0,2.091,2.091,0,0,0,.39-.094,4.851,4.851,0,0,0,3.456-4.233c.238-1.392-.133-2.034-1.42-2.454a9.376,9.376,0,0,0-5.464-.1c-1.644.447-2.021,1.109-1.723,2.768C91.8,127.14,93.63,128.908,95.656,128.9Z" transform="translate(-78.159 -112.746)" fill="#d10d74"/>
    </g>
    <path id="Polygon_1" data-name="Polygon 1" d="M17.5,0,35,28H0Z" transform="translate(28.887 364)" fill="#d10d74"/>
  </g>
</svg>
