<svg id="relief_1" xmlns="http://www.w3.org/2000/svg" width="23.28" height="29.618" viewBox="0 0 23.28 29.618">
  <path id="Path_34" data-name="Path 34" d="M-506.533,375.377a.22.22,0,0,1-.055-.288,6.175,6.175,0,0,0,.22-.6,14.115,14.115,0,0,0,.483-4.126c0-.492-.013-.987-.043-1.478-.056-.939-.137-1.874-.251-2.807-.185-1.517-.421-3.027-.75-4.52a.777.777,0,0,1,.24-.828,3.155,3.155,0,0,0,.963-2.376,4.068,4.068,0,0,0-.268-1.166c-.308-.963-.636-1.92-.924-2.89a1.6,1.6,0,0,0-.776-.955,5.411,5.411,0,0,0-1.262-.519,19.14,19.14,0,0,0-3.326-.6,1.194,1.194,0,0,1-.675-.251c-1-.815-2.008-1.622-3.032-2.411a2.275,2.275,0,0,0-2.814.065c-.972.791-1.949,1.574-2.914,2.373a1,1,0,0,1-.554.229,19.225,19.225,0,0,0-3.431.637,4.215,4.215,0,0,0-1.453.686.961.961,0,0,0-.4.554,7.338,7.338,0,0,1-.238.841c-.251.769-.451,1.552-.739,2.306a3.259,3.259,0,0,0-.264,1.2,3.281,3.281,0,0,0,1.044,2.38.235.235,0,0,1,.072.247c-.092.436-.185.87-.266,1.308-.3,1.595-.541,3.195-.7,4.8-.091.924-.157,1.861-.185,2.794a19.434,19.434,0,0,0,.081,2.4,9.805,9.805,0,0,0,.623,2.805.146.146,0,0,1-.043.2,2.135,2.135,0,0,0-.6.759,1.309,1.309,0,0,0-.151,1.228,1.308,1.308,0,0,0,.94.8,3.635,3.635,0,0,0,1.051.185c.532.028,1.064,0,1.6.02,1.2.048,2.4.135,3.6.2q2.016.116,4.036.129c1.347,0,2.692-.026,4.038-.092.652-.031,1.306-.059,1.959-.109,1.135-.085,2.269-.129,3.437-.155.135,0,.3.011.464,0a3.131,3.131,0,0,0,1.5-.4,1.155,1.155,0,0,0,.542-1.214A2.445,2.445,0,0,0-506.533,375.377Zm-3.936-21.789a10.812,10.812,0,0,1,1.765.469,3.11,3.11,0,0,1,.519.247c.1.059.1.122,0,.185a3.868,3.868,0,0,1-.909.421.185.185,0,0,1-.185-.039l-1.611-1.282a.379.379,0,0,1-.046-.065,1.506,1.506,0,0,1,.468.065Zm-10.776-.569,3.054-2.487a1.216,1.216,0,0,1,1.654-.02l4.172,3.308q.878.7,1.752,1.4l.072.063-.009.052a36.918,36.918,0,0,1-13.447,0c-.019-.068,0-.085.026-.1Zm-5.131,1.294a4.594,4.594,0,0,1,1.223-.479,12.76,12.76,0,0,1,1.432-.312.088.088,0,0,1,.091.013l-.684.554c-.3.242-.6.482-.892.739a.3.3,0,0,1-.342.066,3.884,3.884,0,0,1-.834-.39c-.105-.067-.1-.116.005-.181Zm5.327,19.735q-.723.66-1.441,1.325a.408.408,0,0,1-.251.128.3.3,0,0,1-.272-.185.266.266,0,0,1,.052-.321l.554-.554c.355-.333.719-.654,1.068-.992.126-.122.2-.116.316.013C-520.752,373.777-520.748,373.774-521.05,374.047Zm.329-1.341a4.473,4.473,0,0,1-.776-2.206,2.155,2.155,0,0,1,.728-1.595,4.721,4.721,0,0,1,1-.739c.107-.061.205-.085.275.044a3.622,3.622,0,0,1,.591,2.269,2.942,2.942,0,0,1-.892,1.63,5.35,5.35,0,0,1-.7.613c-.083.067-.155.081-.216-.018Zm5.174-.009a3.622,3.622,0,0,1-1.609,1.478,1.589,1.589,0,0,1-.685.129,2.955,2.955,0,0,1-1.371-.355,5.883,5.883,0,0,1-.852-.523c-.1-.07-.115-.137-.041-.231a3.737,3.737,0,0,1,1.914-1.436,2.421,2.421,0,0,1,1.534.141,4.472,4.472,0,0,1,1.031.554c.1.059.168.115.087.24Zm-3.017-4.525a1.926,1.926,0,0,1,.619-1.1,3.755,3.755,0,0,1,.787-.575c.1-.057.185-.072.255.052a3.657,3.657,0,0,1,.5,1.609,2,2,0,0,1-.7,1.458,4.308,4.308,0,0,1-.717.525.185.185,0,0,1-.161.039.186.186,0,0,1-.128-.105,2.957,2.957,0,0,1-.452-1.911Zm4.9,2.1a3.061,3.061,0,0,1-1.362,1.2,1.437,1.437,0,0,1-.689.1,3.3,3.3,0,0,1-1.609-.625.143.143,0,0,1-.086-.105.143.143,0,0,1,.042-.129,3.51,3.51,0,0,1,1.081-1.079,1.829,1.829,0,0,1,1.478-.139,3.683,3.683,0,0,1,1.088.53c.1.068.14.137.066.246Zm-2.474-3.627a1.734,1.734,0,0,1,.808-1.343c.514-.384.543-.37.774.227a1.8,1.8,0,0,1,.033,1.554,2.557,2.557,0,0,1-1,.966.132.132,0,0,1-.122.029.131.131,0,0,1-.09-.088,2.954,2.954,0,0,1-.394-1.347Zm3.881,1.828a1.824,1.824,0,0,1-1.256.785,2.587,2.587,0,0,1-1.521-.5c-.12-.079-.083-.166-.019-.257a1.806,1.806,0,0,1,1.182-.953,1.805,1.805,0,0,1,1.492.286c.438.231.447.266.131.634Zm.527-2.487a1.427,1.427,0,0,1-.924.791,3.268,3.268,0,0,1-.9.118c-.159,0-.238-.059-.233-.233a2.626,2.626,0,0,1,.249-1.092,1.463,1.463,0,0,1,1.109-.793c.185-.039.386-.05.58-.074v.017h.218c.107,0,.151.061.146.17a2.872,2.872,0,0,1-.235,1.094Zm2.444-5.054c-1.07.257-2.143.488-3.232.645-.924.133-1.848.237-2.785.288-.654.037-1.306.066-1.961.063a33.248,33.248,0,0,1-3.816-.227,32.316,32.316,0,0,1-4.466-.85,2.86,2.86,0,0,1-1.966-1.526,1.784,1.784,0,0,1-.1-1.425c.264-.739.5-1.478.728-2.217.057-.185.067-.185.237-.1a9.492,9.492,0,0,0,2.578.843,28.063,28.063,0,0,0,3.722.5c.669.05,1.336.083,2.007.107s1.294.028,1.946.013c.994-.024,1.986-.078,2.977-.185a25.524,25.524,0,0,0,3.544-.571,8.049,8.049,0,0,0,2-.706c.133-.074.185-.054.227.092.227.739.475,1.478.722,2.217a1.972,1.972,0,0,1-.469,1.99,3.36,3.36,0,0,1-1.881,1.048Z" transform="translate(529.006 -349.098)" fill="#007161"/>
  <path id="Path_35" data-name="Path 35" d="M-386.966,400.644a.4.4,0,0,0,.3-.117.4.4,0,0,0,.114-.3.407.407,0,0,0-.117-.289.407.407,0,0,0-.288-.121.429.429,0,0,0-.421.42A.421.421,0,0,0-386.966,400.644Z" transform="translate(401.473 -394.778)" fill="#007161"/>
  <path id="Path_36" data-name="Path 36" d="M-411.874,368.124a.4.4,0,0,0,.3-.12.4.4,0,0,0,.112-.3.414.414,0,0,0-.41-.409.434.434,0,0,0-.418.41A.42.42,0,0,0-411.874,368.124Z" transform="translate(423.91 -365.491)" fill="#007161"/>
  <path id="Path_37" data-name="Path 37" d="M-398.347,381.048a.416.416,0,0,0,.408-.41.419.419,0,0,0-.419-.418.416.416,0,0,0-.4.414.4.4,0,0,0,.117.3A.4.4,0,0,0-398.347,381.048Z" transform="translate(411.727 -377.129)" fill="#007161"/>
  <path id="Path_38" data-name="Path 38" d="M-451.694,400.643a.4.4,0,0,0,.284-.128.4.4,0,0,0,.107-.293.416.416,0,0,0-.412-.4.421.421,0,0,0-.414.408.417.417,0,0,0,.128.3.418.418,0,0,0,.306.116Z" transform="translate(459.787 -394.777)" fill="#007161"/>
  <path id="Path_39" data-name="Path 39" d="M-437.76,387.98a.417.417,0,0,0,.3-.12.416.416,0,0,0,.124-.294.4.4,0,0,0-.113-.291.4.4,0,0,0-.286-.123.419.419,0,0,0-.3.118.418.418,0,0,0-.127.294A.418.418,0,0,0-437.76,387.98Z" transform="translate(447.211 -383.379)" fill="#007161"/>
  <path id="Path_40" data-name="Path 40" d="M-435.2,403.292a.417.417,0,0,0,.4.414.394.394,0,0,0,.3-.109.393.393,0,0,0,.121-.3.412.412,0,0,0-.119-.3.412.412,0,0,0-.294-.122A.419.419,0,0,0-435.2,403.292Z" transform="translate(444.538 -397.541)" fill="#007161"/>
  <path id="Path_41" data-name="Path 41" d="M-370.874,400.644a.4.4,0,0,0,.29-.116.4.4,0,0,0,.117-.289.4.4,0,0,0-.111-.3.4.4,0,0,0-.3-.123.392.392,0,0,0-.29.116.392.392,0,0,0-.113.291.392.392,0,0,0,.107.3A.392.392,0,0,0-370.874,400.644Z" transform="translate(386.971 -394.778)" fill="#007161"/>
</svg>
