<svg id="Group_133" data-name="Group 133" xmlns="http://www.w3.org/2000/svg" width="16.422" height="21.811" viewBox="0 0 16.422 21.811">
  <path id="Path_127" data-name="Path 127" d="M3.3,16.288Z" transform="translate(-0.905 -3.031)" fill="none"/>
  <path id="Path_129" data-name="Path 129" d="M1.355,11.907a.63.63,0,0,0,.31-.235.637.637,0,0,0,.118-.364V3.439a1.141,1.141,0,0,1,.6-1.112,2.126,2.126,0,0,1,.684-.086H14.442a.968.968,0,0,1,1.026.941V19.947a1.134,1.134,0,0,1-1.283,1.283H9.994a.6.6,0,0,0-.684.513v.171a.736.736,0,0,0,.684.684h4.533a2.472,2.472,0,0,0,2.395-1.967V2.67a2.353,2.353,0,0,0-.684-1.283,2.281,2.281,0,0,0-1.2-.6H2.553A2.4,2.4,0,0,0,.5,3.183v7.954a1.023,1.023,0,0,0,.054.306.783.783,0,0,0,.123.282A.636.636,0,0,0,1.355,11.907Z" transform="translate(-0.5 -0.788)" fill="#d10d74"/>
  <path id="Path_128" data-name="Path 128" d="M16.067,11.48a.625.625,0,0,0-.31.235.637.637,0,0,0-.118.364v7.869a1.142,1.142,0,0,1-.6,1.112,2.126,2.126,0,0,1-.684.086H2.98A.968.968,0,0,1,1.954,20.2V3.439A1.134,1.134,0,0,1,3.237,2.157H7.428a.605.605,0,0,0,.684-.513V1.472A.736.736,0,0,0,7.428.788H2.895A2.471,2.471,0,0,0,.5,2.755V20.717A2.353,2.353,0,0,0,1.184,22a2.281,2.281,0,0,0,1.2.6H14.869A2.4,2.4,0,0,0,16.922,20.2V12.249a1.016,1.016,0,0,0-.054-.306.781.781,0,0,0-.123-.283A.636.636,0,0,0,16.067,11.48Z" transform="translate(-0.5 -0.788)" fill="#d10d74"/>
  <path id="Path_130" data-name="Path 130" d="M11.937,21.822c.086,0,.086.086,0,0a.924.924,0,0,0,.6.257.739.739,0,0,0,.513-.257l2.138-2.138.513-.513a.776.776,0,0,0,.257-.6h0V18.4a.648.648,0,0,0-.171-.342,1.216,1.216,0,0,0-.513-.171.739.739,0,0,0-.513.257c-.6.6-1.2,1.112-1.711,1.711a.727.727,0,0,1-.428.257h0a.653.653,0,0,1-.428-.171.628.628,0,0,0-.513-.171,1.216,1.216,0,0,0-.513.171.778.778,0,0,0,0,1.026A6.945,6.945,0,0,0,11.937,21.822Z" transform="translate(-2.016 -3.262)" fill="#c9d600"/>
  <rect id="Rectangle_79" data-name="Rectangle 79" width="10.122" height="1.369" rx="0.684" transform="translate(2.651 3.934)" fill="#c9d600"/>
  <rect id="Rectangle_80" data-name="Rectangle 80" width="7.119" height="1.369" rx="0.684" transform="translate(2.651 8.04)" fill="#d10d74"/>
  <rect id="Rectangle_81" data-name="Rectangle 81" width="5.061" height="1.369" rx="0.684" transform="translate(2.651 12.573)" fill="#d10d74"/>
</svg>
