<svg xmlns="http://www.w3.org/2000/svg" width="56.299" height="55.987" viewBox="0 0 56.299 55.987">
  <g id="Group_117" data-name="Group 117" transform="translate(-764.645 -538.473)">
    <g id="Path_109" data-name="Path 109" transform="translate(0 -229.258)" fill="#c9d600">
      <path d="M 800.960205078125 811.8046264648438 L 800.9500122070312 811.8046264648438 C 798.66064453125 811.8021240234375 796.2015380859375 811.801025390625 792.9764404296875 811.801025390625 L 789.1304931640625 811.8013305664062 L 785.2845458984375 811.8016967773438 L 784.414794921875 811.8016357421875 L 780.9573364257812 811.8016357421875 L 779.934814453125 811.8016357421875 L 778.9125366210938 811.8016357421875 C 775.0844116210938 811.8016357421875 771.2565307617188 811.8015747070312 767.428466796875 811.80126953125 C 766.9185180664062 811.80126953125 766.436767578125 811.80126953125 766.0468139648438 811.4209594726562 C 765.646484375 811.0304565429688 765.646240234375 810.5482788085938 765.6460571289062 810.0377807617188 C 765.6448364257812 806.8427734375 765.6448364257812 804.0147094726562 765.6460571289062 801.391845703125 C 765.646240234375 800.9627075195312 765.6463623046875 800.6237182617188 765.82470703125 800.2911987304688 C 766.181640625 799.6255493164062 766.8840942382812 799.6255493164062 767.1149291992188 799.6255493164062 C 767.2061767578125 799.6255493164062 767.3031005859375 799.628662109375 767.4205932617188 799.6334228515625 C 767.5740966796875 799.6396484375 767.7277221679688 799.6427612304688 767.8768920898438 799.6427612304688 C 769.1155395507812 799.6427612304688 770.25830078125 799.4247436523438 771.3705444335938 798.9761352539062 C 773.3068237304688 798.195068359375 775.3553466796875 797.7990112304688 777.4591064453125 797.7990112304688 C 778.9959716796875 797.7990112304688 780.5921020507812 798.0108642578125 782.2032470703125 798.4285888671875 C 782.9493408203125 798.6221313476562 783.9090576171875 798.932373046875 784.7393798828125 799.620849609375 C 784.7904663085938 799.62646484375 784.8831176757812 799.62646484375 784.9171752929688 799.62646484375 L 784.9692993164062 799.6264038085938 L 785.0272827148438 799.6262817382812 C 786.4052124023438 799.6262817382812 787.7832641601562 799.6265258789062 789.1613159179688 799.6268310546875 C 790.5392456054688 799.6270751953125 791.9171142578125 799.6273193359375 793.294921875 799.6273193359375 C 796.3152465820312 799.6273193359375 798.6394653320312 799.6260375976562 800.8311157226562 799.6231079101562 L 800.8374633789062 799.6231079101562 C 802.1561889648438 799.6231079101562 803.2036743164062 800.1744995117188 803.8665161132812 801.2177124023438 C 804.3818359375 802.0286254882812 804.5225219726562 802.9191284179688 804.285888671875 803.79052734375 C 806.8847045898438 802.834228515625 809.5247802734375 801.8714599609375 812.080078125 800.9396362304688 C 813.0768432617188 800.5761108398438 814.0736083984375 800.212646484375 815.0702514648438 799.8486938476562 C 815.51220703125 799.6873779296875 815.9647216796875 799.6055297851562 816.4154052734375 799.6055297851562 C 817.442626953125 799.6055297851562 818.4115600585938 800.0402221679688 819.07373046875 800.798095703125 C 819.759033203125 801.5824584960938 820.0549926757812 802.6163330078125 819.906982421875 803.709228515625 C 819.7918701171875 804.5585327148438 819.3099365234375 805.6976318359375 817.66748046875 806.3013305664062 C 814.3702392578125 807.5128173828125 811.1067504882812 808.7177124023438 808.0711669921875 809.83935546875 C 807.5484619140625 810.032470703125 807.0167846679688 810.2321166992188 806.5025634765625 810.4251708984375 C 805.8953247070312 810.6531982421875 805.2673950195312 810.8890380859375 804.6464233398438 811.1170043945312 C 803.3860473632812 811.5797119140625 802.1802368164062 811.8046264648438 800.960205078125 811.8046264648438 Z" stroke="none"/>
      <path d="M 800.960205078125 810.8046264648438 C 802.1162719726562 810.8046264648438 803.2241821289062 810.5738525390625 804.3017578125 810.1782836914062 C 805.4448852539062 809.7586059570312 806.5823364257812 809.3233032226562 807.724609375 808.9013061523438 C 810.9231567382812 807.719482421875 814.1219482421875 806.5386962890625 817.322509765625 805.3627319335938 C 818.1778564453125 805.04833984375 818.7901611328125 804.5037231445312 818.916015625 803.5750122070312 C 819.1446533203125 801.8866577148438 817.9359130859375 800.6055297851562 816.4154052734375 800.6055297851562 C 816.0919189453125 800.6055297851562 815.7540893554688 800.66357421875 815.4132690429688 800.7880249023438 C 811.7527465820312 802.1246948242188 808.0902709960938 803.45556640625 804.433349609375 804.8018188476562 C 803.9445190429688 804.9818115234375 803.4180297851562 805.0889282226562 802.9923706054688 805.4165649414062 C 802.3292236328125 805.9271240234375 801.5813598632812 806.1285400390625 800.748046875 806.1285400390625 C 800.7439575195312 806.1285400390625 800.7399291992188 806.1285400390625 800.7359008789062 806.1285400390625 C 798.4490966796875 806.1234130859375 796.1624755859375 806.122314453125 793.8756713867188 806.122314453125 C 792.053466796875 806.122314453125 790.231201171875 806.123046875 788.4089965820312 806.123046875 C 787.868408203125 806.123046875 787.3275756835938 806.1229858398438 786.7869873046875 806.122802734375 C 786.619140625 806.122802734375 786.447998046875 806.1212768554688 786.2842407226562 806.0900268554688 C 786.1279907226562 806.06005859375 786.0164184570312 805.947998046875 785.9922485351562 805.7843627929688 C 785.9638061523438 805.5924072265625 786.070068359375 805.4667358398438 786.2308349609375 805.3797607421875 C 786.3526611328125 805.3137817382812 786.482666015625 805.3040161132812 786.6135864257812 805.3040161132812 C 786.6688232421875 805.3040161132812 786.7241821289062 805.3057250976562 786.7791748046875 805.3057250976562 C 786.780029296875 805.3057250976562 786.7808837890625 805.3057250976562 786.7816772460938 805.3057250976562 C 787.2606811523438 805.3049926757812 787.739501953125 805.3048095703125 788.2184448242188 805.3048095703125 C 788.782958984375 805.3048095703125 789.3475952148438 805.3050537109375 789.912109375 805.3050537109375 C 789.9935913085938 805.3050537109375 790.0750122070312 805.3050537109375 790.1564331054688 805.3050537109375 C 793.7936401367188 805.3042602539062 797.430908203125 805.3052368164062 801.068115234375 805.3010864257812 C 801.973876953125 805.2999877929688 802.6544189453125 804.884765625 803.0859375 804.1010131835938 C 803.517822265625 803.3165893554688 803.5039672851562 802.5116577148438 803.0225219726562 801.7540283203125 C 802.52099609375 800.9647216796875 801.7723999023438 800.6231079101562 800.8374633789062 800.6231079101562 C 800.8358154296875 800.6231079101562 800.8341064453125 800.6231079101562 800.8324584960938 800.6231079101562 C 798.3197631835938 800.62646484375 795.8075561523438 800.6273193359375 793.294921875 800.6273193359375 C 790.5391845703125 800.6273193359375 787.7830810546875 800.6262817382812 785.0272827148438 800.6262817382812 C 784.990478515625 800.6262817382812 784.9537353515625 800.62646484375 784.9171752929688 800.62646484375 C 784.6378173828125 800.62646484375 784.3668212890625 800.6146240234375 784.1244506835938 800.41015625 C 783.4944458007812 799.8788452148438 782.7373657226562 799.6002807617188 781.9522705078125 799.3966064453125 C 780.4483032226562 799.0066528320312 778.9478149414062 798.7990112304688 777.4591064453125 798.7990112304688 C 775.52734375 798.7990112304688 773.6156616210938 799.1488037109375 771.7445678710938 799.903564453125 C 770.4631958007812 800.4203491210938 769.2022705078125 800.6427612304688 767.8768920898438 800.6427612304688 C 767.71240234375 800.6427612304688 767.5467529296875 800.6393432617188 767.380126953125 800.6326293945312 C 767.2781982421875 800.6284790039062 767.1904907226562 800.6255493164062 767.1149291992188 800.6255493164062 C 766.6492919921875 800.6255493164062 766.6463012695312 800.7385864257812 766.6460571289062 801.392333984375 C 766.6447143554688 804.2740478515625 766.6449584960938 807.1557006835938 766.6460571289062 810.037353515625 C 766.6463623046875 810.7994384765625 766.64892578125 810.80126953125 767.4285888671875 810.80126953125 C 771.256591796875 810.8015747070312 775.0844116210938 810.8016357421875 778.9125366210938 810.8016357421875 C 779.5943603515625 810.8016357421875 780.2754516601562 810.8016357421875 780.9573364257812 810.8016357421875 C 782.1094970703125 810.8016357421875 783.2626342773438 810.8016357421875 784.4148559570312 810.8016357421875 C 784.704833984375 810.8016357421875 784.9945678710938 810.8016357421875 785.2846069335938 810.8016357421875 C 787.8485107421875 810.8016357421875 790.4125366210938 810.801025390625 792.9764404296875 810.801025390625 C 795.6345825195312 810.801025390625 798.2929077148438 810.8016967773438 800.9510498046875 810.8046264648438 C 800.9541625976562 810.8046264648438 800.9570922851562 810.8046264648438 800.960205078125 810.8046264648438 M 800.960205078125 812.8046264648438 L 800.9510498046875 812.8046264648438 C 798.6563720703125 812.8021240234375 796.1976318359375 812.801025390625 792.9764404296875 812.801025390625 C 791.694580078125 812.801025390625 790.4126586914062 812.8011474609375 789.1307373046875 812.8013305664062 C 787.8486938476562 812.801513671875 786.5665893554688 812.8016967773438 785.2845458984375 812.8016967773438 L 784.4147338867188 812.8016357421875 L 780.9573364257812 812.8016357421875 L 778.9125366210938 812.8016357421875 C 775.0843505859375 812.8016357421875 771.2564697265625 812.8015747070312 767.4284057617188 812.80126953125 C 766.8382568359375 812.80126953125 766.0298461914062 812.80126953125 765.3486328125 812.1368408203125 C 764.6466064453125 811.4521484375 764.6463012695312 810.6348876953125 764.6460571289062 810.0381469726562 C 764.6448364257812 806.8428955078125 764.6448364257812 804.0145263671875 764.6460571289062 801.3914184570312 C 764.646240234375 800.8904418945312 764.646484375 800.372314453125 764.9434204101562 799.818603515625 C 765.182373046875 799.373046875 765.7821655273438 798.6255493164062 767.1149291992188 798.6255493164062 C 767.2232055664062 798.6255493164062 767.3316650390625 798.6290283203125 767.4611206054688 798.63427734375 C 767.6010131835938 798.639892578125 767.7410278320312 798.6427612304688 767.8768920898438 798.6427612304688 C 769.0003051757812 798.6427612304688 769.9915771484375 798.4540405273438 770.9965209960938 798.0487670898438 C 773.0521850585938 797.219482421875 775.2265625 796.7990112304688 777.4591064453125 796.7990112304688 C 779.08056640625 796.7990112304688 780.7611694335938 797.0216064453125 782.4542846679688 797.4606323242188 C 783.218994140625 797.6589965820312 784.1854248046875 797.96875 785.0885009765625 798.6262817382812 C 786.4461059570312 798.6262817382812 787.8038330078125 798.6265258789062 789.1614990234375 798.6268310546875 C 790.5393676757812 798.6270751953125 791.917236328125 798.6273193359375 793.294921875 798.6273193359375 C 796.31787109375 798.6273193359375 798.6416625976562 798.6260375976562 800.8297729492188 798.6231079101562 L 800.8311157226562 798.6231079101562 L 800.8374633789062 798.6231079101562 C 802.4916381835938 798.6231079101562 803.8671264648438 799.3540649414062 804.7105712890625 800.681396484375 C 805.043701171875 801.2056274414062 805.2554931640625 801.7650146484375 805.3451538085938 802.3359375 C 807.48681640625 801.5502319335938 809.6408081054688 800.7647705078125 811.7374877929688 800.0001220703125 C 812.734130859375 799.63671875 813.7307739257812 799.2732543945312 814.7272338867188 798.9093627929688 C 815.2794799804688 798.707763671875 815.847412109375 798.6055297851562 816.4154052734375 798.6055297851562 C 817.7312622070312 798.6055297851562 818.9747314453125 799.1649169921875 819.8267822265625 800.14013671875 C 820.704833984375 801.1450805664062 821.085205078125 802.4602661132812 820.89794921875 803.8433837890625 C 820.68310546875 805.4287719726562 819.6583862304688 806.635009765625 818.0125122070312 807.2399291992188 C 814.7158813476562 808.4512329101562 811.452880859375 809.6558837890625 808.4177856445312 810.77734375 C 807.8975219726562 810.9695434570312 807.3670654296875 811.1687622070312 806.8541259765625 811.361328125 C 806.2451782226562 811.5900268554688 805.615478515625 811.8264770507812 804.9910278320312 812.0557861328125 C 803.6183471679688 812.5596923828125 802.2998657226562 812.8046264648438 800.960205078125 812.8046264648438 Z" stroke="none" fill="#d10d74"/>
    </g>
    <path id="Path_110" data-name="Path 110" d="M1104.654,658.435a5.486,5.486,0,0,0-1.412-2.583,3.994,3.994,0,0,0-4.365-.894c-3.079,1.125-6.161,2.24-9.233,3.384-.473.176-.641.116-.736-.4a3.759,3.759,0,0,0-1.9-2.65.731.731,0,0,1-.4-.722q.011-8.222.008-16.444a1.757,1.757,0,0,1,1.84-1.84q7.2-.011,14.4,0a1.754,1.754,0,0,1,1.839,1.841q.01,9.906,0,19.812C1104.691,658.1,1104.667,658.27,1104.654,658.435Zm-9.017-17.572a1.829,1.829,0,0,0-1.739,1.849c-.019.859.022.825-.826.844a1.836,1.836,0,0,0-1.874,1.772,1.792,1.792,0,0,0,1.856,1.727c.869.02.822-.01.843.828a1.756,1.756,0,1,0,3.505.018c.018-.853-.024-.826.826-.844a1.8,1.8,0,0,0,1.874-1.766,1.815,1.815,0,0,0-1.85-1.74c-.8-.041-.8-.041-.845-.872A1.813,1.813,0,0,0,1095.637,640.863Z" transform="translate(-283.957 -85.028)" fill="#d10d74"/>
    <path id="Path_111" data-name="Path 111" d="M1104.726,843.385v.72q0,8.529,0,17.059a1.845,1.845,0,0,1-2.125,2.123q-6.916,0-13.831,0c-1.463,0-2.125-.663-2.125-2.123q0-4.321,0-8.642c0-.3-.044-.59.384-.684a47.074,47.074,0,0,0,5.78-2c3.082-1.114,6.149-2.271,9.224-3.4A4.394,4.394,0,0,0,1104.726,843.385Z" transform="translate(-283.99 -268.827)" fill="#d10d74"/>
    <g id="Path_112" data-name="Path 112" transform="translate(-198.804 0)" fill="#c9d600">
      <path d="M 1005.648010253906 550.5446166992188 C 1005.451416015625 550.5446166992188 1004.853271484375 550.5446166992188 1004.424377441406 550.0836791992188 C 1004.142333984375 549.7805786132812 1004.017578125 549.3731689453125 1004.053649902344 548.872802734375 C 1004.068603515625 548.6653442382812 1004.065307617188 548.441162109375 1004.061767578125 548.2037963867188 C 1004.058715820312 547.9971313476562 1004.055603027344 547.7833862304688 1004.064025878906 547.5606079101562 C 1004.09130859375 546.8421630859375 1004.377380371094 546.1746826171875 1004.86962890625 545.6810913085938 C 1005.089050292969 545.4609985351562 1005.342956542969 545.2819213867188 1005.620544433594 545.1484985351562 C 1003.811889648438 545.1459350585938 1002.043029785156 545.1455078125 1000.482604980469 545.1455078125 L 998.4199829101562 545.1456909179688 L 996.357177734375 545.1458740234375 C 995.0989379882812 545.1458740234375 993.8411254882812 545.1455688476562 992.5829467773438 545.1444702148438 C 990.9641723632812 545.1431274414062 989.7347412109375 544.0276489257812 989.6596069335938 542.4921264648438 C 989.6190795898438 541.6600952148438 989.8868408203125 540.8969116210938 990.41357421875 540.3428955078125 C 990.9429321289062 539.7861328125 991.6984252929688 539.478759765625 992.5408935546875 539.4772338867188 C 994.1000366210938 539.474365234375 995.7599487304688 539.4730834960938 997.9229736328125 539.4730834960938 C 998.8681640625 539.4730834960938 999.8133544921875 539.4733276367188 1000.758605957031 539.4735717773438 C 1001.70361328125 539.4738159179688 1002.648620605469 539.4740600585938 1003.593688964844 539.4740600585938 L 1004.239562988281 539.4739990234375 C 1005.219665527344 539.4739379882812 1006.199890136719 539.4736328125 1007.180114746094 539.473388671875 C 1008.388977050781 539.4730224609375 1009.597839355469 539.47265625 1010.806579589844 539.47265625 C 1012.479675292969 539.47265625 1014.152221679688 539.4733276367188 1015.825378417969 539.4755249023438 C 1017.508178710938 539.4776000976562 1018.732971191406 540.6655883789062 1018.737609863281 542.3002319335938 C 1018.742248535156 543.8919677734375 1017.552124023438 545.11328125 1015.96923828125 545.1409912109375 C 1015.774841308594 545.1443481445312 1015.578552246094 545.1470947265625 1015.381225585938 545.1492309570312 C 1016.184448242188 545.5391235351562 1016.777587890625 546.2971801757812 1016.88720703125 547.1737670898438 C 1016.958129882812 547.7396240234375 1016.946411132812 548.2879028320312 1016.935119628906 548.818115234375 C 1016.932312011719 548.9500122070312 1016.929504394531 549.081787109375 1016.928100585938 549.2132568359375 C 1016.920837402344 549.8734130859375 1016.494812011719 550.539306640625 1015.559509277344 550.539306640625 C 1015.511047363281 550.539306640625 1015.4619140625 550.5376586914062 1015.413452148438 550.5357666015625 C 1015.392150878906 550.534912109375 1015.371215820312 550.5338745117188 1015.351135253906 550.5338745117188 C 1014.4482421875 550.5374145507812 1013.560607910156 550.5379028320312 1012.888061523438 550.5379028320312 L 1011.755004882812 550.5375366210938 L 1010.622741699219 550.5372314453125 C 1010.163024902344 550.5372314453125 1009.703247070312 550.5363159179688 1009.243408203125 550.5353393554688 C 1008.784912109375 550.534423828125 1008.326416015625 550.533447265625 1007.867919921875 550.533447265625 C 1007.013000488281 550.533447265625 1006.319702148438 550.5369262695312 1005.685974121094 550.5443725585938 L 1005.648010253906 550.5446166992188 Z" stroke="none"/>
      <path d="M 1010.806579589844 540.47265625 C 1008.617797851562 540.47265625 1006.428466796875 540.4738159179688 1004.239685058594 540.4739990234375 C 1004.024291992188 540.4739990234375 1003.80908203125 540.4740600585938 1003.593688964844 540.4740600585938 C 1001.703430175781 540.4740600585938 999.813232421875 540.4730834960938 997.9229736328125 540.4730834960938 C 996.1295776367188 540.4730834960938 994.3360595703125 540.4739379882812 992.5426635742188 540.4772338867188 C 991.3694458007812 540.4793090820312 990.6024780273438 541.2953491210938 990.6583862304688 542.4432373046875 C 990.7075805664062 543.4484252929688 991.4821166992188 544.1435546875 992.5838012695312 544.1444702148438 C 993.8414306640625 544.1455688476562 995.0984497070312 544.1458740234375 996.3560791015625 544.1458740234375 C 997.733154296875 544.1458740234375 999.110107421875 544.1455078125 1000.487243652344 544.1455078125 C 1002.819946289062 544.1455078125 1005.153381347656 544.1465454101562 1007.486145019531 544.1519165039062 C 1007.493225097656 544.1519165039062 1007.500122070312 544.1519165039062 1007.507141113281 544.1519165039062 C 1007.846984863281 544.1519165039062 1008.087280273438 544.1331176757812 1008.2568359375 544.1331176757812 C 1008.73291015625 544.1331176757812 1008.652221679688 544.2813110351562 1008.656677246094 545.4093017578125 C 1008.656799316406 545.4280395507812 1008.655090332031 545.4467163085938 1008.656188964844 545.4653930664062 C 1008.672302246094 545.7488403320312 1008.534118652344 545.8644409179688 1008.261535644531 545.8644409179688 C 1008.25732421875 545.8644409179688 1008.253112792969 545.8644409179688 1008.248840332031 545.8643798828125 C 1008.002990722656 545.8611450195312 1007.7568359375 545.8578491210938 1007.5107421875 545.8578491210938 C 1007.269348144531 545.8578491210938 1007.027954101562 545.8610229492188 1006.786926269531 545.8704833984375 C 1005.824035644531 545.9078369140625 1005.099914550781 546.6348876953125 1005.063293457031 547.598388671875 C 1005.046325683594 548.0466918945312 1005.083190917969 548.4979858398438 1005.051086425781 548.9447631835938 C 1005.017211914062 549.4143676757812 1005.216186523438 549.5446166992188 1005.64794921875 549.5446166992188 C 1005.656616210938 549.5446166992188 1005.665405273438 549.5445556640625 1005.674255371094 549.54443359375 C 1006.405517578125 549.5358276367188 1007.136596679688 549.533447265625 1007.867919921875 549.533447265625 C 1008.786193847656 549.533447265625 1009.704650878906 549.5372314453125 1010.622741699219 549.5372314453125 C 1011.3779296875 549.5372314453125 1012.132995605469 549.5379028320312 1012.888061523438 549.5379028320312 C 1013.70751953125 549.5379028320312 1014.527099609375 549.537109375 1015.346496582031 549.5338745117188 C 1015.348022460938 549.5338745117188 1015.349548339844 549.5338745117188 1015.351135253906 549.5338745117188 C 1015.417297363281 549.5338745117188 1015.489379882812 549.539306640625 1015.559509277344 549.539306640625 C 1015.749450683594 549.539306640625 1015.924865722656 549.499267578125 1015.928161621094 549.2025146484375 C 1015.934997558594 548.5671997070312 1015.973449707031 547.924560546875 1015.894958496094 547.2979125976562 C 1015.798034667969 546.5231323242188 1015.082824707031 545.9315185546875 1014.298156738281 545.8738403320312 C 1014.186218261719 545.8656005859375 1014.073852539062 545.8636474609375 1013.961242675781 545.8636474609375 C 1013.859375 545.8636474609375 1013.757385253906 545.865234375 1013.655456542969 545.865234375 C 1013.607421875 545.865234375 1013.559326171875 545.8648681640625 1013.511291503906 545.8638305664062 C 1013.427368164062 545.8619995117188 1013.349670410156 545.861328125 1013.277404785156 545.861328125 C 1013.087951660156 545.861328125 1012.936645507812 545.8659057617188 1012.816101074219 545.8659057617188 C 1012.254821777344 545.8659057617188 1012.355407714844 545.7677001953125 1012.332824707031 544.6577758789062 C 1012.325073242188 544.2723388671875 1012.466247558594 544.1405639648438 1012.831665039062 544.1405639648438 C 1012.840698242188 544.1405639648438 1012.849914550781 544.140625 1012.859191894531 544.1408081054688 C 1013.382995605469 544.149658203125 1013.906982421875 544.1542358398438 1014.430847167969 544.1542358398438 C 1014.937927246094 544.1542358398438 1015.444946289062 544.1499633789062 1015.951721191406 544.14111328125 C 1016.998718261719 544.122802734375 1017.740661621094 543.3439331054688 1017.737609863281 542.3030395507812 C 1017.734558105469 541.2243041992188 1016.963806152344 540.4769287109375 1015.824035644531 540.4755249023438 C 1014.151306152344 540.4733276367188 1012.479248046875 540.47265625 1010.806579589844 540.47265625 M 1010.806579589844 538.47265625 C 1012.480102539062 538.47265625 1014.153076171875 538.4733276367188 1015.82666015625 538.4755249023438 C 1016.89404296875 538.4768676757812 1017.876037597656 538.8555908203125 1018.591552734375 539.5419311523438 C 1019.327575683594 540.2479248046875 1019.734558105469 541.2265014648438 1019.737609863281 542.29736328125 C 1019.740600585938 543.32568359375 1019.363952636719 544.2838134765625 1018.676940917969 544.9950561523438 C 1018.334655761719 545.3494262695312 1017.929626464844 545.6279296875 1017.48291015625 545.8216552734375 C 1017.690002441406 546.202880859375 1017.825561523438 546.6184692382812 1017.879516601562 547.0496215820312 C 1017.959411621094 547.6878662109375 1017.946411132812 548.2996215820312 1017.934936523438 548.8394165039062 C 1017.932189941406 548.9677734375 1017.929443359375 549.0960693359375 1017.928039550781 549.2240600585938 C 1017.913208007812 550.5658569335938 1016.917114257812 551.539306640625 1015.559509277344 551.539306640625 C 1015.485107421875 551.539306640625 1015.421264648438 551.5368041992188 1015.374633789062 551.5350341796875 C 1015.364501953125 551.5346069335938 1015.3544921875 551.5341796875 1015.344665527344 551.5338745117188 C 1014.440185546875 551.5374145507812 1013.557495117188 551.5379028320312 1012.888061523438 551.5379028320312 L 1011.754638671875 551.5375366210938 L 1010.622741699219 551.5372314453125 C 1010.162353515625 551.5372314453125 1009.701843261719 551.5363159179688 1009.241333007812 551.5353393554688 C 1008.783569335938 551.534423828125 1008.32568359375 551.533447265625 1007.867919921875 551.533447265625 C 1007.017211914062 551.533447265625 1006.327575683594 551.5369262695312 1005.697692871094 551.5443115234375 C 1005.680419921875 551.5444946289062 1005.6640625 551.5446166992188 1005.64794921875 551.5446166992188 C 1004.831665039062 551.5446166992188 1004.173706054688 551.2822875976562 1003.692260742188 550.764892578125 C 1003.363037109375 550.4110717773438 1002.985412597656 549.7830810546875 1003.056274414062 548.8009033203125 C 1003.068054199219 548.6368408203125 1003.065063476562 548.4336547851562 1003.061889648438 548.2185668945312 C 1003.058776855469 548.0091552734375 1003.055297851562 547.7718505859375 1003.064697265625 547.5227661132812 C 1003.083312988281 547.0328369140625 1003.191101074219 546.5687866210938 1003.37255859375 546.1463012695312 C 1002.362854003906 546.1456909179688 1001.390075683594 546.1455078125 1000.487243652344 546.1455078125 L 998.421875 546.1456909179688 L 996.3560791015625 546.1458740234375 C 995.097900390625 546.1458740234375 993.8402099609375 546.1455688476562 992.58203125 546.1444702148438 C 990.4120483398438 546.1426391601562 988.7628784179688 544.627197265625 988.6607666015625 542.541015625 C 988.6068115234375 541.4330444335938 988.971923828125 540.4078979492188 989.6888427734375 539.65380859375 C 990.4083862304688 538.8970947265625 991.4205932617188 538.479248046875 992.5391235351562 538.4772338867188 C 994.1019897460938 538.474365234375 995.762451171875 538.4730834960938 997.9229736328125 538.4730834960938 C 998.8682861328125 538.4730834960938 999.8135375976562 538.4733276367188 1000.758850097656 538.4735717773438 C 1001.703796386719 538.4738159179688 1002.648742675781 538.4740600585938 1003.593688964844 538.4740600585938 L 1004.239379882812 538.4739990234375 C 1005.219421386719 538.4739379882812 1006.199462890625 538.4736328125 1007.179504394531 538.473388671875 C 1008.388549804688 538.4730224609375 1009.59765625 538.47265625 1010.806579589844 538.47265625 Z" stroke="none" fill="#d10d74"/>
    </g>
    <path id="Path_113" data-name="Path 113" d="M956.978,628.43a6.272,6.272,0,0,1-6.31-6.748,8.253,8.253,0,0,1,1.384-3.525,35.044,35.044,0,0,1,4.033-5.458c.632-.711,1.176-.724,1.787-.021a33.769,33.769,0,0,1,4.806,6.888C964.872,623.906,961.2,628.589,956.978,628.43Zm.16-2.785a3.614,3.614,0,0,0,3.4-3.413.915.915,0,0,0-.777-.952.827.827,0,0,0-.9.75,1.928,1.928,0,0,1-1.972,1.95.819.819,0,0,0-.73.912A.93.93,0,0,0,957.138,625.646Z" transform="translate(-163.3 -63.62)" fill="#d10d74"/>
  </g>
</svg>
