<svg xmlns="http://www.w3.org/2000/svg" width="51.664" height="51.7" viewBox="0 0 51.664 51.7"><g transform="translate(-622.108 1088.491)"><path d="M645.851-1088.361c.532-.061.846-.084,1.077-.1a17.121,17.121,0,0,1,3.147.1s1.161.131,2.187.3a25.86,25.86,0,0,1,21.453,23.771,24.737,24.737,0,0,1-3.7,15.033,25.315,25.315,0,0,1-20.361,12.383,24.248,24.248,0,0,1-13.326-2.723,25.609,25.609,0,0,1-13.242-16.167,25.215,25.215,0,0,1-.645-3.084c-.057-.353-.156-.966-.226-1.652a21.352,21.352,0,0,1,0-4.224c.125-.86.226-1.724.377-2.58A25.929,25.929,0,0,1,641.9-1087.7C643.676-1088.114,645.851-1088.361,645.851-1088.361Zm25.621,25.722c0-.469.017-.939,0-1.407-.022-.484-.062-.97-.127-1.451a23.105,23.105,0,0,0-7.457-14.428,22.886,22.886,0,0,0-18.762-6.049,22.21,22.21,0,0,0-14.569,7.571c-6.09,6.93-7.585,14.859-4.779,23.622.211.66.275.664.765.175q4.179-4.177,8.357-8.355a5.93,5.93,0,0,1,.553-.512,1.074,1.074,0,0,1,1.392-.017,4.745,4.745,0,0,1,.518.475q3.487,3.481,6.972,6.964c.55.548,1.132.585,1.583.118s.395-.993-.149-1.543c-.813-.823-1.638-1.633-2.445-2.462a1.111,1.111,0,0,1,.014-1.762q4.544-4.558,9.1-9.1a1.119,1.119,0,0,1,1.8,0c.518.5,1.023,1.016,1.532,1.525q4.284,4.284,8.567,8.57a.9.9,0,0,0,.83.362,13.9,13.9,0,0,1,5.78.281c.3.075.413,0,.452-.317A17.418,17.418,0,0,0,671.471-1062.639Zm-17.2,20.853c.965-.9,2-1.81,2.961-2.788q6.291-6.4,12.545-12.841c.112-.115.31-.213.259-.4s-.277-.166-.43-.2a12.2,12.2,0,0,0-3.747-.171,12.756,12.756,0,0,0-11.342,13.326,7.407,7.407,0,0,1-.053,1.656C654.382-1042.693,654.321-1042.182,654.267-1041.786Z" fill="#c9d600"/><g transform="translate(632.456 -1082.653)"><path d="M806.108-950.266a.666.666,0,0,0-.672.666.673.673,0,0,0,.657.684.662.662,0,0,0,.669-.668A.656.656,0,0,0,806.108-950.266Z" transform="translate(-797.307 958.359)" fill="#d10d74"/><path d="M832.361-931.764a.689.689,0,0,0-.7.639.7.7,0,0,0,.658.709.693.693,0,0,0,.691-.654A.682.682,0,0,0,832.361-931.764Z" transform="translate(-820.885 941.722)" fill="#d10d74"/><path d="M791.378-921.24a.683.683,0,0,0-.676.668.679.679,0,0,0,.681.679.668.668,0,0,0,.662-.673A.683.683,0,0,0,791.378-921.24Z" transform="translate(-784.058 932.258)" fill="#d10d74"/><path d="M771.555-955.509a.678.678,0,0,0-.666.673.685.685,0,0,0,.671.673.689.689,0,0,0,.679-.687A.686.686,0,0,0,771.555-955.509Z" transform="translate(-766.242 963.074)" fill="#d10d74"/><path d="M741.875-1022.589c-.155-.386-.382-.42-.659-.114a1.21,1.21,0,0,1-.888.425c-.371.011-.743,0-1.115.005-.148,0-.2-.056-.2-.2-.008-.188.049-.282.25-.261.08.008.162,0,.243,0,.126,0,.164-.048.143-.175a6.62,6.62,0,0,0-.311-1.214c-.169-.454-.17-.454-.583-.222a.116.116,0,0,0-.018.01c-.144.119-.207.021-.276-.1s-.12-.206.044-.294c.3-.16.589-.331.879-.5a1.268,1.268,0,0,1,1.146-.111c.287.106.454-.008.451-.314a1.3,1.3,0,0,0-.627-1.139c-.3-.191-.483-.1-.547.244a1.216,1.216,0,0,1-.588.858c-.312.189-.634.361-.945.552-.135.082-.195.035-.272-.081-.109-.162-.1-.265.092-.339.068-.027.127-.078.193-.11.137-.066.132-.139.04-.25a6.793,6.793,0,0,0-.911-.92c-.338-.28-.34-.277-.553.094-.017.029-.035.058-.051.088-.1.187-.2.041-.3,0s-.168-.1-.089-.23c.2-.329.385-.667.585-1a1.2,1.2,0,0,1,.828-.566c.354-.071.447-.28.24-.577a1.291,1.291,0,0,0-1.075-.592c-.359-.008-.467.142-.347.485a1.223,1.223,0,0,1-.094,1.054c-.174.306-.355.607-.525.914-.07.126-.139.159-.271.078-.213-.13-.22-.132-.091-.355a1.837,1.837,0,0,1,.1-.175c.089-.121.056-.186-.08-.235a6.7,6.7,0,0,0-1.209-.335c-.459-.074-.459-.073-.476.4a.133.133,0,0,0,0,.02c.016.179-.1.188-.234.191s-.232-.03-.229-.2c.007-.318,0-.635,0-.953a1.333,1.333,0,0,1,.49-1.106c.225-.186.208-.383-.046-.536a1.327,1.327,0,0,0-1.228-.071c-.387.153-.423.383-.117.658a1.21,1.21,0,0,1,.426.888c.011.371,0,.743.005,1.115,0,.146-.052.2-.2.207-.186.007-.286-.044-.263-.248.008-.073,0-.149,0-.223.008-.143-.043-.188-.193-.162a6.576,6.576,0,0,0-1.251.331c-.488.187-.4.142-.19.524a.652.652,0,0,0,.039.071c.115.158-.013.207-.117.272s-.2.1-.277-.05c-.143-.268-.293-.534-.456-.79a1.347,1.347,0,0,1-.152-1.273c.093-.244-.017-.4-.28-.407a1.278,1.278,0,0,0-1.181.616c-.194.3-.1.479.241.547a1.168,1.168,0,0,1,.8.505c.222.347.418.71.628,1.065.059.1.029.156-.062.214-.228.145-.249.143-.385-.087-.034-.058-.071-.115-.1-.176-.064-.135-.136-.136-.249-.043a6.82,6.82,0,0,0-.92.911c-.28.339-.278.341.093.553.023.013.046.029.07.04.2.092.068.2.02.311s-.12.159-.249.08c-.3-.187-.618-.361-.928-.542a1.24,1.24,0,0,1-.622-.88c-.061-.325-.259-.419-.539-.242a1.282,1.282,0,0,0-.626,1.055c-.022.4.124.51.5.382a1.1,1.1,0,0,1,.869.024c.386.194.755.421,1.13.636.046.026.09.054.08.125-.031.239-.2.324-.4.205a2.093,2.093,0,0,1-.193-.111c-.12-.087-.175-.038-.221.081a6.24,6.24,0,0,0-.336,1.208c-.078.467-.075.474.389.478.173,0,.22.07.219.231s-.04.239-.215.235c-.351-.008-.7.005-1.054-.005a1.233,1.233,0,0,1-.958-.453c-.219-.264-.443-.247-.6.056a1.346,1.346,0,0,0-.01,1.249c.155.321.37.343.608.073a1.269,1.269,0,0,1,1.021-.45c.142,0,.284,0,.426,0,.2,0,.392,0,.588,0,.139,0,.191.055.192.193,0,.242-.015.266-.259.269-.081,0-.162,0-.243,0-.117,0-.153.051-.134.166a6.555,6.555,0,0,0,.3,1.2c.174.472.18.479.617.231.165-.094.21,0,.277.109s.1.211-.057.293c-.234.122-.464.251-.685.395a1.447,1.447,0,0,1-1.4.2c-.2-.08-.339.026-.37.245a1.355,1.355,0,0,0,.625,1.237c.3.163.474.083.536-.25a1.216,1.216,0,0,1,.587-.859c.312-.189.634-.362.945-.552.13-.079.2-.049.274.074.1.157.108.267-.088.341-.068.026-.127.078-.193.11-.129.063-.146.131-.05.248a6.894,6.894,0,0,0,.864.883c.377.32.38.316.632-.1a.147.147,0,0,0,.011-.017c.077-.179.182-.1.291-.036s.2.107.1.26c-.2.316-.372.644-.561.963a1.207,1.207,0,0,1-.838.584c-.353.07-.45.278-.245.576a1.287,1.287,0,0,0,1.032.593c.4.02.513-.125.385-.5a1.187,1.187,0,0,1,.08-1c.176-.319.366-.632.542-.951.068-.123.135-.164.27-.082.214.13.222.133.095.354a1.862,1.862,0,0,1-.1.175c-.087.119-.062.186.077.236a6.737,6.737,0,0,0,1.209.335c.461.075.461.073.477-.395a.172.172,0,0,0,0-.02c-.016-.178.1-.19.233-.192s.233.028.23.2c-.007.317,0,.635,0,.953a1.334,1.334,0,0,1-.489,1.107c-.226.187-.211.383.044.536a1.323,1.323,0,0,0,1.246.064c.373-.156.4-.378.1-.649a1.21,1.21,0,0,1-.427-.887c-.012-.371,0-.743-.005-1.115,0-.145.05-.2.2-.208.184-.007.286.042.264.247-.009.08,0,.162,0,.243,0,.122.042.168.172.147a6.664,6.664,0,0,0,1.234-.317c.435-.162.435-.164.207-.575a.3.3,0,0,0-.02-.035c-.122-.162.021-.2.119-.269s.2-.1.277.049c.164.3.339.6.514.9a1.255,1.255,0,0,1,.1,1.127c-.106.288,0,.456.31.453a1.3,1.3,0,0,0,1.15-.642c.18-.29.09-.469-.25-.531a1.19,1.19,0,0,1-.836-.553c-.2-.327-.386-.667-.584-1-.07-.116-.037-.178.07-.242.225-.136.23-.139.364.094.034.058.072.115.1.175.064.133.136.138.249.044a6.8,6.8,0,0,0,.908-.9c.294-.352.291-.354-.1-.579a.576.576,0,0,0-.053-.031c-.183-.081-.085-.187-.029-.293s.113-.189.261-.1c.3.19.618.362.927.542a1.236,1.236,0,0,1,.619.882c.06.322.258.414.541.237a1.272,1.272,0,0,0,.624-1.075c.016-.377-.132-.484-.485-.364a1.219,1.219,0,0,1-1.036-.087c-.312-.176-.618-.363-.933-.533-.148-.08-.137-.16-.068-.291.087-.165.181-.2.33-.083.058.045.133.069.192.113.124.092.186.049.234-.083a6.8,6.8,0,0,0,.332-1.189c.081-.476.079-.482-.4-.491-.161,0-.212-.066-.21-.219s.014-.251.2-.247c.331.008.662,0,.993,0a1.306,1.306,0,0,1,1.052.475c.2.242.4.225.56-.051A1.335,1.335,0,0,0,741.875-1022.589Zm-9.027-3.757a1.135,1.135,0,0,1,1.118,1.126,1.115,1.115,0,0,1-1.113,1.123,1.138,1.138,0,0,1-1.136-1.13A1.149,1.149,0,0,1,732.848-1026.347Zm-2.755,5.131a1.133,1.133,0,0,1-1.125-1.116,1.157,1.157,0,0,1,1.124-1.13,1.136,1.136,0,0,1,1.125,1.139A1.107,1.107,0,0,1,730.093-1021.216Zm1.987,3.476a1.135,1.135,0,0,1-1.1-1.141,1.1,1.1,0,0,1,1.123-1.106,1.135,1.135,0,0,1,1.124,1.119A1.159,1.159,0,0,1,732.08-1017.739Zm1.481-2.93a1.15,1.15,0,0,1-1.117-1.134,1.151,1.151,0,0,1,1.128-1.123,1.139,1.139,0,0,1,1.122,1.124A1.138,1.138,0,0,1,733.561-1020.669Zm2.661,1.854a1.114,1.114,0,0,1-1.115-1.126,1.141,1.141,0,0,1,1.126-1.123,1.157,1.157,0,0,1,1.123,1.134A1.139,1.139,0,0,1,736.222-1018.815Zm.254-3.5a1.135,1.135,0,0,1-1.114-1.131,1.139,1.139,0,0,1,1.127-1.12,1.138,1.138,0,0,1,1.124,1.142A1.136,1.136,0,0,1,736.476-1022.314Z" transform="translate(-724.778 1030.566)" fill="#d10d74"/><path d="M798.879-982.781a.64.64,0,0,0,.658-.666.643.643,0,0,0-.666-.66.655.655,0,0,0-.661.67A.644.644,0,0,0,798.879-982.781Z" transform="translate(-790.809 988.79)" fill="#d10d74"/><path d="M835.053-966.434a.64.64,0,0,0-.668.658.64.64,0,0,0,.657.668.64.64,0,0,0,.668-.658A.64.64,0,0,0,835.053-966.434Z" transform="translate(-823.338 972.898)" fill="#d10d74"/></g></g></svg>