<svg xmlns="http://www.w3.org/2000/svg" width="41.526" height="61.262" viewBox="0 0 41.526 61.262">
  <g id="Group_120" data-name="Group 120" transform="translate(658.685 -1453.752)">
    <g id="Group_118" data-name="Group 118" transform="translate(-658.685 1453.752)">
      <path id="Path_115" data-name="Path 115" d="M-638,1497.915c-.206,1-.416,1.983-.613,2.969q-1.307,6.528-2.609,13.056a1.134,1.134,0,0,1-1.327,1.071q-4.139.007-8.277,0c-.918,0-1.339-.439-1.292-1.36q.44-8.5.894-17c.052-.979.078-1.96.164-2.936.044-.509-.155-.607-.613-.6-1.87.021-3.74.011-5.609.007-1.086,0-1.476-.454-1.389-1.521q.545-6.675,1.071-13.352c.272-3.384.453-6.779.85-10.149a7.344,7.344,0,0,1,4.428-5.995c2.407-1.139,4.842-2.221,7.277-3.3a.828.828,0,0,0,.59-.917c-.039-.956-.02-1.915-.008-2.873a1.113,1.113,0,0,1,1.27-1.254q5.267-.01,10.534,0c.885,0,1.274.41,1.281,1.312.007.935.027,1.871-.009,2.8a.829.829,0,0,0,.579.923c2.395,1.058,4.785,2.128,7.154,3.241a7.569,7.569,0,0,1,4.616,6.591c.384,4.587.733,9.176,1.1,13.764.251,3.11.514,6.22.77,9.33.077.93-.356,1.392-1.318,1.4-1.892.005-3.785.02-5.677-.01-.525-.008-.649.148-.621.66q.541,9.832,1.047,19.666c.063,1.19-.3,1.578-1.476,1.579q-4,0-8,0c-.95,0-1.235-.241-1.427-1.194q-1.562-7.764-3.121-15.529C-637.789,1498.166-637.745,1498.006-638,1497.915Zm11.46,2.54c-.067-1.344-.129-2.687-.2-4.03-.24-4.437-.493-8.873-.721-13.311q-.262-5.088-.466-10.179c-.021-.528-.228-.635-.707-.626-1.527.027-3.056.013-4.584.01-.871,0-1.388-.4-1.393-1.064s.516-1.076,1.38-1.077q2.976,0,5.952,0c1.048,0,1.333.314,1.386,1.388.167,3.392.36,6.784.522,10.177.019.4.174.489.536.484,1.254-.016,2.508-.006,3.763-.007,1,0,1,0,.939-.978,0-.045-.006-.091-.009-.136-.317-3.975-.676-7.948-.937-11.927a5.668,5.668,0,0,0-3.75-5.356,46.041,46.041,0,0,1-4.717-2.161,11.465,11.465,0,0,0-6.62-1.408c-.581.048-.7.2-.7.743q.026,10.843.012,21.687c0,.206.012.412-.005.616a1.1,1.1,0,0,1-1.051,1.059,1.1,1.1,0,0,1-1.079-1.029,4.555,4.555,0,0,1-.007-.479q0-5.13,0-10.262c0-3.9-.007-7.8.01-11.7,0-.462-.1-.641-.6-.623-1.071.037-2.143.016-3.215.009a1.678,1.678,0,0,0-.726.151c-2.714,1.237-5.443,2.442-8.141,3.713a4.958,4.958,0,0,0-2.992,4.263c-.167,1.838-.313,3.678-.462,5.518-.206,2.544-.393,5.09-.619,7.632-.049.555.124.694.66.68,1.345-.037,2.691-.025,4.036-.005.4.006.549-.089.569-.523.16-3.438.351-6.875.525-10.313.042-.84.387-1.208,1.215-1.211q3.078-.009,6.157,0c.821,0,1.324.4,1.34,1.047.016.667-.5,1.09-1.364,1.092-1.528,0-3.056.021-4.584-.009-.512-.01-.713.116-.74.665-.3,6.169-.623,12.336-.938,18.5q-.531,10.416-1.064,20.832c-.021.4.043.576.493.571q2.873-.029,5.747,0c.4,0,.543-.125.617-.521.331-1.767.7-3.527,1.056-5.289Q-640.5,1499.535-639,1492c.122-.612.458-1.023,1.1-1.01s.954.433,1.065,1.047c.167.918.362,1.831.545,2.746,1.155,5.782,2.318,11.561,3.45,17.347.114.584.331.767.926.754,1.777-.041,3.557-.033,5.335,0,.529.009.689-.105.656-.68C-626.157,1508.286-626.341,1504.37-626.541,1500.454Zm-27.163-9.479h1.092c1.744,0,1.732,0,1.754-1.779,0-.373-.11-.468-.459-.463-1.137.016-2.275.005-3.413.006-1.683,0-1.67,0-1.708,1.732-.009.387.088.524.481.511C-655.206,1490.958-654.454,1490.975-653.7,1490.976Zm31.575,0h1.16c1.735,0,1.716,0,1.467-1.745-.061-.427-.233-.506-.61-.5-1.069.02-2.138.007-3.207.007-1.783,0-1.773,0-1.623,1.772.029.348.144.477.493.469C-623.676,1490.962-622.9,1490.975-622.129,1490.975Zm-31.3-4.379h1.09c1.759,0,1.744,0,1.72-1.757-.006-.412-.157-.49-.519-.485-1.045.017-2.089.006-3.134.005-1.649,0-1.649,0-1.814,1.617a.591.591,0,0,1-.008.068c-.091.406.044.577.484.559C-654.886,1486.575-654.159,1486.6-653.432,1486.6Zm31.039,0h1.567c1.095,0,1.094,0,1.005-1.119a3.835,3.835,0,0,1-.024-.544c.027-.436-.15-.594-.6-.582-1.067.028-2.134.009-3.2.008-1.8,0-1.787,0-1.518,1.8.051.345.182.456.52.447C-623.892,1486.583-623.142,1486.6-622.393,1486.6Zm-18.253-28.464c1.715,0,1.715,0,1.65-1.73a.433.433,0,0,1,0-.068c.035-.313-.084-.449-.418-.442-.819.017-1.638.021-2.456,0-.365-.01-.45.129-.464.475C-642.406,1458.134-642.416,1458.134-640.646,1458.133Zm5.466-2.237c-1.768,0-1.768,0-1.674,1.776a.41.41,0,0,1,0,.068c-.031.3.1.4.395.4.841-.012,1.683-.005,2.525,0,.216,0,.419,0,.409-.308a4.37,4.37,0,0,0-.108-1.8c-.2-.373-.968-.079-1.479-.13A.667.667,0,0,0-635.179,1455.9Z" transform="translate(658.685 -1453.752)" fill="#d10d74"/>
    </g>
    <g id="Group_119" data-name="Group 119" transform="translate(-656.438 1455.834)">
      <path id="Path_116" data-name="Path 116" d="M-620.212,1506.317c-.067-1.343-.129-2.687-.2-4.03-.24-4.437-.493-8.873-.721-13.311q-.262-5.088-.466-10.179c-.021-.528-.227-.635-.707-.626-1.527.027-3.056.013-4.584.01-.871,0-1.388-.4-1.393-1.064s.516-1.076,1.38-1.078q2.976,0,5.952,0c1.048,0,1.333.314,1.386,1.388.167,3.392.36,6.784.522,10.176.019.4.174.489.536.484,1.254-.016,2.508-.006,3.763-.007,1,0,1,0,.939-.978,0-.046-.005-.091-.009-.136-.317-3.975-.676-7.948-.937-11.927a5.668,5.668,0,0,0-3.75-5.355,46.137,46.137,0,0,1-4.717-2.161,11.463,11.463,0,0,0-6.62-1.408c-.581.048-.7.2-.7.743q.026,10.843.011,21.687c0,.206.012.412-.005.616a1.1,1.1,0,0,1-1.051,1.059,1.1,1.1,0,0,1-1.079-1.029,4.584,4.584,0,0,1-.007-.479q0-5.131,0-10.262c0-3.9-.007-7.8.01-11.7,0-.462-.1-.641-.6-.624-1.071.037-2.143.016-3.215.009a1.679,1.679,0,0,0-.726.152c-2.714,1.237-5.443,2.442-8.141,3.713a4.958,4.958,0,0,0-2.992,4.263c-.167,1.838-.313,3.678-.462,5.518-.206,2.544-.393,5.09-.619,7.632-.049.555.124.694.66.68,1.344-.037,2.691-.025,4.036-.006.4.006.549-.088.569-.523.16-3.438.352-6.875.525-10.313.042-.841.387-1.208,1.215-1.211q3.078-.009,6.157,0c.821,0,1.324.4,1.34,1.047.016.667-.505,1.09-1.364,1.092-1.528,0-3.056.021-4.584-.009-.512-.01-.713.116-.74.665-.3,6.168-.623,12.336-.938,18.5q-.531,10.416-1.064,20.831c-.021.4.042.576.493.571q2.873-.029,5.747,0c.4,0,.543-.124.617-.521.33-1.767.7-3.527,1.056-5.289q1.508-7.532,3.011-15.065c.122-.612.458-1.023,1.1-1.01s.954.432,1.066,1.046c.167.918.362,1.831.545,2.746,1.155,5.782,2.318,11.561,3.45,17.347.114.584.331.768.926.754,1.778-.041,3.557-.032,5.335,0,.529.008.689-.105.656-.68C-619.828,1514.149-620.013,1510.233-620.212,1506.317Zm-27.163-9.478h1.092c1.744,0,1.732,0,1.754-1.78,0-.373-.11-.468-.459-.463-1.137.016-2.275.005-3.413.006-1.683,0-1.67,0-1.708,1.732-.009.387.088.524.481.511C-648.877,1496.821-648.126,1496.838-647.375,1496.839Zm31.575,0h1.16c1.735,0,1.716,0,1.467-1.745-.061-.427-.233-.506-.61-.5-1.069.02-2.138.006-3.207.006-1.783,0-1.773,0-1.623,1.772.029.348.144.477.493.469C-617.347,1496.825-616.573,1496.837-615.8,1496.838Zm-31.3-4.379h1.09c1.759,0,1.744,0,1.72-1.757-.006-.411-.158-.49-.519-.485-1.045.017-2.089.006-3.134.005-1.649,0-1.649,0-1.814,1.617a.581.581,0,0,1-.008.068c-.091.406.044.577.485.559C-648.558,1492.438-647.83,1492.458-647.1,1492.459Zm31.039,0h1.567c1.095,0,1.094,0,1.005-1.119a3.847,3.847,0,0,1-.024-.544c.027-.436-.15-.594-.6-.582-1.067.028-2.134.009-3.2.008-1.8,0-1.786,0-1.518,1.795.051.345.182.456.52.447C-617.563,1492.445-616.814,1492.459-616.064,1492.46ZM-634.317,1464c1.715,0,1.715,0,1.65-1.73a.425.425,0,0,1,0-.068c.035-.313-.084-.45-.418-.443-.819.017-1.638.02-2.456,0-.365-.01-.45.129-.464.475C-636.077,1464-636.087,1464-634.317,1464Zm5.466-2.236c-1.768,0-1.768,0-1.674,1.776a.416.416,0,0,1,0,.068c-.031.3.1.4.395.4.841-.012,1.683-.005,2.525,0,.216,0,.419,0,.409-.308a4.369,4.369,0,0,0-.108-1.8c-.2-.373-.967-.079-1.479-.13A.668.668,0,0,0-628.851,1461.759Z" transform="translate(650.109 -1461.697)" fill="#c9d600"/>
    </g>
  </g>
</svg>
