<svg xmlns="http://www.w3.org/2000/svg" width="30.881" height="30.881" viewBox="0 0 30.881 30.881"><g transform="translate(-787.396 -1027.867)"><path d="M818.277,1029.313v20.19a1.982,1.982,0,0,1-2.191,1.532H789.54a2.687,2.687,0,0,1-.63-.039,1.934,1.934,0,0,1-1.514-1.954q0-9.522,0-19.044a1.968,1.968,0,0,1,1.53-2.131h27.9A2.189,2.189,0,0,1,818.277,1029.313ZM806.706,1045.2h0c1.787,0,3.575-.005,5.363.005.3,0,.406-.082.4-.392-.012-1.667-.009-3.334,0-5,0-.256-.075-.354-.344-.354q-5.393.01-10.786,0c-.388,0-.4.011-.4.417q0,2.471,0,4.941c0,.368.014.379.4.379Zm.008-11.523c-1.806,0-3.613,0-5.419,0-.255,0-.359.075-.356.344q.017,1.565,0,3.131c0,.267.1.344.355.344q5.4-.009,10.808,0c.3,0,.374-.112.37-.39-.013-1.013-.006-2.027-.007-3.041,0-.375-.009-.385-.394-.385Zm-10.63,11.525c.844,0,1.687-.006,2.531,0,.255,0,.358-.077.357-.345q-.013-2.531,0-5.062c0-.245-.078-.339-.33-.338q-2.546.01-5.092,0c-.229,0-.325.073-.324.312q.01,2.546,0,5.092c0,.27.1.345.357.342C794.416,1045.194,795.25,1045.2,796.084,1045.2Zm.02-11.523c-.842,0-1.685.008-2.527,0-.259,0-.354.078-.352.344q.017,1.549,0,3.1c0,.269.072.375.356.373q2.527-.014,5.055,0c.245,0,.338-.08.336-.331q-.014-1.579,0-3.159c0-.254-.1-.33-.339-.327C797.789,1033.683,796.947,1033.677,796.1,1033.678Z" fill="#fff"/><path d="M827.966,1194.356a2.008,2.008,0,0,1-1.962-2.577c.316-1.025.72-2.023,1.081-3.034a.313.313,0,0,1,.343-.224q1.9.007,3.8,0c.227,0,.283.073.2.288-.526,1.432-1.035,2.871-1.574,4.3A1.967,1.967,0,0,1,827.966,1194.356Z" transform="translate(-32.515 -135.609)" fill="#fff"/><path d="M913.621,1188.525c.622,0,1.244.005,1.866,0a.326.326,0,0,1,.357.246c.351.982.733,1.954,1.06,2.944a2.043,2.043,0,0,1-3.865,1.317c-.513-1.382-1.013-2.769-1.518-4.154-.115-.315-.093-.349.233-.351.622,0,1.244,0,1.866,0Z" transform="translate(-104.723 -135.609)" fill="#fff"/></g></svg>