<svg xmlns="http://www.w3.org/2000/svg" width="32.25" height="32.249" viewBox="0 0 32.25 32.249"><path d="M806.627-950.266a1.18,1.18,0,0,0-1.191,1.18,1.193,1.193,0,0,0,1.164,1.212,1.173,1.173,0,0,0,1.186-1.184A1.164,1.164,0,0,0,806.627-950.266Z" transform="translate(-790.138 965.498)" fill="#d81a17"/><path d="M832.905-931.764a1.221,1.221,0,0,0-1.246,1.133,1.232,1.232,0,0,0,1.166,1.257,1.229,1.229,0,0,0,1.225-1.16A1.209,1.209,0,0,0,832.905-931.764Z" transform="translate(-811.384 950.506)" fill="#d81a17"/><path d="M791.9-921.24a1.211,1.211,0,0,0-1.2,1.184,1.2,1.2,0,0,0,1.207,1.2,1.184,1.184,0,0,0,1.173-1.193A1.21,1.21,0,0,0,791.9-921.24Z" transform="translate(-778.198 941.977)" fill="#d81a17"/><path d="M772.07-955.509a1.2,1.2,0,0,0-1.181,1.192,1.214,1.214,0,0,0,1.189,1.192,1.221,1.221,0,0,0,1.2-1.217A1.216,1.216,0,0,0,772.07-955.509Z" transform="translate(-762.143 969.746)" fill="#d81a17"/><path d="M756.809-1015.622c-.29-.722-.716-.787-1.235-.213a2.267,2.267,0,0,1-1.664.8c-.7.021-1.393,0-2.089.01-.276,0-.372-.1-.384-.381-.015-.352.091-.529.468-.489.15.016.3,0,.456,0,.236.007.307-.09.267-.328a12.41,12.41,0,0,0-.583-2.275c-.316-.851-.318-.85-1.092-.416a.233.233,0,0,0-.033.019c-.271.224-.389.04-.517-.178s-.224-.386.082-.551c.557-.3,1.1-.62,1.647-.944a2.375,2.375,0,0,1,2.146-.208c.537.2.85-.014.844-.588a2.444,2.444,0,0,0-1.174-2.134c-.556-.358-.905-.192-1.024.457a2.279,2.279,0,0,1-1.1,1.608c-.584.354-1.188.677-1.771,1.033-.253.154-.364.066-.51-.151-.2-.3-.18-.5.172-.634.128-.05.237-.146.362-.206.256-.123.247-.261.076-.468a12.722,12.722,0,0,0-1.707-1.724c-.634-.524-.637-.52-1.036.177-.031.055-.066.108-.1.164-.187.35-.378.077-.563,0s-.315-.187-.167-.431c.375-.616.721-1.25,1.1-1.867a2.249,2.249,0,0,1,1.551-1.061c.664-.133.837-.524.449-1.082a2.419,2.419,0,0,0-2.014-1.11c-.673-.014-.875.265-.65.908a2.291,2.291,0,0,1-.175,1.974c-.325.573-.665,1.137-.983,1.712-.131.236-.26.3-.508.147-.4-.243-.413-.247-.171-.666a3.457,3.457,0,0,1,.189-.329c.167-.226.106-.348-.149-.441a12.543,12.543,0,0,0-2.264-.628c-.86-.139-.861-.136-.892.742a.249.249,0,0,0,0,.038c.029.335-.185.353-.438.358-.271.005-.435-.056-.428-.374.013-.6.007-1.19,0-1.786a2.5,2.5,0,0,1,.918-2.073c.422-.349.391-.717-.086-1a2.485,2.485,0,0,0-2.3-.133c-.725.287-.792.717-.22,1.233a2.266,2.266,0,0,1,.8,1.663c.021.7,0,1.393.01,2.089,0,.273-.1.377-.377.388-.348.013-.535-.082-.493-.464.015-.138,0-.279,0-.417.014-.268-.08-.352-.362-.3a12.328,12.328,0,0,0-2.344.62c-.915.35-.755.265-.356.982a1.222,1.222,0,0,0,.074.132c.216.3-.024.388-.22.51s-.369.188-.519-.094c-.267-.5-.548-1-.854-1.48a2.523,2.523,0,0,1-.285-2.385c.174-.457-.033-.741-.525-.762a2.394,2.394,0,0,0-2.212,1.155c-.363.553-.2.9.451,1.024a2.189,2.189,0,0,1,1.5.946c.416.65.784,1.33,1.177,1.995.11.185.054.292-.117.4-.426.272-.467.269-.721-.163-.064-.109-.133-.216-.187-.33-.12-.254-.256-.254-.466-.081a12.789,12.789,0,0,0-1.724,1.707c-.525.635-.521.638.175,1.036.044.025.086.055.131.076.375.173.127.38.037.583-.1.228-.224.3-.467.149-.571-.351-1.158-.677-1.738-1.015a2.323,2.323,0,0,1-1.165-1.65c-.115-.608-.485-.786-1.009-.453a2.4,2.4,0,0,0-1.172,1.976c-.041.752.233.956.94.715a2.058,2.058,0,0,1,1.628.044c.723.363,1.414.789,2.117,1.191.086.049.168.1.15.234-.059.447-.366.608-.753.385a3.978,3.978,0,0,1-.362-.208c-.224-.164-.327-.072-.413.152a11.7,11.7,0,0,0-.629,2.263c-.147.875-.141.889.728.9.324,0,.411.131.411.432s-.074.449-.4.441c-.658-.015-1.317.01-1.975-.01a2.311,2.311,0,0,1-1.795-.85c-.409-.495-.83-.463-1.122.105a2.522,2.522,0,0,0-.018,2.34c.29.6.692.642,1.138.137a2.378,2.378,0,0,1,1.912-.843c.266,0,.532,0,.8,0,.367,0,.734.008,1.1,0,.261-.008.357.1.36.361,0,.453-.028.5-.485.5-.152,0-.3,0-.456,0-.218,0-.286.1-.25.312a12.276,12.276,0,0,0,.567,2.24c.326.884.336.9,1.156.432.309-.175.393,0,.519.2.138.224.185.4-.107.548-.438.228-.87.47-1.283.739a2.712,2.712,0,0,1-2.626.367c-.382-.151-.635.049-.693.458a2.539,2.539,0,0,0,1.171,2.317c.555.305.889.156,1-.469a2.279,2.279,0,0,1,1.1-1.609c.584-.354,1.187-.679,1.771-1.034.244-.148.369-.092.514.139.184.295.2.5-.165.64-.128.049-.237.146-.362.206-.242.117-.273.246-.093.465a12.921,12.921,0,0,0,1.618,1.654c.706.6.711.593,1.183-.185a.316.316,0,0,0,.02-.033c.144-.335.341-.186.546-.068s.372.2.194.487c-.366.592-.7,1.206-1.052,1.8a2.262,2.262,0,0,1-1.571,1.094c-.662.132-.843.521-.46,1.079a2.41,2.41,0,0,0,1.934,1.111c.753.038.961-.235.722-.938a2.223,2.223,0,0,1,.15-1.87c.331-.6.685-1.183,1.016-1.781.128-.231.253-.307.507-.154.4.243.416.25.178.664a3.466,3.466,0,0,1-.189.329c-.163.222-.115.348.145.443a12.622,12.622,0,0,0,2.264.628c.863.141.863.137.894-.74a.326.326,0,0,0,0-.038c-.03-.333.181-.356.436-.36s.437.052.43.372c-.012.595-.007,1.19,0,1.785a2.5,2.5,0,0,1-.917,2.074c-.424.35-.394.717.083,1a2.479,2.479,0,0,0,2.334.119c.7-.292.753-.708.189-1.216a2.266,2.266,0,0,1-.8-1.662c-.022-.7,0-1.393-.01-2.089,0-.271.093-.38.374-.39.346-.012.537.078.5.462-.016.15,0,.3,0,.455-.007.229.078.316.322.275a12.51,12.51,0,0,0,2.312-.595c.815-.3.814-.306.388-1.077a.542.542,0,0,0-.038-.066c-.229-.3.039-.381.223-.5.206-.137.369-.184.519.092.308.567.635,1.124.963,1.68a2.352,2.352,0,0,1,.194,2.112c-.2.54.009.854.581.849a2.43,2.43,0,0,0,2.155-1.2c.337-.543.168-.878-.468-.995a2.228,2.228,0,0,1-1.566-1.037c-.38-.612-.723-1.249-1.094-1.867-.13-.217-.07-.333.131-.454.421-.255.43-.26.682.176.063.11.135.215.19.328.12.25.254.259.467.083a12.748,12.748,0,0,0,1.7-1.677c.55-.66.545-.664-.18-1.084a1.054,1.054,0,0,0-.1-.058c-.342-.152-.16-.35-.054-.55s.212-.354.49-.18c.569.355,1.158.677,1.737,1.016a2.316,2.316,0,0,1,1.161,1.652c.112.6.483.776,1.014.444a2.383,2.383,0,0,0,1.17-2.014c.029-.706-.247-.907-.908-.682a2.284,2.284,0,0,1-1.941-.164c-.584-.33-1.157-.68-1.747-1-.277-.149-.256-.3-.128-.545.162-.309.339-.37.619-.156.109.084.248.129.359.211.233.172.349.091.439-.156a12.729,12.729,0,0,0,.622-2.227c.151-.892.147-.9-.742-.92-.3-.006-.4-.124-.393-.411,0-.272.027-.471.379-.463.62.015,1.24,0,1.861,0a2.446,2.446,0,0,1,1.971.891c.379.453.753.421,1.05-.095A2.5,2.5,0,0,0,756.809-1015.622Zm-16.911-7.039a2.126,2.126,0,0,1,2.094,2.11,2.088,2.088,0,0,1-2.086,2.1,2.132,2.132,0,0,1-2.129-2.117A2.153,2.153,0,0,1,739.9-1022.661Zm-5.161,9.613a2.122,2.122,0,0,1-2.107-2.091,2.168,2.168,0,0,1,2.105-2.116,2.129,2.129,0,0,1,2.109,2.134A2.073,2.073,0,0,1,734.736-1013.048Zm3.723,6.513a2.126,2.126,0,0,1-2.063-2.139,2.063,2.063,0,0,1,2.1-2.072,2.127,2.127,0,0,1,2.107,2.1A2.172,2.172,0,0,1,738.459-1006.535Zm2.774-5.489a2.155,2.155,0,0,1-2.092-2.125,2.156,2.156,0,0,1,2.113-2.1,2.134,2.134,0,0,1,2.1,2.106A2.131,2.131,0,0,1,741.233-1012.024Zm4.985,3.473a2.086,2.086,0,0,1-2.088-2.109,2.137,2.137,0,0,1,2.109-2.1,2.168,2.168,0,0,1,2.1,2.125A2.134,2.134,0,0,1,746.218-1008.551Zm.477-6.554a2.127,2.127,0,0,1-2.087-2.119,2.133,2.133,0,0,1,2.111-2.1,2.131,2.131,0,0,1,2.106,2.14A2.128,2.128,0,0,1,746.694-1015.106Z" transform="translate(-724.778 1030.566)" fill="#d81a17"/><path d="M799.4-981.757a1.135,1.135,0,0,0,1.167-1.181,1.14,1.14,0,0,0-1.181-1.171,1.16,1.16,0,0,0-1.172,1.187A1.141,1.141,0,0,0,799.4-981.757Z" transform="translate(-784.282 992.92)" fill="#d81a17"/><path d="M835.569-966.434a1.134,1.134,0,0,0-1.184,1.166,1.134,1.134,0,0,0,1.165,1.184,1.135,1.135,0,0,0,1.184-1.165A1.135,1.135,0,0,0,835.569-966.434Z" transform="translate(-813.596 978.598)" fill="#d81a17"/></svg>