<svg xmlns="http://www.w3.org/2000/svg" width="32" height="32" viewBox="0 0 32 32">
  <g id="gp" transform="translate(252 324)">
    <path id="Path_42" data-name="Path 42" d="M0,0H32V32H0Z" transform="translate(-252 -324)" opacity="0"/>
    <circle id="Ellipse_8" data-name="Ellipse 8" cx="14" cy="14" r="14" transform="translate(-250 -324)" fill="#89b200"/>
    <path id="Polygon_3" data-name="Polygon 3" d="M6,0l6,10H0Z" transform="translate(-230 -292) rotate(-180)" fill="#89b200"/>
    <path id="Icon_open-people" data-name="Icon open-people" d="M12.451,0A3.3,3.3,0,0,0,9.689,1.538a5,5,0,0,1,1.63,3.723,4.831,4.831,0,0,1-.2,1.416,3.234,3.234,0,0,0,1.336.332,3.449,3.449,0,0,0,3.4-3.5,3.449,3.449,0,0,0-3.4-3.5ZM5.659,1.748a3.449,3.449,0,0,0-3.4,3.5,3.449,3.449,0,0,0,3.4,3.5,3.449,3.449,0,0,0,3.4-3.5A3.449,3.449,0,0,0,5.659,1.748ZM16.412,7.271a5.809,5.809,0,0,1-3.826,1.468,3.47,3.47,0,0,1,1,2.342v1.154H18.11v-2.9a2.378,2.378,0,0,0-1.7-2.08ZM1.7,9.019A2.378,2.378,0,0,0,0,11.1V14H11.319V11.1a2.378,2.378,0,0,0-1.7-2.08,5.819,5.819,0,0,1-3.962,1.468A5.9,5.9,0,0,1,1.7,9.019Z" transform="translate(-245.136 -318.124)" fill="#fff"/>
  </g>
</svg>
