<svg xmlns="http://www.w3.org/2000/svg" width="32" height="32" viewBox="0 0 32 32">
  <g id="rr" transform="translate(210 324)">
    <rect id="Rectangle_135" data-name="Rectangle 135" width="32" height="32" transform="translate(-210 -324)" fill="#fff" opacity="0"/>
    <circle id="Ellipse_7" data-name="Ellipse 7" cx="14" cy="14" r="14" transform="translate(-208 -324)" fill="#ea0000"/>
    <path id="Polygon_2" data-name="Polygon 2" d="M6,0l6,10H0Z" transform="translate(-188 -292) rotate(-180)" fill="#ea0000"/>
    <g id="Group_86" data-name="Group 86" transform="translate(327.337 -669.301)">
      <path id="Path_34" data-name="Path 34" d="M-514.6,365.95a.141.141,0,0,1-.036-.185,4,4,0,0,0,.141-.387,9.043,9.043,0,0,0,.309-2.646c0-.316-.009-.633-.028-.95-.036-.6-.088-1.2-.161-1.8-.12-.972-.271-1.941-.481-2.9a.5.5,0,0,1,.154-.53,2.024,2.024,0,0,0,.617-1.524,2.611,2.611,0,0,0-.172-.748c-.2-.618-.408-1.232-.591-1.853a1.025,1.025,0,0,0-.5-.612,3.477,3.477,0,0,0-.809-.333,12.275,12.275,0,0,0-2.129-.387.768.768,0,0,1-.432-.161c-.642-.523-1.288-1.041-1.944-1.547a1.459,1.459,0,0,0-1.8.041c-.623.507-1.25,1.009-1.869,1.521a.643.643,0,0,1-.361.147,12.333,12.333,0,0,0-2.2.409,2.707,2.707,0,0,0-.932.439.617.617,0,0,0-.256.352,4.674,4.674,0,0,1-.153.539c-.161.492-.289,1-.477,1.479a2.087,2.087,0,0,0-.169.77,2.1,2.1,0,0,0,.669,1.526.15.15,0,0,1,.046.158c-.059.279-.119.558-.171.839-.19,1.022-.348,2.049-.448,3.084-.058.6-.1,1.194-.115,1.792a12.418,12.418,0,0,0,.052,1.541,6.29,6.29,0,0,0,.4,1.8.094.094,0,0,1-.027.129,1.366,1.366,0,0,0-.382.487.839.839,0,0,0,.506,1.3,2.333,2.333,0,0,0,.674.12c.341.017.683,0,1.024.013.771.031,1.54.087,2.31.131q1.293.074,2.588.083c.863.005,1.727-.016,2.589-.059.419-.021.838-.038,1.255-.07.727-.054,1.456-.083,2.2-.1.086,0,.193.007.3,0a2.007,2.007,0,0,0,.96-.254.74.74,0,0,0,.347-.779A1.568,1.568,0,0,0-514.6,365.95Zm-2.523-13.971a6.938,6.938,0,0,1,1.132.3,2,2,0,0,1,.333.159c.063.038.065.078,0,.119a2.477,2.477,0,0,1-.583.27.12.12,0,0,1-.118-.024l-1.033-.822a.229.229,0,0,1-.03-.042A.962.962,0,0,1-517.121,351.978Zm-6.91-.365q.98-.8,1.959-1.6a.78.78,0,0,1,1.06-.013q1.338,1.061,2.676,2.121.563.447,1.123.9c.016.013.031.027.046.041l-.006.033a23.671,23.671,0,0,1-8.622,0c-.013-.044,0-.055.017-.065Zm-3.29.835a2.946,2.946,0,0,1,.784-.307,8.163,8.163,0,0,1,.918-.2.056.056,0,0,1,.058.009l-.439.359c-.191.156-.384.309-.572.468a.192.192,0,0,1-.219.043,2.493,2.493,0,0,1-.534-.25C-527.393,352.522-527.39,352.49-527.322,352.448Zm3.417,12.646q-.463.423-.924.849a.262.262,0,0,1-.161.081.191.191,0,0,1-.174-.114.17.17,0,0,1,.033-.206c.118-.118.237-.236.36-.351.227-.213.461-.419.685-.636.081-.078.131-.075.2.008C-523.715,364.923-523.713,364.92-523.9,365.095Zm.21-.86a2.867,2.867,0,0,1-.5-1.415,1.383,1.383,0,0,1,.467-1.023,3.022,3.022,0,0,1,.638-.469c.069-.039.131-.055.177.028a2.321,2.321,0,0,1,.379,1.455,1.887,1.887,0,0,1-.572,1.045,3.443,3.443,0,0,1-.452.393C-523.608,364.289-523.655,364.3-523.694,364.234Zm3.322-.006a2.323,2.323,0,0,1-1.032.945,1.019,1.019,0,0,1-.439.083,1.9,1.9,0,0,1-.879-.228,3.773,3.773,0,0,1-.546-.335c-.064-.045-.073-.087-.025-.149a2.4,2.4,0,0,1,1.227-.92,1.552,1.552,0,0,1,.983.09,2.864,2.864,0,0,1,.661.357C-520.364,364.113-520.321,364.15-520.373,364.228Zm-1.935-2.9a1.235,1.235,0,0,1,.4-.7,2.4,2.4,0,0,1,.5-.369c.064-.037.119-.046.163.033a2.344,2.344,0,0,1,.322,1.032,1.28,1.28,0,0,1-.448.935,2.763,2.763,0,0,1-.46.337.115.115,0,0,1-.185-.043A1.9,1.9,0,0,1-522.308,361.326Zm3.139,1.344a1.962,1.962,0,0,1-.873.771.922.922,0,0,1-.442.063,2.116,2.116,0,0,1-1.032-.4.091.091,0,0,1-.029-.15,2.258,2.258,0,0,1,.694-.692,1.173,1.173,0,0,1,.944-.089,2.36,2.36,0,0,1,.7.34C-519.143,362.557-519.12,362.6-519.169,362.67Zm-1.587-2.325a1.111,1.111,0,0,1,.517-.861c.329-.246.349-.241.5.145a1.156,1.156,0,0,1,.022,1,1.642,1.642,0,0,1-.643.62.084.084,0,0,1-.136-.038A1.888,1.888,0,0,1-520.755,360.344Zm2.49,1.172a1.169,1.169,0,0,1-.806.5,1.661,1.661,0,0,1-.975-.319c-.077-.051-.054-.107-.012-.165a1.158,1.158,0,0,1,1.714-.428C-518.069,361.258-518.063,361.28-518.265,361.517Zm.337-1.6a.914.914,0,0,1-.595.507,2.1,2.1,0,0,1-.578.076c-.1,0-.152-.038-.15-.149a1.684,1.684,0,0,1,.16-.7.937.937,0,0,1,.708-.509c.122-.025.248-.032.372-.048v.011c.047,0,.093,0,.139,0,.068,0,.1.039.094.109A1.837,1.837,0,0,1-517.928,359.921Zm1.568-3.241c-.686.164-1.374.313-2.072.414-.593.086-1.188.151-1.786.185-.419.024-.838.043-1.257.04a21.323,21.323,0,0,1-2.446-.145,20.729,20.729,0,0,1-2.864-.545,1.834,1.834,0,0,1-1.261-.978,1.143,1.143,0,0,1-.065-.914c.169-.471.319-.948.467-1.426.037-.12.043-.121.151-.063a6.081,6.081,0,0,0,1.652.541,17.992,17.992,0,0,0,2.386.321c.428.031.857.053,1.287.069s.832.018,1.247.008c.637-.015,1.274-.05,1.909-.114a16.4,16.4,0,0,0,2.273-.366,5.161,5.161,0,0,0,1.283-.453c.085-.047.117-.034.145.06.146.478.3.953.464,1.427a1.265,1.265,0,0,1-.3,1.276A2.154,2.154,0,0,1-516.36,356.681Z" transform="translate(0 0)" fill="#fff"/>
      <path id="Path_35" data-name="Path 35" d="M-387.114,400.348a.254.254,0,0,0,.264-.267.261.261,0,0,0-.259-.264.274.274,0,0,0-.27.268A.271.271,0,0,0-387.114,400.348Z" transform="translate(-132.591 -47.487)" fill="#fff"/>
      <path id="Path_36" data-name="Path 36" d="M-412.024,367.827a.254.254,0,0,0,.262-.269.266.266,0,0,0-.263-.262.279.279,0,0,0-.267.263A.268.268,0,0,0-412.024,367.827Z" transform="translate(-109.265 -17.039)" fill="#fff"/>
      <path id="Path_37" data-name="Path 37" d="M-398.5,380.751a.266.266,0,0,0,.262-.263.269.269,0,0,0-.269-.268.266.266,0,0,0-.259.266A.255.255,0,0,0-398.5,380.751Z" transform="translate(-121.932 -29.139)" fill="#fff"/>
      <path id="Path_38" data-name="Path 38" d="M-451.849,400.347a.258.258,0,0,0,.251-.27.266.266,0,0,0-.264-.26.27.27,0,0,0-.265.262A.267.267,0,0,0-451.849,400.347Z" transform="translate(-71.969 -47.487)" fill="#fff"/>
      <path id="Path_39" data-name="Path 39" d="M-437.906,387.686a.267.267,0,0,0,.269-.265.258.258,0,0,0-.256-.266.267.267,0,0,0-.272.264A.268.268,0,0,0-437.906,387.686Z" transform="translate(-85.042 -35.633)" fill="#fff"/>
      <path id="Path_40" data-name="Path 40" d="M-435.2,403.146a.268.268,0,0,0,.26.266.253.253,0,0,0,.27-.259.264.264,0,0,0-.265-.268A.269.269,0,0,0-435.2,403.146Z" transform="translate(-87.819 -50.359)" fill="#fff"/>
      <path id="Path_41" data-name="Path 41" d="M-371.019,400.346a.254.254,0,0,0,.26-.259.257.257,0,0,0-.261-.271.252.252,0,0,0-.258.261A.251.251,0,0,0-371.019,400.346Z" transform="translate(-147.666 -47.486)" fill="#fff"/>
    </g>
  </g>
</svg>
